M48
;Layer_Color=9474304
;FILE_FORMAT=2:5
INCH,LZ
;TYPE=PLATED
T1F00S00C0.01575
T3F00S00C0.11811
;TYPE=NON_PLATED
T4F00S00C0.02559
%
T01
X-0032Y-0082
X-002485Y-004865
X-0005Y-0061
X0018188Y-0044
X0034938
X005285Y-004915
X-004575Y-006125
X-0058Y-0053
X-006Y-0016
X-005511Y0008819
X-0052Y0023
X-00665Y00405
X-008011Y000265
X-0038Y0003
X-00395Y00095
X-003361Y0022
X-00375Y0033
X-0027815Y0047602
X-0011Y004111
X00015Y0042625
Y005225
X-00045
Y0061875
X00015
Y00715
Y00775
Y00835
X-00045
Y00775
Y00715
X0011125
Y00775
Y00835
X002075
Y00775
Y00715
Y006325
X0020625Y0055
X0011
X0011125Y006325
X0030375
Y00715
Y00775
Y00835
X0040125Y008
Y0069
X004Y006325
X0039875Y0055
X00495
X0049625Y006325
X0052625Y0069
X006
Y006075
X00595Y00525
X007175Y0055
Y006075
X00835
Y0055
X006Y008
X0052625
X003025Y0055
X002735Y001985
X-0002669Y0020331
Y0016
Y0011669
X-0007
Y0016
Y0020331
X-0011331
Y0016
Y0011669
X-0007Y00005
X-00215Y00045
X-00195Y00265
X00015Y0033
X0007Y00065
X00165Y-00015
X0012Y-0007
X0023Y-0011
X0004Y-00155
X0Y-0023
Y-0031
X-001175Y-003365
X-00135Y-0016
X-0029Y-0019
X-0038736Y-0031736
X0042354Y-000555
X0061142Y-0008858
X00615Y00015
X0061142Y0008858
X0079Y00015
T03
X0074803Y-0074803
X-0074803
Y0074803
X0078Y0046
T04
X-0068012Y-0051378
Y-0028622
M30
