G04*
G04 #@! TF.GenerationSoftware,Altium Limited,Altium Designer,22.6.1 (34)*
G04*
G04 Layer_Physical_Order=2*
G04 Layer_Color=16711680*
%FSLAX25Y25*%
%MOIN*%
G70*
G04*
G04 #@! TF.SameCoordinates,C960C2BB-4387-47BD-B0B2-73E0CB32DA73*
G04*
G04*
G04 #@! TF.FilePolarity,Positive*
G04*
G01*
G75*
%ADD12C,0.00787*%
%ADD69C,0.01181*%
%ADD73C,0.13780*%
%ADD74C,0.02559*%
%ADD75O,0.08268X0.04134*%
%ADD76O,0.07874X0.03937*%
%ADD77C,0.03150*%
%ADD78R,0.05118X0.06102*%
G36*
X-80709Y87077D02*
X62500D01*
Y62500D01*
X87077D01*
Y19882D01*
X84646D01*
Y15650D01*
Y11417D01*
X87077D01*
Y-11417D01*
X84646D01*
Y-15650D01*
Y-19882D01*
X87077D01*
Y-80709D01*
X87084Y-80741D01*
X86964Y-81953D01*
X86602Y-83149D01*
X86012Y-84252D01*
X85219Y-85219D01*
X84252Y-86012D01*
X83150Y-86602D01*
X81953Y-86964D01*
X80741Y-87084D01*
X80709Y-87077D01*
X-80709D01*
X-80741Y-87084D01*
X-81953Y-86964D01*
X-83150Y-86602D01*
X-84252Y-86012D01*
X-85219Y-85219D01*
X-86012Y-84252D01*
X-86602Y-83149D01*
X-86964Y-81953D01*
X-87084Y-80741D01*
X-87077Y-80709D01*
Y-59550D01*
X-86577Y-59360D01*
X-86057Y-59759D01*
X-85291Y-60076D01*
X-84469Y-60185D01*
X-80532D01*
X-79709Y-60076D01*
X-78943Y-59759D01*
X-78285Y-59254D01*
X-77780Y-58596D01*
X-77463Y-57830D01*
X-77355Y-57008D01*
X-77463Y-56186D01*
X-77780Y-55419D01*
X-78285Y-54761D01*
X-78943Y-54257D01*
X-79709Y-53939D01*
X-80532Y-53831D01*
X-84469D01*
X-85291Y-53939D01*
X-86057Y-54257D01*
X-86577Y-54656D01*
X-87077Y-54466D01*
Y-25534D01*
X-86577Y-25344D01*
X-86057Y-25743D01*
X-85291Y-26061D01*
X-84469Y-26169D01*
X-80532D01*
X-79709Y-26061D01*
X-78943Y-25743D01*
X-78285Y-25238D01*
X-77780Y-24580D01*
X-77463Y-23814D01*
X-77355Y-22992D01*
X-77463Y-22170D01*
X-77780Y-21404D01*
X-78285Y-20746D01*
X-78943Y-20241D01*
X-79476Y-20020D01*
X-79478Y-20019D01*
X-79478Y-20019D01*
X-79709Y-19924D01*
X-79921Y-19882D01*
X-79921Y-19882D01*
Y-16634D01*
X-83661D01*
Y-15650D01*
X-84646D01*
Y-11417D01*
X-87077D01*
Y11417D01*
X-84646D01*
Y15650D01*
Y19882D01*
X-87077D01*
Y80209D01*
X-87077Y80709D01*
X-87039Y81193D01*
X-86964Y81953D01*
X-86602Y83149D01*
X-86012Y84252D01*
X-85219Y85219D01*
X-84252Y86012D01*
X-83149Y86602D01*
X-81953Y86964D01*
X-80741Y87084D01*
X-80709Y87077D01*
D02*
G37*
%LPC*%
G36*
X-74008Y82874D02*
X-75598D01*
X-77157Y82564D01*
X-78626Y81955D01*
X-79948Y81072D01*
X-81072Y79948D01*
X-81955Y78626D01*
X-82564Y77157D01*
X-82874Y75598D01*
Y74008D01*
X-82564Y72449D01*
X-81955Y70980D01*
X-81072Y69658D01*
X-79948Y68534D01*
X-78626Y67651D01*
X-77157Y67042D01*
X-75598Y66732D01*
X-74008D01*
X-72449Y67042D01*
X-70980Y67651D01*
X-69658Y68534D01*
X-68534Y69658D01*
X-67651Y70980D01*
X-67042Y72449D01*
X-66732Y74008D01*
Y75598D01*
X-67042Y77157D01*
X-67651Y78626D01*
X-68534Y79948D01*
X-69658Y81072D01*
X-70980Y81955D01*
X-72449Y82564D01*
X-74008Y82874D01*
D02*
G37*
G36*
X78795Y54071D02*
X77205D01*
X75646Y53761D01*
X74177Y53152D01*
X72855Y52269D01*
X71731Y51145D01*
X70848Y49823D01*
X70239Y48354D01*
X69929Y46795D01*
Y45205D01*
X70239Y43646D01*
X70848Y42177D01*
X71731Y40855D01*
X72855Y39731D01*
X74177Y38848D01*
X75646Y38239D01*
X77205Y37929D01*
X78795D01*
X80354Y38239D01*
X81823Y38848D01*
X83145Y39731D01*
X84269Y40855D01*
X85152Y42177D01*
X85761Y43646D01*
X86071Y45205D01*
Y46795D01*
X85761Y48354D01*
X85152Y49823D01*
X84269Y51145D01*
X83145Y52269D01*
X81823Y53152D01*
X80354Y53761D01*
X78795Y54071D01*
D02*
G37*
G36*
X-51637Y25756D02*
X-52363D01*
X-53064Y25568D01*
X-53692Y25205D01*
X-54205Y24692D01*
X-54568Y24064D01*
X-54756Y23363D01*
Y22637D01*
X-54568Y21936D01*
X-54205Y21308D01*
X-54084Y21187D01*
X-58016Y17255D01*
X-62205D01*
Y19882D01*
X-69685D01*
Y11417D01*
X-62205D01*
Y14044D01*
X-57350D01*
X-57350Y14044D01*
X-56736Y14166D01*
X-56215Y14514D01*
X-51317Y19413D01*
X-51317Y19413D01*
X-50968Y19934D01*
X-50861Y20475D01*
X-50308Y20795D01*
X-49795Y21308D01*
X-49432Y21936D01*
X-49244Y22637D01*
Y23363D01*
X-49432Y24064D01*
X-49795Y24692D01*
X-50308Y25205D01*
X-50936Y25568D01*
X-51637Y25756D01*
D02*
G37*
G36*
X-79921Y19882D02*
X-82677D01*
Y16634D01*
X-79921D01*
Y19882D01*
D02*
G37*
G36*
X-5118D02*
X-7874D01*
Y16634D01*
X-5118D01*
Y19882D01*
D02*
G37*
G36*
X-9843D02*
X-12598D01*
Y16634D01*
X-9843D01*
Y19882D01*
D02*
G37*
G36*
X82677D02*
X79921D01*
Y16634D01*
X82677D01*
Y19882D01*
D02*
G37*
G36*
Y14665D02*
X79921D01*
Y11417D01*
X82677D01*
Y14665D01*
D02*
G37*
G36*
X69685Y19882D02*
X62205D01*
Y11417D01*
X69685D01*
Y19882D01*
D02*
G37*
G36*
X12598D02*
X5118D01*
Y11417D01*
X12598D01*
Y19882D01*
D02*
G37*
G36*
X-5118Y14665D02*
X-7874D01*
Y11417D01*
X-5118D01*
Y14665D01*
D02*
G37*
G36*
X-9843D02*
X-12598D01*
Y11417D01*
X-9843D01*
Y14665D01*
D02*
G37*
G36*
X-79921Y14665D02*
X-82677D01*
Y11417D01*
X-79921D01*
Y14665D01*
D02*
G37*
G36*
X79363Y4256D02*
X78637D01*
X77936Y4068D01*
X77308Y3705D01*
X76909Y3306D01*
X63591D01*
X63192Y3705D01*
X62564Y4068D01*
X61863Y4256D01*
X61137D01*
X60436Y4068D01*
X59808Y3705D01*
X59295Y3192D01*
X58932Y2564D01*
X58744Y1863D01*
Y1137D01*
X58932Y436D01*
X59295Y-192D01*
X59808Y-705D01*
X60436Y-1068D01*
X61137Y-1256D01*
X61863D01*
X62564Y-1068D01*
X63192Y-705D01*
X63591Y-306D01*
X76909D01*
X77308Y-705D01*
X77936Y-1068D01*
X78637Y-1256D01*
X79363D01*
X80064Y-1068D01*
X80692Y-705D01*
X81205Y-192D01*
X81568Y436D01*
X81756Y1137D01*
Y1863D01*
X81568Y2564D01*
X81205Y3192D01*
X80692Y3705D01*
X80064Y4068D01*
X79363Y4256D01*
D02*
G37*
G36*
X-19137Y29256D02*
X-19863D01*
X-20564Y29068D01*
X-21192Y28705D01*
X-21705Y28192D01*
X-22068Y27564D01*
X-22256Y26863D01*
Y26299D01*
X-22777Y25777D01*
X-23169Y25191D01*
X-23306Y24500D01*
Y6591D01*
X-23705Y6192D01*
X-24068Y5564D01*
X-24256Y4863D01*
Y4137D01*
X-24068Y3436D01*
X-23705Y2808D01*
X-23192Y2295D01*
X-22564Y1932D01*
X-21863Y1744D01*
X-21137D01*
X-20436Y1932D01*
X-19808Y2295D01*
X-19295Y2808D01*
X-18932Y3436D01*
X-18744Y4137D01*
Y4863D01*
X-18932Y5564D01*
X-19295Y6192D01*
X-19694Y6591D01*
Y23744D01*
X-19137D01*
X-18436Y23932D01*
X-17808Y24295D01*
X-17295Y24808D01*
X-16932Y25436D01*
X-16744Y26137D01*
Y26863D01*
X-16932Y27564D01*
X-17295Y28192D01*
X-17808Y28705D01*
X-18436Y29068D01*
X-19137Y29256D01*
D02*
G37*
G36*
X-39137Y12256D02*
X-39863D01*
X-40564Y12068D01*
X-41192Y11705D01*
X-41705Y11192D01*
X-42068Y10564D01*
X-42256Y9863D01*
Y9137D01*
X-42068Y8436D01*
X-41705Y7808D01*
X-41192Y7295D01*
X-40564Y6932D01*
X-39863Y6744D01*
X-39137D01*
X-38436Y6932D01*
X-37808Y7295D01*
X-37409Y7694D01*
X-33248D01*
X-30306Y4752D01*
Y2000D01*
X-30169Y1309D01*
X-29777Y723D01*
X-25777Y-3277D01*
X-25191Y-3669D01*
X-24500Y-3806D01*
X-9500D01*
X-8809Y-3669D01*
X-8223Y-3277D01*
X-7201Y-2256D01*
X-6637D01*
X-5936Y-2068D01*
X-5308Y-1705D01*
X-4795Y-1192D01*
X-4432Y-564D01*
X-4244Y137D01*
Y863D01*
X-4432Y1564D01*
X-4795Y2192D01*
X-5308Y2705D01*
X-5936Y3068D01*
X-6637Y3256D01*
X-7363D01*
X-8064Y3068D01*
X-8692Y2705D01*
X-9205Y2192D01*
X-9568Y1564D01*
X-9756Y863D01*
Y299D01*
X-10248Y-194D01*
X-23752D01*
X-26694Y2748D01*
Y5500D01*
X-26831Y6191D01*
X-27223Y6777D01*
X-31223Y10777D01*
X-31809Y11169D01*
X-32500Y11306D01*
X-37409D01*
X-37808Y11705D01*
X-38436Y12068D01*
X-39137Y12256D01*
D02*
G37*
G36*
X7363Y9256D02*
X6637D01*
X5936Y9068D01*
X5308Y8705D01*
X4795Y8192D01*
X4432Y7564D01*
X4244Y6863D01*
Y6137D01*
X4432Y5436D01*
X4795Y4808D01*
X5194Y4409D01*
Y-2000D01*
X5331Y-2691D01*
X5723Y-3277D01*
X9244Y-6799D01*
Y-7363D01*
X9432Y-8064D01*
X9795Y-8692D01*
X10308Y-9205D01*
X10936Y-9568D01*
X11637Y-9756D01*
X12363D01*
X13064Y-9568D01*
X13692Y-9205D01*
X14205Y-8692D01*
X14568Y-8064D01*
X14756Y-7363D01*
Y-6637D01*
X14568Y-5936D01*
X14205Y-5308D01*
X13692Y-4795D01*
X13064Y-4432D01*
X12363Y-4244D01*
X11799D01*
X8806Y-1252D01*
Y4409D01*
X9205Y4808D01*
X9568Y5436D01*
X9756Y6137D01*
Y6863D01*
X9568Y7564D01*
X9205Y8192D01*
X8692Y8705D01*
X8064Y9068D01*
X7363Y9256D01*
D02*
G37*
G36*
X12598Y-11417D02*
X5118D01*
Y-12429D01*
X4618Y-12812D01*
X4363Y-12744D01*
X3637D01*
X2936Y-12932D01*
X2308Y-13295D01*
X1795Y-13808D01*
X1432Y-14436D01*
X1244Y-15137D01*
Y-15863D01*
X1432Y-16564D01*
X1795Y-17192D01*
X2308Y-17705D01*
X2936Y-18068D01*
X3637Y-18256D01*
X4363D01*
X4618Y-18188D01*
X5118Y-18571D01*
Y-19882D01*
X12598D01*
Y-11417D01*
D02*
G37*
G36*
X-79921D02*
X-82677D01*
Y-14665D01*
X-79921D01*
Y-11417D01*
D02*
G37*
G36*
X-5118D02*
X-7874D01*
Y-14665D01*
X-5118D01*
Y-11417D01*
D02*
G37*
G36*
X-9843D02*
X-12598D01*
Y-14665D01*
X-9843D01*
Y-11417D01*
D02*
G37*
G36*
X82677D02*
X79921D01*
Y-14665D01*
X82677D01*
Y-11417D01*
D02*
G37*
G36*
Y-16634D02*
X79921D01*
Y-19882D01*
X82677D01*
Y-16634D01*
D02*
G37*
G36*
X42717Y-2794D02*
X41991D01*
X41290Y-2982D01*
X40662Y-3345D01*
X40149Y-3858D01*
X39786Y-4486D01*
X39598Y-5187D01*
Y-5913D01*
X39786Y-6614D01*
X40149Y-7242D01*
X40662Y-7755D01*
X41290Y-8118D01*
X41991Y-8306D01*
X42717D01*
X43418Y-8118D01*
X44046Y-7755D01*
X44559Y-7242D01*
X44609Y-7156D01*
X63885D01*
X64339Y-7610D01*
Y-11417D01*
X62205D01*
Y-19882D01*
X69685D01*
Y-11417D01*
X67550D01*
Y-6945D01*
X67550Y-6945D01*
X67428Y-6330D01*
X67080Y-5810D01*
X65685Y-4415D01*
X65165Y-4067D01*
X64550Y-3944D01*
X64550Y-3944D01*
X44609D01*
X44559Y-3858D01*
X44046Y-3345D01*
X43418Y-2982D01*
X42717Y-2794D01*
D02*
G37*
G36*
X-5118Y-16634D02*
X-7874D01*
Y-19882D01*
X-5118D01*
Y-16634D01*
D02*
G37*
G36*
X-9843D02*
X-12598D01*
Y-19882D01*
X-9843D01*
Y-16634D01*
D02*
G37*
G36*
X-62205Y-11417D02*
X-69685D01*
Y-19882D01*
X-69918Y-20285D01*
X-70427Y-20676D01*
X-70947Y-21354D01*
X-71275Y-22144D01*
X-71386Y-22992D01*
X-71275Y-23840D01*
X-70947Y-24630D01*
X-70427Y-25309D01*
X-69748Y-25829D01*
X-69377Y-25983D01*
Y-26524D01*
X-69406Y-26536D01*
X-70098Y-27228D01*
X-70472Y-28133D01*
Y-29111D01*
X-70098Y-30016D01*
X-69406Y-30708D01*
X-68501Y-31083D01*
X-67522D01*
X-66618Y-30708D01*
X-65926Y-30016D01*
X-65551Y-29111D01*
Y-28133D01*
X-65926Y-27228D01*
X-66386Y-26768D01*
X-66179Y-26268D01*
X-63976D01*
X-63129Y-26157D01*
X-62338Y-25829D01*
X-61660Y-25309D01*
X-61139Y-24630D01*
X-60812Y-23840D01*
X-60700Y-22992D01*
X-60812Y-22144D01*
X-61139Y-21354D01*
X-61660Y-20676D01*
X-62074Y-20358D01*
X-62205Y-19882D01*
X-62205D01*
X-62205Y-19882D01*
Y-11417D01*
D02*
G37*
G36*
X363Y-20244D02*
X-363D01*
X-1064Y-20432D01*
X-1692Y-20795D01*
X-2205Y-21308D01*
X-2568Y-21936D01*
X-2756Y-22637D01*
Y-23363D01*
X-2568Y-24064D01*
X-2205Y-24692D01*
X-1806Y-25091D01*
Y-28909D01*
X-2205Y-29308D01*
X-2568Y-29936D01*
X-2756Y-30637D01*
Y-31363D01*
X-2568Y-32064D01*
X-2205Y-32692D01*
X-1692Y-33205D01*
X-1064Y-33568D01*
X-363Y-33756D01*
X363D01*
X1064Y-33568D01*
X1692Y-33205D01*
X2205Y-32692D01*
X2568Y-32064D01*
X2756Y-31363D01*
Y-30637D01*
X2568Y-29936D01*
X2205Y-29308D01*
X1806Y-28909D01*
Y-25091D01*
X2205Y-24692D01*
X2568Y-24064D01*
X2756Y-23363D01*
Y-22637D01*
X2568Y-21936D01*
X2205Y-21308D01*
X1692Y-20795D01*
X1064Y-20432D01*
X363Y-20244D01*
D02*
G37*
G36*
X-67522Y-48917D02*
X-68501D01*
X-69406Y-49292D01*
X-70098Y-49984D01*
X-70472Y-50889D01*
Y-51867D01*
X-70098Y-52772D01*
X-69406Y-53464D01*
X-69377Y-53476D01*
Y-54017D01*
X-69748Y-54171D01*
X-70427Y-54691D01*
X-70947Y-55370D01*
X-71275Y-56160D01*
X-71386Y-57008D01*
X-71275Y-57856D01*
X-70947Y-58646D01*
X-70427Y-59324D01*
X-69748Y-59845D01*
X-68958Y-60172D01*
X-68110Y-60284D01*
X-63976D01*
X-63129Y-60172D01*
X-62338Y-59845D01*
X-61660Y-59324D01*
X-61139Y-58646D01*
X-60812Y-57856D01*
X-60700Y-57008D01*
X-60812Y-56160D01*
X-61139Y-55370D01*
X-61660Y-54691D01*
X-62338Y-54171D01*
X-63129Y-53843D01*
X-63976Y-53732D01*
X-66179D01*
X-66386Y-53232D01*
X-65926Y-52772D01*
X-65551Y-51867D01*
Y-50889D01*
X-65926Y-49984D01*
X-66618Y-49292D01*
X-67522Y-48917D01*
D02*
G37*
G36*
X75598Y-66732D02*
X74008D01*
X72449Y-67042D01*
X70980Y-67651D01*
X69658Y-68534D01*
X68534Y-69658D01*
X67651Y-70980D01*
X67042Y-72449D01*
X66732Y-74008D01*
Y-75598D01*
X67042Y-77157D01*
X67651Y-78626D01*
X68534Y-79948D01*
X69658Y-81072D01*
X70980Y-81955D01*
X72449Y-82564D01*
X74008Y-82874D01*
X75598D01*
X77157Y-82564D01*
X78626Y-81955D01*
X79948Y-81072D01*
X81072Y-79948D01*
X81955Y-78626D01*
X82564Y-77157D01*
X82874Y-75598D01*
Y-74008D01*
X82564Y-72449D01*
X81955Y-70980D01*
X81072Y-69658D01*
X79948Y-68534D01*
X78626Y-67651D01*
X77157Y-67042D01*
X75598Y-66732D01*
D02*
G37*
G36*
X-74008D02*
X-75598D01*
X-77157Y-67042D01*
X-78626Y-67651D01*
X-79948Y-68534D01*
X-81072Y-69658D01*
X-81955Y-70980D01*
X-82564Y-72449D01*
X-82874Y-74008D01*
Y-75598D01*
X-82564Y-77157D01*
X-81955Y-78626D01*
X-81072Y-79948D01*
X-79948Y-81072D01*
X-78626Y-81955D01*
X-77157Y-82564D01*
X-75598Y-82874D01*
X-74008D01*
X-72449Y-82564D01*
X-70980Y-81955D01*
X-69658Y-81072D01*
X-68534Y-79948D01*
X-67651Y-78626D01*
X-67042Y-77157D01*
X-66732Y-75598D01*
Y-74008D01*
X-67042Y-72449D01*
X-67651Y-70980D01*
X-68534Y-69658D01*
X-69658Y-68534D01*
X-70980Y-67651D01*
X-72449Y-67042D01*
X-74008Y-66732D01*
D02*
G37*
%LPD*%
D12*
X64550Y-5550D02*
X65945Y-6945D01*
Y-15650D02*
Y-6945D01*
X42354Y-5550D02*
X64550D01*
X-52452Y22548D02*
X-52000Y23000D01*
X-52452Y20548D02*
Y22548D01*
X-57350Y15650D02*
X-52452Y20548D01*
X-65945Y15650D02*
X-57350D01*
D69*
X0Y-31000D02*
Y-23000D01*
X7000Y-2000D02*
X12000Y-7000D01*
X7000Y-2000D02*
Y6500D01*
X4000Y-15500D02*
X8709D01*
X8858Y-15650D01*
X-9500Y-2000D02*
X-7000Y500D01*
X-24500Y-2000D02*
X-9500D01*
X-28500Y2000D02*
X-24500Y-2000D01*
X-28500Y2000D02*
Y5500D01*
X-32500Y9500D02*
X-28500Y5500D01*
X-39500Y9500D02*
X-32500D01*
X61500Y1500D02*
X79000D01*
X-21500Y24500D02*
X-19500Y26500D01*
X-21500Y4500D02*
Y24500D01*
D73*
X78000Y46000D02*
D03*
X74803Y-74803D02*
D03*
X-74803D02*
D03*
Y74803D02*
D03*
D74*
X-68012Y-28622D02*
D03*
Y-51378D02*
D03*
D75*
X-66043Y-57008D02*
D03*
Y-22992D02*
D03*
D76*
X-82500Y-57008D02*
D03*
Y-22992D02*
D03*
D77*
X-2669Y20331D02*
D03*
Y16000D02*
D03*
Y11669D02*
D03*
X-7000Y20331D02*
D03*
Y16000D02*
D03*
Y11669D02*
D03*
X-11331Y20331D02*
D03*
Y16000D02*
D03*
Y11669D02*
D03*
X71750Y55000D02*
D03*
X83500D02*
D03*
X30375Y83500D02*
D03*
X20750D02*
D03*
X11125D02*
D03*
X1500D02*
D03*
X-4500D02*
D03*
X49625Y63250D02*
D03*
X40000D02*
D03*
X49500Y55000D02*
D03*
X39875D02*
D03*
X11000D02*
D03*
X20625D02*
D03*
X30250D02*
D03*
X11125Y63250D02*
D03*
X20750D02*
D03*
X30375D02*
D03*
X-4500Y77500D02*
D03*
X83500Y60750D02*
D03*
X71750D02*
D03*
X60000D02*
D03*
X1500Y77500D02*
D03*
X11125D02*
D03*
X20750D02*
D03*
X30375D02*
D03*
X40125Y80000D02*
D03*
X52625D02*
D03*
X60000D02*
D03*
Y69000D02*
D03*
X52625D02*
D03*
X40125D02*
D03*
X30375Y71500D02*
D03*
X20750D02*
D03*
X11125D02*
D03*
X-4500Y52250D02*
D03*
Y61875D02*
D03*
Y71500D02*
D03*
X1500D02*
D03*
Y61875D02*
D03*
Y52250D02*
D03*
Y42625D02*
D03*
Y33000D02*
D03*
X-5000Y-61000D02*
D03*
X-32000Y-82000D02*
D03*
X0Y-31000D02*
D03*
Y-23000D02*
D03*
X42354Y-5550D02*
D03*
X12000Y-7000D02*
D03*
X4000Y-15500D02*
D03*
X-7000Y500D02*
D03*
X-39500Y9500D02*
D03*
X79000Y1500D02*
D03*
X61500D02*
D03*
X-13500Y-16000D02*
D03*
X-38000Y3000D02*
D03*
X-52000Y23000D02*
D03*
X-37500Y33000D02*
D03*
X-60000Y-16000D02*
D03*
X-58000Y-53000D02*
D03*
X-27815Y47602D02*
D03*
X-11000Y41110D02*
D03*
X-19500Y26500D02*
D03*
X-21500Y4500D02*
D03*
X-45750Y-61250D02*
D03*
X-24850Y-48650D02*
D03*
X-11750Y-33650D02*
D03*
X-38736Y-31736D02*
D03*
X-29000Y-19000D02*
D03*
X-55110Y8819D02*
D03*
X-66500Y40500D02*
D03*
X-80110Y2650D02*
D03*
X-33610Y22000D02*
D03*
X59500Y52500D02*
D03*
X16500Y-1500D02*
D03*
X7000Y6500D02*
D03*
X27350Y19850D02*
D03*
X61142Y8858D02*
D03*
Y-8858D02*
D03*
X23000Y-11000D02*
D03*
X52850Y-49150D02*
D03*
X34938Y-44000D02*
D03*
X18188D02*
D03*
D78*
X8858Y-15650D02*
D03*
X-8858D02*
D03*
Y15650D02*
D03*
X8858D02*
D03*
X65945D02*
D03*
X83661D02*
D03*
Y-15650D02*
D03*
X65945D02*
D03*
X-65945D02*
D03*
X-83661D02*
D03*
Y15650D02*
D03*
X-65945D02*
D03*
M02*
