G04*
G04 #@! TF.GenerationSoftware,Altium Limited,Altium Designer,22.6.1 (34)*
G04*
G04 Layer_Color=8388736*
%FSLAX25Y25*%
%MOIN*%
G70*
G04*
G04 #@! TF.SameCoordinates,C960C2BB-4387-47BD-B0B2-73E0CB32DA73*
G04*
G04*
G04 #@! TF.FilePolarity,Negative*
G04*
G01*
G75*
%ADD41R,0.04100X0.05000*%
%ADD42R,0.03950X0.04343*%
%ADD43R,0.03556X0.04343*%
%ADD44R,0.04343X0.03556*%
%ADD45R,0.04737X0.10642*%
%ADD46R,0.03950X0.07099*%
%ADD47R,0.04737X0.04540*%
%ADD48R,0.05131X0.03162*%
%ADD49R,0.15761X0.14580*%
%ADD50O,0.03753X0.01784*%
%ADD51O,0.01784X0.03753*%
%ADD52R,0.04737X0.07887*%
%ADD53R,0.16548X0.10642*%
%ADD54R,0.04599X0.04343*%
%ADD55R,0.04343X0.04599*%
%ADD56R,0.04147X0.04540*%
%ADD57R,0.04147X0.03753*%
%ADD58R,0.05328X0.01981*%
%ADD59R,0.05328X0.03162*%
%ADD60R,0.13280X0.04816*%
%ADD61R,0.09855X0.09855*%
%ADD62R,0.06312X0.01981*%
%ADD63R,0.07887X0.06076*%
%ADD64C,0.14580*%
%ADD65C,0.03359*%
%ADD66O,0.09068X0.04934*%
%ADD67O,0.08674X0.04737*%
%ADD68C,0.03950*%
D41*
X-72000Y33000D02*
D03*
X-79400D02*
D03*
X-75700Y25126D02*
D03*
D42*
X-59500Y25563D02*
D03*
X-63043Y33437D02*
D03*
X-55957D02*
D03*
X71000Y-57937D02*
D03*
X74543Y-50063D02*
D03*
X67457D02*
D03*
D43*
X-62610Y46500D02*
D03*
X-56390D02*
D03*
X-56390Y40500D02*
D03*
X-62610D02*
D03*
X-72390D02*
D03*
X-78610D02*
D03*
X-79941Y13669D02*
D03*
X-73721D02*
D03*
X-67526D02*
D03*
X-61305D02*
D03*
X-80110Y7500D02*
D03*
X-73890D02*
D03*
X-28610Y52000D02*
D03*
X-22390D02*
D03*
X-10610Y-16000D02*
D03*
X-4390D02*
D03*
X-22610D02*
D03*
X-16390D02*
D03*
X-31390Y-58000D02*
D03*
X-37610D02*
D03*
X-44890Y-76000D02*
D03*
X-51110D02*
D03*
X-33610Y33000D02*
D03*
X-27390D02*
D03*
X-33610Y25000D02*
D03*
X-27390D02*
D03*
Y19000D02*
D03*
X-33610D02*
D03*
X-27390Y-500D02*
D03*
X-33610D02*
D03*
X-48890Y13669D02*
D03*
X-55110D02*
D03*
D44*
X47000Y74610D02*
D03*
Y68390D02*
D03*
X11500Y6000D02*
D03*
Y-221D02*
D03*
X-5000Y-47110D02*
D03*
Y-40890D02*
D03*
Y-58110D02*
D03*
Y-51890D02*
D03*
X-29000Y-9390D02*
D03*
Y-15610D02*
D03*
X-8000Y34890D02*
D03*
Y41110D02*
D03*
X-14000Y34890D02*
D03*
Y41110D02*
D03*
X-35500Y45610D02*
D03*
Y39390D02*
D03*
X-41000Y-15610D02*
D03*
Y-9390D02*
D03*
X-47000Y-15610D02*
D03*
Y-9390D02*
D03*
D45*
X59500Y43500D02*
D03*
X49500D02*
D03*
X39500D02*
D03*
X29500D02*
D03*
X19500D02*
D03*
X9500D02*
D03*
D46*
X80693Y74500D02*
D03*
X67307D02*
D03*
D47*
X53427D02*
D03*
X59333D02*
D03*
X40453D02*
D03*
X34547D02*
D03*
X-33453Y13000D02*
D03*
X-27547D02*
D03*
X-27547Y7000D02*
D03*
X-33453D02*
D03*
D48*
X-34512Y-26800D02*
D03*
X-23488D02*
D03*
X-34512Y-30540D02*
D03*
Y-34280D02*
D03*
X-23488D02*
D03*
X-28988Y-51700D02*
D03*
X-40012D02*
D03*
X-28988Y-47960D02*
D03*
Y-44220D02*
D03*
X-40012D02*
D03*
D49*
X-7000Y16000D02*
D03*
D50*
X-16646Y9110D02*
D03*
Y11079D02*
D03*
Y13047D02*
D03*
Y15016D02*
D03*
Y16984D02*
D03*
Y18953D02*
D03*
Y20921D02*
D03*
Y22890D02*
D03*
X2646D02*
D03*
Y20921D02*
D03*
Y18953D02*
D03*
Y16984D02*
D03*
Y15016D02*
D03*
Y13047D02*
D03*
Y11079D02*
D03*
Y9110D02*
D03*
D51*
X-13890Y25646D02*
D03*
X-11921D02*
D03*
X-9953D02*
D03*
X-7984D02*
D03*
X-6016D02*
D03*
X-4047D02*
D03*
X-2079D02*
D03*
X-110D02*
D03*
Y6354D02*
D03*
X-2079D02*
D03*
X-4047D02*
D03*
X-6016D02*
D03*
X-7984D02*
D03*
X-9953D02*
D03*
X-11921D02*
D03*
X-13890D02*
D03*
D52*
X-18421Y-6500D02*
D03*
X-8579D02*
D03*
D53*
X10000Y-72874D02*
D03*
Y-56732D02*
D03*
D54*
X31350Y-80500D02*
D03*
X37650D02*
D03*
X27350Y15000D02*
D03*
X33650D02*
D03*
X27350Y-11000D02*
D03*
X33650D02*
D03*
X18650D02*
D03*
X12350D02*
D03*
D55*
X-42500Y-33650D02*
D03*
Y-27350D02*
D03*
X-49000Y-33650D02*
D03*
Y-27350D02*
D03*
X-15000Y-33650D02*
D03*
Y-27350D02*
D03*
X-8500Y-33650D02*
D03*
Y-27350D02*
D03*
X-20500Y-50650D02*
D03*
Y-44350D02*
D03*
X-47000Y-51150D02*
D03*
Y-44850D02*
D03*
X59000Y-42850D02*
D03*
Y-49150D02*
D03*
X47500Y-44000D02*
D03*
Y-37701D02*
D03*
X39125D02*
D03*
Y-44000D02*
D03*
X30750D02*
D03*
Y-37701D02*
D03*
X22375D02*
D03*
Y-44000D02*
D03*
X14000D02*
D03*
Y-37701D02*
D03*
D56*
X-51346Y-83000D02*
D03*
X-44653D02*
D03*
D57*
X-27815Y44000D02*
D03*
Y39866D02*
D03*
X-22500Y44000D02*
D03*
Y39866D02*
D03*
D58*
X-63779Y-33110D02*
D03*
Y-35079D02*
D03*
Y-37047D02*
D03*
Y-46890D02*
D03*
Y-44921D02*
D03*
Y-42953D02*
D03*
Y-39016D02*
D03*
Y-40984D02*
D03*
D59*
Y-49449D02*
D03*
Y-30551D02*
D03*
Y-52598D02*
D03*
Y-27402D02*
D03*
D60*
X-24500Y-72000D02*
D03*
Y-82000D02*
D03*
D61*
X58421Y-29626D02*
D03*
Y29626D02*
D03*
D62*
X53500Y-6890D02*
D03*
Y20669D02*
D03*
Y18701D02*
D03*
Y16732D02*
D03*
Y14764D02*
D03*
Y12795D02*
D03*
Y10827D02*
D03*
Y8858D02*
D03*
Y6890D02*
D03*
Y4921D02*
D03*
Y2953D02*
D03*
Y984D02*
D03*
Y-984D02*
D03*
Y-2953D02*
D03*
Y-4921D02*
D03*
Y-8858D02*
D03*
Y-10827D02*
D03*
Y-12795D02*
D03*
Y-14764D02*
D03*
Y-16732D02*
D03*
Y-18701D02*
D03*
Y-20669D02*
D03*
Y-22638D02*
D03*
Y22638D02*
D03*
D03*
D63*
X49500Y-58870D02*
D03*
Y-70130D02*
D03*
X40000D02*
D03*
Y-58870D02*
D03*
X30500D02*
D03*
Y-70130D02*
D03*
D64*
X78000Y46000D02*
D03*
X74803Y-74803D02*
D03*
X-74803D02*
D03*
Y74803D02*
D03*
D65*
X-68012Y-28622D02*
D03*
Y-51378D02*
D03*
D66*
X-66043Y-57008D02*
D03*
Y-22992D02*
D03*
D67*
X-82500Y-57008D02*
D03*
Y-22992D02*
D03*
D68*
X-2669Y20331D02*
D03*
Y16000D02*
D03*
Y11669D02*
D03*
X-7000Y20331D02*
D03*
Y16000D02*
D03*
Y11669D02*
D03*
X-11331Y20331D02*
D03*
Y16000D02*
D03*
Y11669D02*
D03*
M02*
