G04*
G04 #@! TF.GenerationSoftware,Altium Limited,Altium Designer,22.6.1 (34)*
G04*
G04 Layer_Color=2752767*
%FSLAX25Y25*%
%MOIN*%
G70*
G04*
G04 #@! TF.SameCoordinates,C960C2BB-4387-47BD-B0B2-73E0CB32DA73*
G04*
G04*
G04 #@! TF.FilePolarity,Positive*
G04*
G01*
G75*
%ADD11C,0.01000*%
%ADD17C,0.00394*%
%ADD81C,0.00200*%
%ADD82C,0.01500*%
%ADD83C,0.00100*%
%ADD84C,0.01600*%
%ADD85C,0.01400*%
G36*
X106543Y7282D02*
X105162D01*
X105159D01*
X105152D01*
X105139D01*
X105126D01*
X105087Y7279D01*
X105038D01*
X104985Y7272D01*
X104933Y7266D01*
X104884Y7259D01*
X104841Y7246D01*
X104838D01*
X104824Y7239D01*
X104808Y7230D01*
X104785Y7216D01*
X104759Y7197D01*
X104733Y7177D01*
X104706Y7147D01*
X104683Y7115D01*
X104680Y7111D01*
X104674Y7098D01*
X104664Y7079D01*
X104651Y7052D01*
X104641Y7020D01*
X104631Y6980D01*
X104624Y6938D01*
X104621Y6892D01*
Y6869D01*
X104624Y6852D01*
Y6833D01*
X104628Y6810D01*
X104641Y6757D01*
X104657Y6695D01*
X104687Y6629D01*
X104723Y6567D01*
X104749Y6534D01*
X104775Y6505D01*
X104779D01*
X104782Y6498D01*
X104792Y6492D01*
X104805Y6482D01*
X104821Y6469D01*
X104841Y6455D01*
X104867Y6442D01*
X104893Y6429D01*
X104926Y6413D01*
X104962Y6400D01*
X105005Y6386D01*
X105048Y6373D01*
X105097Y6364D01*
X105152Y6357D01*
X105208Y6354D01*
X105271Y6351D01*
X106543D01*
Y5980D01*
X105120D01*
X105116D01*
X105110D01*
X105097D01*
X105077D01*
X105057Y5977D01*
X105034D01*
X104979Y5970D01*
X104920Y5957D01*
X104857Y5940D01*
X104798Y5917D01*
X104746Y5888D01*
X104739Y5885D01*
X104726Y5872D01*
X104706Y5849D01*
X104683Y5819D01*
X104660Y5776D01*
X104641Y5727D01*
X104628Y5665D01*
X104621Y5593D01*
Y5567D01*
X104624Y5537D01*
X104631Y5498D01*
X104641Y5452D01*
X104657Y5403D01*
X104677Y5353D01*
X104706Y5301D01*
X104710Y5294D01*
X104723Y5278D01*
X104739Y5255D01*
X104769Y5229D01*
X104802Y5196D01*
X104844Y5163D01*
X104893Y5134D01*
X104949Y5107D01*
X104952D01*
X104956Y5104D01*
X104966Y5101D01*
X104979Y5097D01*
X104995Y5094D01*
X105015Y5088D01*
X105038Y5084D01*
X105064Y5078D01*
X105097Y5071D01*
X105130Y5068D01*
X105166Y5061D01*
X105208Y5058D01*
X105251Y5055D01*
X105300Y5052D01*
X105349Y5048D01*
X105405D01*
X106543D01*
Y4678D01*
X104349D01*
Y5009D01*
X104654D01*
X104651Y5015D01*
X104631Y5029D01*
X104602Y5052D01*
X104565Y5084D01*
X104523Y5124D01*
X104480Y5170D01*
X104437Y5222D01*
X104398Y5285D01*
Y5288D01*
X104395Y5291D01*
X104388Y5301D01*
X104382Y5314D01*
X104375Y5330D01*
X104365Y5350D01*
X104349Y5396D01*
X104329Y5455D01*
X104316Y5521D01*
X104303Y5596D01*
X104300Y5675D01*
Y5714D01*
X104303Y5737D01*
X104306Y5760D01*
X104313Y5816D01*
X104326Y5878D01*
X104342Y5944D01*
X104369Y6009D01*
X104401Y6072D01*
Y6075D01*
X104405Y6078D01*
X104421Y6098D01*
X104444Y6124D01*
X104474Y6160D01*
X104516Y6196D01*
X104562Y6232D01*
X104618Y6265D01*
X104683Y6295D01*
X104680Y6298D01*
X104667Y6308D01*
X104647Y6321D01*
X104624Y6344D01*
X104595Y6367D01*
X104562Y6400D01*
X104526Y6436D01*
X104490Y6478D01*
X104457Y6524D01*
X104421Y6577D01*
X104388Y6633D01*
X104359Y6692D01*
X104336Y6757D01*
X104316Y6826D01*
X104303Y6898D01*
X104300Y6974D01*
Y7006D01*
X104303Y7026D01*
X104306Y7056D01*
X104310Y7085D01*
X104316Y7121D01*
X104323Y7161D01*
X104346Y7239D01*
X104378Y7325D01*
X104398Y7364D01*
X104421Y7403D01*
X104451Y7443D01*
X104483Y7475D01*
X104487Y7479D01*
X104493Y7482D01*
X104503Y7492D01*
X104516Y7502D01*
X104536Y7518D01*
X104559Y7531D01*
X104588Y7548D01*
X104621Y7564D01*
X104657Y7581D01*
X104697Y7597D01*
X104743Y7613D01*
X104792Y7626D01*
X104848Y7636D01*
X104906Y7646D01*
X104969Y7649D01*
X105038Y7653D01*
X106543D01*
Y7282D01*
D02*
G37*
G36*
Y3759D02*
X105162D01*
X105159D01*
X105152D01*
X105139D01*
X105126D01*
X105087Y3756D01*
X105038D01*
X104985Y3749D01*
X104933Y3743D01*
X104884Y3736D01*
X104841Y3723D01*
X104838D01*
X104824Y3717D01*
X104808Y3707D01*
X104785Y3694D01*
X104759Y3674D01*
X104733Y3654D01*
X104706Y3625D01*
X104683Y3592D01*
X104680Y3589D01*
X104674Y3576D01*
X104664Y3556D01*
X104651Y3530D01*
X104641Y3497D01*
X104631Y3458D01*
X104624Y3415D01*
X104621Y3369D01*
Y3346D01*
X104624Y3330D01*
Y3310D01*
X104628Y3287D01*
X104641Y3235D01*
X104657Y3172D01*
X104687Y3107D01*
X104723Y3044D01*
X104749Y3011D01*
X104775Y2982D01*
X104779D01*
X104782Y2975D01*
X104792Y2969D01*
X104805Y2959D01*
X104821Y2946D01*
X104841Y2933D01*
X104867Y2920D01*
X104893Y2906D01*
X104926Y2890D01*
X104962Y2877D01*
X105005Y2864D01*
X105048Y2851D01*
X105097Y2841D01*
X105152Y2834D01*
X105208Y2831D01*
X105271Y2828D01*
X106543D01*
Y2457D01*
X105120D01*
X105116D01*
X105110D01*
X105097D01*
X105077D01*
X105057Y2454D01*
X105034D01*
X104979Y2447D01*
X104920Y2434D01*
X104857Y2418D01*
X104798Y2395D01*
X104746Y2365D01*
X104739Y2362D01*
X104726Y2349D01*
X104706Y2326D01*
X104683Y2296D01*
X104660Y2254D01*
X104641Y2205D01*
X104628Y2142D01*
X104621Y2070D01*
Y2044D01*
X104624Y2014D01*
X104631Y1975D01*
X104641Y1929D01*
X104657Y1880D01*
X104677Y1831D01*
X104706Y1778D01*
X104710Y1772D01*
X104723Y1755D01*
X104739Y1732D01*
X104769Y1706D01*
X104802Y1673D01*
X104844Y1640D01*
X104893Y1611D01*
X104949Y1585D01*
X104952D01*
X104956Y1581D01*
X104966Y1578D01*
X104979Y1575D01*
X104995Y1571D01*
X105015Y1565D01*
X105038Y1562D01*
X105064Y1555D01*
X105097Y1549D01*
X105130Y1545D01*
X105166Y1539D01*
X105208Y1535D01*
X105251Y1532D01*
X105300Y1529D01*
X105349Y1526D01*
X105405D01*
X106543D01*
Y1155D01*
X104349D01*
Y1486D01*
X104654D01*
X104651Y1493D01*
X104631Y1506D01*
X104602Y1529D01*
X104565Y1562D01*
X104523Y1601D01*
X104480Y1647D01*
X104437Y1699D01*
X104398Y1762D01*
Y1765D01*
X104395Y1768D01*
X104388Y1778D01*
X104382Y1791D01*
X104375Y1808D01*
X104365Y1827D01*
X104349Y1873D01*
X104329Y1932D01*
X104316Y1998D01*
X104303Y2073D01*
X104300Y2152D01*
Y2191D01*
X104303Y2214D01*
X104306Y2237D01*
X104313Y2293D01*
X104326Y2355D01*
X104342Y2421D01*
X104369Y2487D01*
X104401Y2549D01*
Y2552D01*
X104405Y2555D01*
X104421Y2575D01*
X104444Y2601D01*
X104474Y2637D01*
X104516Y2674D01*
X104562Y2710D01*
X104618Y2743D01*
X104683Y2772D01*
X104680Y2775D01*
X104667Y2785D01*
X104647Y2798D01*
X104624Y2821D01*
X104595Y2844D01*
X104562Y2877D01*
X104526Y2913D01*
X104490Y2956D01*
X104457Y3002D01*
X104421Y3054D01*
X104388Y3110D01*
X104359Y3169D01*
X104336Y3235D01*
X104316Y3303D01*
X104303Y3376D01*
X104300Y3451D01*
Y3484D01*
X104303Y3503D01*
X104306Y3533D01*
X104310Y3562D01*
X104316Y3599D01*
X104323Y3638D01*
X104346Y3717D01*
X104378Y3802D01*
X104398Y3841D01*
X104421Y3881D01*
X104451Y3920D01*
X104483Y3953D01*
X104487Y3956D01*
X104493Y3959D01*
X104503Y3969D01*
X104516Y3979D01*
X104536Y3995D01*
X104559Y4009D01*
X104588Y4025D01*
X104621Y4041D01*
X104657Y4058D01*
X104697Y4074D01*
X104743Y4091D01*
X104792Y4104D01*
X104848Y4113D01*
X104906Y4123D01*
X104969Y4127D01*
X105038Y4130D01*
X106543D01*
Y3759D01*
D02*
G37*
G36*
X105185Y673D02*
X105235Y669D01*
X105294Y666D01*
X105356Y663D01*
X105425Y656D01*
X105494Y650D01*
X105638Y630D01*
X105779Y601D01*
X105848Y584D01*
X105910Y565D01*
X105913D01*
X105923Y558D01*
X105943Y555D01*
X105963Y545D01*
X105992Y532D01*
X106022Y519D01*
X106058Y502D01*
X106097Y483D01*
X106179Y437D01*
X106261Y381D01*
X106343Y315D01*
X106379Y276D01*
X106415Y237D01*
X106419Y233D01*
X106422Y227D01*
X106432Y214D01*
X106442Y197D01*
X106455Y178D01*
X106471Y151D01*
X106488Y122D01*
X106504Y86D01*
X106520Y50D01*
X106537Y7D01*
X106550Y-36D01*
X106566Y-85D01*
X106576Y-137D01*
X106586Y-193D01*
X106589Y-249D01*
X106592Y-311D01*
Y-331D01*
X106589Y-354D01*
X106586Y-383D01*
X106583Y-419D01*
X106576Y-462D01*
X106566Y-508D01*
X106553Y-561D01*
X106537Y-613D01*
X106517Y-669D01*
X106491Y-728D01*
X106461Y-783D01*
X106425Y-839D01*
X106383Y-895D01*
X106337Y-948D01*
X106281Y-997D01*
X106278Y-1000D01*
X106264Y-1010D01*
X106242Y-1023D01*
X106209Y-1043D01*
X106166Y-1066D01*
X106117Y-1092D01*
X106054Y-1118D01*
X105986Y-1144D01*
X105904Y-1174D01*
X105815Y-1200D01*
X105713Y-1226D01*
X105602Y-1249D01*
X105481Y-1269D01*
X105349Y-1282D01*
X105205Y-1292D01*
X105051Y-1295D01*
X105044D01*
X105028D01*
X104998D01*
X104962Y-1292D01*
X104916D01*
X104864Y-1289D01*
X104805Y-1285D01*
X104743Y-1282D01*
X104674Y-1276D01*
X104605Y-1269D01*
X104460Y-1249D01*
X104319Y-1223D01*
X104251Y-1207D01*
X104188Y-1187D01*
X104185D01*
X104175Y-1180D01*
X104155Y-1174D01*
X104132Y-1167D01*
X104106Y-1154D01*
X104073Y-1141D01*
X104041Y-1125D01*
X104001Y-1105D01*
X103919Y-1059D01*
X103837Y-1000D01*
X103755Y-934D01*
X103719Y-898D01*
X103683Y-859D01*
X103680Y-856D01*
X103676Y-849D01*
X103667Y-836D01*
X103657Y-820D01*
X103640Y-800D01*
X103627Y-774D01*
X103611Y-744D01*
X103595Y-708D01*
X103578Y-672D01*
X103562Y-629D01*
X103545Y-583D01*
X103532Y-538D01*
X103522Y-485D01*
X103513Y-429D01*
X103509Y-370D01*
X103506Y-311D01*
Y-272D01*
X103509Y-249D01*
X103513Y-226D01*
X103519Y-167D01*
X103529Y-101D01*
X103549Y-29D01*
X103572Y43D01*
X103604Y115D01*
Y118D01*
X103608Y125D01*
X103614Y135D01*
X103624Y148D01*
X103644Y181D01*
X103676Y223D01*
X103716Y273D01*
X103765Y322D01*
X103824Y374D01*
X103890Y420D01*
X103893D01*
X103900Y427D01*
X103909Y430D01*
X103922Y440D01*
X103939Y450D01*
X103962Y463D01*
X103988Y473D01*
X104014Y489D01*
X104080Y519D01*
X104155Y548D01*
X104244Y581D01*
X104339Y607D01*
X104342D01*
X104352Y611D01*
X104365Y614D01*
X104388Y617D01*
X104414Y624D01*
X104447Y630D01*
X104483Y637D01*
X104526Y643D01*
X104575Y647D01*
X104628Y653D01*
X104687Y660D01*
X104749Y666D01*
X104818Y669D01*
X104890Y673D01*
X104969Y676D01*
X105051D01*
X105057D01*
X105074D01*
X105103D01*
X105139D01*
X105185Y673D01*
D02*
G37*
G36*
Y-1679D02*
X105235Y-1682D01*
X105294Y-1685D01*
X105356Y-1689D01*
X105425Y-1695D01*
X105494Y-1702D01*
X105638Y-1722D01*
X105779Y-1751D01*
X105848Y-1767D01*
X105910Y-1787D01*
X105913D01*
X105923Y-1794D01*
X105943Y-1797D01*
X105963Y-1807D01*
X105992Y-1820D01*
X106022Y-1833D01*
X106058Y-1850D01*
X106097Y-1869D01*
X106179Y-1915D01*
X106261Y-1971D01*
X106343Y-2036D01*
X106379Y-2076D01*
X106415Y-2115D01*
X106419Y-2118D01*
X106422Y-2125D01*
X106432Y-2138D01*
X106442Y-2155D01*
X106455Y-2174D01*
X106471Y-2200D01*
X106488Y-2230D01*
X106504Y-2266D01*
X106520Y-2302D01*
X106537Y-2345D01*
X106550Y-2387D01*
X106566Y-2437D01*
X106576Y-2489D01*
X106586Y-2545D01*
X106589Y-2601D01*
X106592Y-2663D01*
Y-2683D01*
X106589Y-2706D01*
X106586Y-2735D01*
X106583Y-2771D01*
X106576Y-2814D01*
X106566Y-2860D01*
X106553Y-2912D01*
X106537Y-2965D01*
X106517Y-3021D01*
X106491Y-3080D01*
X106461Y-3135D01*
X106425Y-3191D01*
X106383Y-3247D01*
X106337Y-3299D01*
X106281Y-3348D01*
X106278Y-3352D01*
X106264Y-3362D01*
X106242Y-3375D01*
X106209Y-3394D01*
X106166Y-3417D01*
X106117Y-3444D01*
X106054Y-3470D01*
X105986Y-3496D01*
X105904Y-3526D01*
X105815Y-3552D01*
X105713Y-3578D01*
X105602Y-3601D01*
X105481Y-3621D01*
X105349Y-3634D01*
X105205Y-3644D01*
X105051Y-3647D01*
X105044D01*
X105028D01*
X104998D01*
X104962Y-3644D01*
X104916D01*
X104864Y-3640D01*
X104805Y-3637D01*
X104743Y-3634D01*
X104674Y-3627D01*
X104605Y-3621D01*
X104460Y-3601D01*
X104319Y-3575D01*
X104251Y-3558D01*
X104188Y-3539D01*
X104185D01*
X104175Y-3532D01*
X104155Y-3526D01*
X104132Y-3519D01*
X104106Y-3506D01*
X104073Y-3493D01*
X104041Y-3476D01*
X104001Y-3457D01*
X103919Y-3411D01*
X103837Y-3352D01*
X103755Y-3286D01*
X103719Y-3250D01*
X103683Y-3211D01*
X103680Y-3207D01*
X103676Y-3201D01*
X103667Y-3188D01*
X103657Y-3171D01*
X103640Y-3152D01*
X103627Y-3125D01*
X103611Y-3096D01*
X103595Y-3060D01*
X103578Y-3024D01*
X103562Y-2981D01*
X103545Y-2935D01*
X103532Y-2889D01*
X103522Y-2837D01*
X103513Y-2781D01*
X103509Y-2722D01*
X103506Y-2663D01*
Y-2624D01*
X103509Y-2601D01*
X103513Y-2578D01*
X103519Y-2519D01*
X103529Y-2453D01*
X103549Y-2381D01*
X103572Y-2309D01*
X103604Y-2237D01*
Y-2233D01*
X103608Y-2227D01*
X103614Y-2217D01*
X103624Y-2204D01*
X103644Y-2171D01*
X103676Y-2128D01*
X103716Y-2079D01*
X103765Y-2030D01*
X103824Y-1977D01*
X103890Y-1932D01*
X103893D01*
X103900Y-1925D01*
X103909Y-1922D01*
X103922Y-1912D01*
X103939Y-1902D01*
X103962Y-1889D01*
X103988Y-1879D01*
X104014Y-1863D01*
X104080Y-1833D01*
X104155Y-1804D01*
X104244Y-1771D01*
X104339Y-1745D01*
X104342D01*
X104352Y-1741D01*
X104365Y-1738D01*
X104388Y-1735D01*
X104414Y-1728D01*
X104447Y-1722D01*
X104483Y-1715D01*
X104526Y-1709D01*
X104575Y-1705D01*
X104628Y-1699D01*
X104687Y-1692D01*
X104749Y-1685D01*
X104818Y-1682D01*
X104890Y-1679D01*
X104969Y-1676D01*
X105051D01*
X105057D01*
X105074D01*
X105103D01*
X105139D01*
X105185Y-1679D01*
D02*
G37*
G36*
X106543Y-4615D02*
X106120D01*
Y-4191D01*
X106543D01*
Y-4615D01*
D02*
G37*
G36*
X105586Y-5172D02*
X105622Y-5175D01*
X105661Y-5182D01*
X105707Y-5189D01*
X105759Y-5198D01*
X105812Y-5212D01*
X105871Y-5228D01*
X105930Y-5248D01*
X105989Y-5271D01*
X106048Y-5297D01*
X106110Y-5330D01*
X106169Y-5366D01*
X106225Y-5408D01*
X106228Y-5412D01*
X106242Y-5421D01*
X106258Y-5438D01*
X106281Y-5461D01*
X106310Y-5490D01*
X106340Y-5526D01*
X106376Y-5569D01*
X106409Y-5618D01*
X106442Y-5671D01*
X106478Y-5730D01*
X106507Y-5795D01*
X106533Y-5867D01*
X106560Y-5943D01*
X106576Y-6025D01*
X106589Y-6110D01*
X106592Y-6202D01*
Y-6241D01*
X106589Y-6271D01*
X106586Y-6307D01*
X106579Y-6346D01*
X106573Y-6392D01*
X106563Y-6442D01*
X106553Y-6494D01*
X106537Y-6550D01*
X106517Y-6605D01*
X106494Y-6661D01*
X106468Y-6717D01*
X106438Y-6773D01*
X106402Y-6825D01*
X106363Y-6878D01*
X106360Y-6881D01*
X106353Y-6888D01*
X106340Y-6901D01*
X106320Y-6917D01*
X106297Y-6940D01*
X106271Y-6963D01*
X106238Y-6986D01*
X106199Y-7012D01*
X106159Y-7039D01*
X106114Y-7065D01*
X106061Y-7088D01*
X106009Y-7111D01*
X105950Y-7134D01*
X105887Y-7150D01*
X105818Y-7163D01*
X105749Y-7173D01*
X105720Y-6783D01*
X105723D01*
X105733Y-6779D01*
X105746Y-6776D01*
X105766Y-6773D01*
X105789Y-6769D01*
X105818Y-6760D01*
X105881Y-6743D01*
X105950Y-6717D01*
X106022Y-6681D01*
X106087Y-6638D01*
X106117Y-6612D01*
X106146Y-6586D01*
Y-6583D01*
X106153Y-6579D01*
X106159Y-6570D01*
X106169Y-6556D01*
X106192Y-6523D01*
X106215Y-6478D01*
X106242Y-6422D01*
X106264Y-6356D01*
X106281Y-6284D01*
X106284Y-6245D01*
X106287Y-6202D01*
Y-6176D01*
X106284Y-6156D01*
X106281Y-6133D01*
X106278Y-6107D01*
X106261Y-6045D01*
X106238Y-5973D01*
X106222Y-5936D01*
X106202Y-5897D01*
X106179Y-5858D01*
X106153Y-5822D01*
X106123Y-5785D01*
X106087Y-5750D01*
X106084Y-5746D01*
X106078Y-5743D01*
X106068Y-5733D01*
X106051Y-5720D01*
X106028Y-5707D01*
X106005Y-5690D01*
X105976Y-5674D01*
X105943Y-5654D01*
X105907Y-5638D01*
X105868Y-5621D01*
X105822Y-5605D01*
X105776Y-5592D01*
X105723Y-5579D01*
X105667Y-5569D01*
X105612Y-5566D01*
X105549Y-5562D01*
X105546D01*
X105536D01*
X105520D01*
X105497Y-5566D01*
X105471Y-5569D01*
X105438Y-5572D01*
X105405Y-5579D01*
X105366Y-5585D01*
X105287Y-5605D01*
X105202Y-5638D01*
X105162Y-5658D01*
X105123Y-5684D01*
X105084Y-5710D01*
X105048Y-5743D01*
X105044Y-5746D01*
X105041Y-5750D01*
X105031Y-5763D01*
X105018Y-5776D01*
X105005Y-5792D01*
X104989Y-5815D01*
X104972Y-5838D01*
X104952Y-5867D01*
X104936Y-5900D01*
X104920Y-5933D01*
X104890Y-6015D01*
X104877Y-6058D01*
X104867Y-6107D01*
X104864Y-6156D01*
X104861Y-6209D01*
Y-6238D01*
X104864Y-6274D01*
X104870Y-6317D01*
X104880Y-6369D01*
X104897Y-6425D01*
X104916Y-6481D01*
X104946Y-6537D01*
X104949Y-6543D01*
X104959Y-6560D01*
X104979Y-6586D01*
X105002Y-6619D01*
X105034Y-6651D01*
X105070Y-6691D01*
X105113Y-6727D01*
X105159Y-6760D01*
X105110Y-7107D01*
X103555Y-6815D01*
Y-5310D01*
X103909D01*
Y-6520D01*
X104723Y-6681D01*
X104720Y-6678D01*
X104713Y-6668D01*
X104706Y-6655D01*
X104693Y-6635D01*
X104680Y-6609D01*
X104664Y-6579D01*
X104644Y-6547D01*
X104628Y-6507D01*
X104611Y-6468D01*
X104592Y-6422D01*
X104562Y-6327D01*
X104549Y-6274D01*
X104539Y-6222D01*
X104536Y-6166D01*
X104533Y-6110D01*
Y-6094D01*
X104536Y-6071D01*
Y-6045D01*
X104542Y-6012D01*
X104546Y-5973D01*
X104556Y-5927D01*
X104565Y-5881D01*
X104582Y-5828D01*
X104598Y-5776D01*
X104621Y-5720D01*
X104647Y-5664D01*
X104680Y-5608D01*
X104716Y-5553D01*
X104759Y-5497D01*
X104808Y-5444D01*
X104811Y-5441D01*
X104821Y-5431D01*
X104838Y-5418D01*
X104857Y-5402D01*
X104884Y-5379D01*
X104920Y-5356D01*
X104956Y-5333D01*
X104998Y-5307D01*
X105048Y-5280D01*
X105103Y-5257D01*
X105159Y-5231D01*
X105225Y-5212D01*
X105290Y-5195D01*
X105362Y-5182D01*
X105438Y-5172D01*
X105517Y-5169D01*
X105520D01*
X105536D01*
X105556D01*
X105586Y-5172D01*
D02*
G37*
G36*
X105818Y-7964D02*
X106543D01*
Y-8334D01*
X105818D01*
Y-9653D01*
X105477D01*
X103516Y-8269D01*
Y-7964D01*
X105477D01*
Y-7553D01*
X105818D01*
Y-7964D01*
D02*
G37*
G36*
X7026Y-99803D02*
X7056Y-99806D01*
X7085Y-99810D01*
X7121Y-99816D01*
X7161Y-99823D01*
X7239Y-99846D01*
X7325Y-99878D01*
X7364Y-99898D01*
X7403Y-99921D01*
X7443Y-99951D01*
X7475Y-99983D01*
X7479Y-99987D01*
X7482Y-99993D01*
X7492Y-100003D01*
X7502Y-100016D01*
X7518Y-100036D01*
X7531Y-100059D01*
X7548Y-100088D01*
X7564Y-100121D01*
X7581Y-100157D01*
X7597Y-100197D01*
X7613Y-100242D01*
X7626Y-100292D01*
X7636Y-100347D01*
X7646Y-100407D01*
X7649Y-100469D01*
X7653Y-100538D01*
Y-102043D01*
X7282D01*
Y-100662D01*
Y-100659D01*
Y-100653D01*
Y-100639D01*
Y-100626D01*
X7279Y-100587D01*
Y-100538D01*
X7272Y-100485D01*
X7266Y-100433D01*
X7259Y-100384D01*
X7246Y-100341D01*
Y-100338D01*
X7239Y-100324D01*
X7230Y-100308D01*
X7216Y-100285D01*
X7197Y-100259D01*
X7177Y-100233D01*
X7147Y-100206D01*
X7115Y-100183D01*
X7111Y-100180D01*
X7098Y-100174D01*
X7079Y-100164D01*
X7052Y-100151D01*
X7020Y-100141D01*
X6980Y-100131D01*
X6938Y-100124D01*
X6892Y-100121D01*
X6869D01*
X6852Y-100124D01*
X6833D01*
X6810Y-100128D01*
X6757Y-100141D01*
X6695Y-100157D01*
X6629Y-100187D01*
X6567Y-100223D01*
X6534Y-100249D01*
X6505Y-100275D01*
Y-100279D01*
X6498Y-100282D01*
X6492Y-100292D01*
X6482Y-100305D01*
X6469Y-100321D01*
X6455Y-100341D01*
X6442Y-100367D01*
X6429Y-100393D01*
X6413Y-100426D01*
X6400Y-100462D01*
X6387Y-100505D01*
X6373Y-100548D01*
X6364Y-100597D01*
X6357Y-100653D01*
X6354Y-100708D01*
X6351Y-100771D01*
Y-102043D01*
X5980D01*
Y-100620D01*
Y-100616D01*
Y-100610D01*
Y-100597D01*
Y-100577D01*
X5977Y-100557D01*
Y-100534D01*
X5970Y-100479D01*
X5957Y-100420D01*
X5940Y-100357D01*
X5917Y-100298D01*
X5888Y-100246D01*
X5885Y-100239D01*
X5872Y-100226D01*
X5849Y-100206D01*
X5819Y-100183D01*
X5776Y-100161D01*
X5727Y-100141D01*
X5665Y-100128D01*
X5593Y-100121D01*
X5567D01*
X5537Y-100124D01*
X5498Y-100131D01*
X5452Y-100141D01*
X5403Y-100157D01*
X5353Y-100177D01*
X5301Y-100206D01*
X5294Y-100210D01*
X5278Y-100223D01*
X5255Y-100239D01*
X5229Y-100269D01*
X5196Y-100302D01*
X5163Y-100344D01*
X5134Y-100393D01*
X5107Y-100449D01*
Y-100452D01*
X5104Y-100456D01*
X5101Y-100466D01*
X5097Y-100479D01*
X5094Y-100495D01*
X5088Y-100515D01*
X5084Y-100538D01*
X5078Y-100564D01*
X5071Y-100597D01*
X5068Y-100630D01*
X5061Y-100666D01*
X5058Y-100708D01*
X5055Y-100751D01*
X5052Y-100800D01*
X5048Y-100849D01*
Y-100905D01*
Y-102043D01*
X4678D01*
Y-99849D01*
X5009D01*
Y-100154D01*
X5015Y-100151D01*
X5029Y-100131D01*
X5052Y-100101D01*
X5084Y-100065D01*
X5124Y-100023D01*
X5170Y-99980D01*
X5222Y-99937D01*
X5285Y-99898D01*
X5288D01*
X5291Y-99895D01*
X5301Y-99888D01*
X5314Y-99882D01*
X5330Y-99875D01*
X5350Y-99865D01*
X5396Y-99849D01*
X5455Y-99829D01*
X5521Y-99816D01*
X5596Y-99803D01*
X5675Y-99800D01*
X5714D01*
X5737Y-99803D01*
X5760Y-99806D01*
X5816Y-99813D01*
X5878Y-99826D01*
X5944Y-99842D01*
X6009Y-99869D01*
X6072Y-99901D01*
X6075D01*
X6078Y-99905D01*
X6098Y-99921D01*
X6124Y-99944D01*
X6160Y-99974D01*
X6196Y-100016D01*
X6232Y-100062D01*
X6265Y-100118D01*
X6295Y-100183D01*
X6298Y-100180D01*
X6308Y-100167D01*
X6321Y-100147D01*
X6344Y-100124D01*
X6367Y-100095D01*
X6400Y-100062D01*
X6436Y-100026D01*
X6478Y-99990D01*
X6524Y-99957D01*
X6577Y-99921D01*
X6633Y-99888D01*
X6692Y-99859D01*
X6757Y-99836D01*
X6826Y-99816D01*
X6898Y-99803D01*
X6974Y-99800D01*
X7006D01*
X7026Y-99803D01*
D02*
G37*
G36*
X3503D02*
X3533Y-99806D01*
X3562Y-99810D01*
X3599Y-99816D01*
X3638Y-99823D01*
X3717Y-99846D01*
X3802Y-99878D01*
X3841Y-99898D01*
X3881Y-99921D01*
X3920Y-99951D01*
X3953Y-99983D01*
X3956Y-99987D01*
X3959Y-99993D01*
X3969Y-100003D01*
X3979Y-100016D01*
X3995Y-100036D01*
X4009Y-100059D01*
X4025Y-100088D01*
X4041Y-100121D01*
X4058Y-100157D01*
X4074Y-100197D01*
X4091Y-100242D01*
X4104Y-100292D01*
X4113Y-100347D01*
X4123Y-100407D01*
X4127Y-100469D01*
X4130Y-100538D01*
Y-102043D01*
X3759D01*
Y-100662D01*
Y-100659D01*
Y-100653D01*
Y-100639D01*
Y-100626D01*
X3756Y-100587D01*
Y-100538D01*
X3749Y-100485D01*
X3743Y-100433D01*
X3736Y-100384D01*
X3723Y-100341D01*
Y-100338D01*
X3717Y-100324D01*
X3707Y-100308D01*
X3694Y-100285D01*
X3674Y-100259D01*
X3654Y-100233D01*
X3625Y-100206D01*
X3592Y-100183D01*
X3589Y-100180D01*
X3576Y-100174D01*
X3556Y-100164D01*
X3530Y-100151D01*
X3497Y-100141D01*
X3458Y-100131D01*
X3415Y-100124D01*
X3369Y-100121D01*
X3346D01*
X3330Y-100124D01*
X3310D01*
X3287Y-100128D01*
X3235Y-100141D01*
X3172Y-100157D01*
X3107Y-100187D01*
X3044Y-100223D01*
X3011Y-100249D01*
X2982Y-100275D01*
Y-100279D01*
X2975Y-100282D01*
X2969Y-100292D01*
X2959Y-100305D01*
X2946Y-100321D01*
X2933Y-100341D01*
X2920Y-100367D01*
X2906Y-100393D01*
X2890Y-100426D01*
X2877Y-100462D01*
X2864Y-100505D01*
X2851Y-100548D01*
X2841Y-100597D01*
X2834Y-100653D01*
X2831Y-100708D01*
X2828Y-100771D01*
Y-102043D01*
X2457D01*
Y-100620D01*
Y-100616D01*
Y-100610D01*
Y-100597D01*
Y-100577D01*
X2454Y-100557D01*
Y-100534D01*
X2447Y-100479D01*
X2434Y-100420D01*
X2418Y-100357D01*
X2395Y-100298D01*
X2365Y-100246D01*
X2362Y-100239D01*
X2349Y-100226D01*
X2326Y-100206D01*
X2296Y-100183D01*
X2254Y-100161D01*
X2205Y-100141D01*
X2142Y-100128D01*
X2070Y-100121D01*
X2044D01*
X2014Y-100124D01*
X1975Y-100131D01*
X1929Y-100141D01*
X1880Y-100157D01*
X1831Y-100177D01*
X1778Y-100206D01*
X1772Y-100210D01*
X1755Y-100223D01*
X1732Y-100239D01*
X1706Y-100269D01*
X1673Y-100302D01*
X1640Y-100344D01*
X1611Y-100393D01*
X1585Y-100449D01*
Y-100452D01*
X1581Y-100456D01*
X1578Y-100466D01*
X1575Y-100479D01*
X1571Y-100495D01*
X1565Y-100515D01*
X1562Y-100538D01*
X1555Y-100564D01*
X1549Y-100597D01*
X1545Y-100630D01*
X1539Y-100666D01*
X1535Y-100708D01*
X1532Y-100751D01*
X1529Y-100800D01*
X1526Y-100849D01*
Y-100905D01*
Y-102043D01*
X1155D01*
Y-99849D01*
X1486D01*
Y-100154D01*
X1493Y-100151D01*
X1506Y-100131D01*
X1529Y-100101D01*
X1562Y-100065D01*
X1601Y-100023D01*
X1647Y-99980D01*
X1699Y-99937D01*
X1762Y-99898D01*
X1765D01*
X1768Y-99895D01*
X1778Y-99888D01*
X1791Y-99882D01*
X1808Y-99875D01*
X1827Y-99865D01*
X1873Y-99849D01*
X1932Y-99829D01*
X1998Y-99816D01*
X2073Y-99803D01*
X2152Y-99800D01*
X2191D01*
X2214Y-99803D01*
X2237Y-99806D01*
X2293Y-99813D01*
X2355Y-99826D01*
X2421Y-99842D01*
X2487Y-99869D01*
X2549Y-99901D01*
X2552D01*
X2555Y-99905D01*
X2575Y-99921D01*
X2601Y-99944D01*
X2637Y-99974D01*
X2674Y-100016D01*
X2710Y-100062D01*
X2743Y-100118D01*
X2772Y-100183D01*
X2775Y-100180D01*
X2785Y-100167D01*
X2798Y-100147D01*
X2821Y-100124D01*
X2844Y-100095D01*
X2877Y-100062D01*
X2913Y-100026D01*
X2956Y-99990D01*
X3002Y-99957D01*
X3054Y-99921D01*
X3110Y-99888D01*
X3169Y-99859D01*
X3235Y-99836D01*
X3303Y-99816D01*
X3376Y-99803D01*
X3451Y-99800D01*
X3484D01*
X3503Y-99803D01*
D02*
G37*
G36*
X-5310Y-99409D02*
X-6520D01*
X-6681Y-100223D01*
X-6678Y-100220D01*
X-6668Y-100213D01*
X-6655Y-100206D01*
X-6635Y-100193D01*
X-6609Y-100180D01*
X-6579Y-100164D01*
X-6547Y-100144D01*
X-6507Y-100128D01*
X-6468Y-100111D01*
X-6422Y-100092D01*
X-6327Y-100062D01*
X-6274Y-100049D01*
X-6222Y-100039D01*
X-6166Y-100036D01*
X-6110Y-100033D01*
X-6094D01*
X-6071Y-100036D01*
X-6045D01*
X-6012Y-100042D01*
X-5973Y-100046D01*
X-5927Y-100056D01*
X-5881Y-100065D01*
X-5828Y-100082D01*
X-5776Y-100098D01*
X-5720Y-100121D01*
X-5664Y-100147D01*
X-5608Y-100180D01*
X-5553Y-100216D01*
X-5497Y-100259D01*
X-5444Y-100308D01*
X-5441Y-100311D01*
X-5431Y-100321D01*
X-5418Y-100338D01*
X-5402Y-100357D01*
X-5379Y-100384D01*
X-5356Y-100420D01*
X-5333Y-100456D01*
X-5307Y-100498D01*
X-5280Y-100548D01*
X-5257Y-100603D01*
X-5231Y-100659D01*
X-5212Y-100725D01*
X-5195Y-100790D01*
X-5182Y-100862D01*
X-5172Y-100938D01*
X-5169Y-101017D01*
Y-101020D01*
Y-101036D01*
Y-101056D01*
X-5172Y-101085D01*
X-5175Y-101122D01*
X-5182Y-101161D01*
X-5189Y-101207D01*
X-5198Y-101259D01*
X-5212Y-101312D01*
X-5228Y-101371D01*
X-5248Y-101430D01*
X-5271Y-101489D01*
X-5297Y-101548D01*
X-5330Y-101610D01*
X-5366Y-101669D01*
X-5408Y-101725D01*
X-5412Y-101728D01*
X-5421Y-101742D01*
X-5438Y-101758D01*
X-5461Y-101781D01*
X-5490Y-101810D01*
X-5526Y-101840D01*
X-5569Y-101876D01*
X-5618Y-101909D01*
X-5671Y-101942D01*
X-5730Y-101978D01*
X-5795Y-102007D01*
X-5867Y-102033D01*
X-5943Y-102060D01*
X-6025Y-102076D01*
X-6110Y-102089D01*
X-6202Y-102092D01*
X-6241D01*
X-6271Y-102089D01*
X-6307Y-102086D01*
X-6346Y-102079D01*
X-6392Y-102073D01*
X-6442Y-102063D01*
X-6494Y-102053D01*
X-6550Y-102037D01*
X-6605Y-102017D01*
X-6661Y-101994D01*
X-6717Y-101968D01*
X-6773Y-101938D01*
X-6825Y-101902D01*
X-6878Y-101863D01*
X-6881Y-101860D01*
X-6888Y-101853D01*
X-6901Y-101840D01*
X-6917Y-101820D01*
X-6940Y-101797D01*
X-6963Y-101771D01*
X-6986Y-101738D01*
X-7012Y-101699D01*
X-7039Y-101660D01*
X-7065Y-101614D01*
X-7088Y-101561D01*
X-7111Y-101509D01*
X-7134Y-101450D01*
X-7150Y-101387D01*
X-7163Y-101318D01*
X-7173Y-101250D01*
X-6783Y-101220D01*
Y-101223D01*
X-6779Y-101233D01*
X-6776Y-101246D01*
X-6773Y-101266D01*
X-6769Y-101289D01*
X-6760Y-101318D01*
X-6743Y-101381D01*
X-6717Y-101450D01*
X-6681Y-101522D01*
X-6638Y-101587D01*
X-6612Y-101617D01*
X-6586Y-101646D01*
X-6583D01*
X-6579Y-101653D01*
X-6569Y-101660D01*
X-6556Y-101669D01*
X-6523Y-101692D01*
X-6478Y-101715D01*
X-6422Y-101742D01*
X-6356Y-101764D01*
X-6284Y-101781D01*
X-6245Y-101784D01*
X-6202Y-101787D01*
X-6176D01*
X-6156Y-101784D01*
X-6133Y-101781D01*
X-6107Y-101778D01*
X-6045Y-101761D01*
X-5973Y-101738D01*
X-5936Y-101722D01*
X-5897Y-101702D01*
X-5858Y-101679D01*
X-5822Y-101653D01*
X-5785Y-101623D01*
X-5749Y-101587D01*
X-5746Y-101584D01*
X-5743Y-101577D01*
X-5733Y-101568D01*
X-5720Y-101551D01*
X-5707Y-101528D01*
X-5690Y-101505D01*
X-5674Y-101476D01*
X-5654Y-101443D01*
X-5638Y-101407D01*
X-5621Y-101368D01*
X-5605Y-101322D01*
X-5592Y-101276D01*
X-5579Y-101223D01*
X-5569Y-101168D01*
X-5566Y-101112D01*
X-5562Y-101049D01*
Y-101046D01*
Y-101036D01*
Y-101020D01*
X-5566Y-100997D01*
X-5569Y-100971D01*
X-5572Y-100938D01*
X-5579Y-100905D01*
X-5585Y-100866D01*
X-5605Y-100787D01*
X-5638Y-100702D01*
X-5658Y-100662D01*
X-5684Y-100623D01*
X-5710Y-100584D01*
X-5743Y-100548D01*
X-5746Y-100544D01*
X-5749Y-100541D01*
X-5763Y-100531D01*
X-5776Y-100518D01*
X-5792Y-100505D01*
X-5815Y-100488D01*
X-5838Y-100472D01*
X-5867Y-100452D01*
X-5900Y-100436D01*
X-5933Y-100420D01*
X-6015Y-100390D01*
X-6058Y-100377D01*
X-6107Y-100367D01*
X-6156Y-100364D01*
X-6209Y-100361D01*
X-6238D01*
X-6274Y-100364D01*
X-6317Y-100370D01*
X-6369Y-100380D01*
X-6425Y-100397D01*
X-6481Y-100416D01*
X-6537Y-100446D01*
X-6543Y-100449D01*
X-6560Y-100459D01*
X-6586Y-100479D01*
X-6619Y-100502D01*
X-6651Y-100534D01*
X-6691Y-100570D01*
X-6727Y-100613D01*
X-6760Y-100659D01*
X-7107Y-100610D01*
X-6815Y-99055D01*
X-5310D01*
Y-99409D01*
D02*
G37*
G36*
X-4191Y-102043D02*
X-4615D01*
Y-101620D01*
X-4191D01*
Y-102043D01*
D02*
G37*
G36*
X-7963Y-100977D02*
X-7553D01*
Y-101318D01*
X-7963D01*
Y-102043D01*
X-8334D01*
Y-101318D01*
X-9653D01*
Y-100977D01*
X-8269Y-99016D01*
X-7963D01*
Y-100977D01*
D02*
G37*
G36*
X-249Y-99009D02*
X-226Y-99013D01*
X-167Y-99019D01*
X-101Y-99029D01*
X-29Y-99049D01*
X43Y-99072D01*
X115Y-99104D01*
X118D01*
X125Y-99108D01*
X135Y-99114D01*
X148Y-99124D01*
X181Y-99144D01*
X223Y-99177D01*
X273Y-99216D01*
X322Y-99265D01*
X374Y-99324D01*
X420Y-99390D01*
Y-99393D01*
X427Y-99400D01*
X430Y-99409D01*
X440Y-99423D01*
X450Y-99439D01*
X463Y-99462D01*
X473Y-99488D01*
X489Y-99514D01*
X519Y-99580D01*
X548Y-99655D01*
X581Y-99744D01*
X607Y-99839D01*
Y-99842D01*
X611Y-99852D01*
X614Y-99865D01*
X617Y-99888D01*
X624Y-99914D01*
X630Y-99947D01*
X637Y-99983D01*
X643Y-100026D01*
X647Y-100075D01*
X653Y-100128D01*
X660Y-100187D01*
X666Y-100249D01*
X669Y-100318D01*
X673Y-100390D01*
X676Y-100469D01*
Y-100551D01*
Y-100557D01*
Y-100574D01*
Y-100603D01*
Y-100639D01*
X673Y-100685D01*
X669Y-100734D01*
X666Y-100794D01*
X663Y-100856D01*
X656Y-100925D01*
X650Y-100994D01*
X630Y-101138D01*
X601Y-101279D01*
X584Y-101348D01*
X565Y-101410D01*
Y-101414D01*
X558Y-101423D01*
X555Y-101443D01*
X545Y-101463D01*
X532Y-101492D01*
X519Y-101522D01*
X502Y-101558D01*
X483Y-101597D01*
X437Y-101679D01*
X381Y-101761D01*
X315Y-101843D01*
X276Y-101879D01*
X237Y-101915D01*
X233Y-101919D01*
X227Y-101922D01*
X214Y-101932D01*
X197Y-101942D01*
X178Y-101955D01*
X151Y-101971D01*
X122Y-101988D01*
X86Y-102004D01*
X50Y-102020D01*
X7Y-102037D01*
X-36Y-102050D01*
X-85Y-102066D01*
X-137Y-102076D01*
X-193Y-102086D01*
X-249Y-102089D01*
X-311Y-102092D01*
X-331D01*
X-354Y-102089D01*
X-383Y-102086D01*
X-419Y-102083D01*
X-462Y-102076D01*
X-508Y-102066D01*
X-561Y-102053D01*
X-613Y-102037D01*
X-669Y-102017D01*
X-728Y-101991D01*
X-783Y-101961D01*
X-839Y-101925D01*
X-895Y-101883D01*
X-948Y-101837D01*
X-997Y-101781D01*
X-1000Y-101778D01*
X-1010Y-101764D01*
X-1023Y-101742D01*
X-1043Y-101709D01*
X-1066Y-101666D01*
X-1092Y-101617D01*
X-1118Y-101555D01*
X-1144Y-101486D01*
X-1174Y-101404D01*
X-1200Y-101315D01*
X-1226Y-101213D01*
X-1249Y-101102D01*
X-1269Y-100980D01*
X-1282Y-100849D01*
X-1292Y-100705D01*
X-1295Y-100551D01*
Y-100544D01*
Y-100528D01*
Y-100498D01*
X-1292Y-100462D01*
Y-100416D01*
X-1289Y-100364D01*
X-1285Y-100305D01*
X-1282Y-100242D01*
X-1276Y-100174D01*
X-1269Y-100105D01*
X-1249Y-99960D01*
X-1223Y-99819D01*
X-1207Y-99751D01*
X-1187Y-99688D01*
Y-99685D01*
X-1180Y-99675D01*
X-1174Y-99655D01*
X-1167Y-99632D01*
X-1154Y-99606D01*
X-1141Y-99573D01*
X-1125Y-99541D01*
X-1105Y-99501D01*
X-1059Y-99419D01*
X-1000Y-99337D01*
X-934Y-99255D01*
X-898Y-99219D01*
X-859Y-99183D01*
X-856Y-99180D01*
X-849Y-99177D01*
X-836Y-99167D01*
X-820Y-99157D01*
X-800Y-99140D01*
X-774Y-99127D01*
X-744Y-99111D01*
X-708Y-99094D01*
X-672Y-99078D01*
X-629Y-99062D01*
X-583Y-99045D01*
X-538Y-99032D01*
X-485Y-99022D01*
X-429Y-99013D01*
X-370Y-99009D01*
X-311Y-99006D01*
X-272D01*
X-249Y-99009D01*
D02*
G37*
G36*
X-2601D02*
X-2578Y-99013D01*
X-2519Y-99019D01*
X-2453Y-99029D01*
X-2381Y-99049D01*
X-2309Y-99072D01*
X-2237Y-99104D01*
X-2233D01*
X-2227Y-99108D01*
X-2217Y-99114D01*
X-2204Y-99124D01*
X-2171Y-99144D01*
X-2128Y-99177D01*
X-2079Y-99216D01*
X-2030Y-99265D01*
X-1977Y-99324D01*
X-1932Y-99390D01*
Y-99393D01*
X-1925Y-99400D01*
X-1922Y-99409D01*
X-1912Y-99423D01*
X-1902Y-99439D01*
X-1889Y-99462D01*
X-1879Y-99488D01*
X-1863Y-99514D01*
X-1833Y-99580D01*
X-1804Y-99655D01*
X-1771Y-99744D01*
X-1745Y-99839D01*
Y-99842D01*
X-1741Y-99852D01*
X-1738Y-99865D01*
X-1735Y-99888D01*
X-1728Y-99914D01*
X-1722Y-99947D01*
X-1715Y-99983D01*
X-1709Y-100026D01*
X-1705Y-100075D01*
X-1699Y-100128D01*
X-1692Y-100187D01*
X-1685Y-100249D01*
X-1682Y-100318D01*
X-1679Y-100390D01*
X-1676Y-100469D01*
Y-100551D01*
Y-100557D01*
Y-100574D01*
Y-100603D01*
Y-100639D01*
X-1679Y-100685D01*
X-1682Y-100734D01*
X-1685Y-100794D01*
X-1689Y-100856D01*
X-1695Y-100925D01*
X-1702Y-100994D01*
X-1722Y-101138D01*
X-1751Y-101279D01*
X-1767Y-101348D01*
X-1787Y-101410D01*
Y-101414D01*
X-1794Y-101423D01*
X-1797Y-101443D01*
X-1807Y-101463D01*
X-1820Y-101492D01*
X-1833Y-101522D01*
X-1850Y-101558D01*
X-1869Y-101597D01*
X-1915Y-101679D01*
X-1971Y-101761D01*
X-2036Y-101843D01*
X-2076Y-101879D01*
X-2115Y-101915D01*
X-2118Y-101919D01*
X-2125Y-101922D01*
X-2138Y-101932D01*
X-2155Y-101942D01*
X-2174Y-101955D01*
X-2200Y-101971D01*
X-2230Y-101988D01*
X-2266Y-102004D01*
X-2302Y-102020D01*
X-2345Y-102037D01*
X-2387Y-102050D01*
X-2437Y-102066D01*
X-2489Y-102076D01*
X-2545Y-102086D01*
X-2601Y-102089D01*
X-2663Y-102092D01*
X-2683D01*
X-2706Y-102089D01*
X-2735Y-102086D01*
X-2771Y-102083D01*
X-2814Y-102076D01*
X-2860Y-102066D01*
X-2912Y-102053D01*
X-2965Y-102037D01*
X-3021Y-102017D01*
X-3080Y-101991D01*
X-3135Y-101961D01*
X-3191Y-101925D01*
X-3247Y-101883D01*
X-3299Y-101837D01*
X-3348Y-101781D01*
X-3352Y-101778D01*
X-3362Y-101764D01*
X-3375Y-101742D01*
X-3394Y-101709D01*
X-3417Y-101666D01*
X-3444Y-101617D01*
X-3470Y-101555D01*
X-3496Y-101486D01*
X-3526Y-101404D01*
X-3552Y-101315D01*
X-3578Y-101213D01*
X-3601Y-101102D01*
X-3621Y-100980D01*
X-3634Y-100849D01*
X-3644Y-100705D01*
X-3647Y-100551D01*
Y-100544D01*
Y-100528D01*
Y-100498D01*
X-3644Y-100462D01*
Y-100416D01*
X-3640Y-100364D01*
X-3637Y-100305D01*
X-3634Y-100242D01*
X-3627Y-100174D01*
X-3621Y-100105D01*
X-3601Y-99960D01*
X-3575Y-99819D01*
X-3558Y-99751D01*
X-3539Y-99688D01*
Y-99685D01*
X-3532Y-99675D01*
X-3526Y-99655D01*
X-3519Y-99632D01*
X-3506Y-99606D01*
X-3493Y-99573D01*
X-3476Y-99541D01*
X-3457Y-99501D01*
X-3411Y-99419D01*
X-3352Y-99337D01*
X-3286Y-99255D01*
X-3250Y-99219D01*
X-3211Y-99183D01*
X-3207Y-99180D01*
X-3201Y-99177D01*
X-3188Y-99167D01*
X-3171Y-99157D01*
X-3152Y-99140D01*
X-3125Y-99127D01*
X-3096Y-99111D01*
X-3060Y-99094D01*
X-3024Y-99078D01*
X-2981Y-99062D01*
X-2935Y-99045D01*
X-2889Y-99032D01*
X-2837Y-99022D01*
X-2781Y-99013D01*
X-2722Y-99009D01*
X-2663Y-99006D01*
X-2624D01*
X-2601Y-99009D01*
D02*
G37*
%LPC*%
G36*
X105051Y296D02*
X105048D01*
X105041D01*
X105031D01*
X105018D01*
X105002D01*
X104982D01*
X104929Y292D01*
X104870Y289D01*
X104802Y286D01*
X104726Y283D01*
X104647Y273D01*
X104480Y253D01*
X104398Y237D01*
X104319Y220D01*
X104244Y200D01*
X104172Y178D01*
X104113Y151D01*
X104060Y118D01*
X104057Y115D01*
X104050Y112D01*
X104037Y102D01*
X104021Y89D01*
X104005Y69D01*
X103982Y50D01*
X103959Y27D01*
X103936Y0D01*
X103893Y-62D01*
X103854Y-137D01*
X103837Y-177D01*
X103824Y-223D01*
X103818Y-265D01*
X103814Y-314D01*
Y-337D01*
X103818Y-357D01*
X103821Y-377D01*
X103824Y-403D01*
X103840Y-462D01*
X103867Y-528D01*
X103883Y-561D01*
X103906Y-597D01*
X103929Y-629D01*
X103959Y-662D01*
X103991Y-695D01*
X104031Y-724D01*
X104034Y-728D01*
X104044Y-731D01*
X104060Y-741D01*
X104086Y-754D01*
X104119Y-767D01*
X104159Y-783D01*
X104205Y-803D01*
X104264Y-820D01*
X104329Y-836D01*
X104401Y-856D01*
X104487Y-872D01*
X104578Y-885D01*
X104680Y-898D01*
X104795Y-905D01*
X104916Y-911D01*
X105051Y-915D01*
X105054D01*
X105061D01*
X105070D01*
X105084D01*
X105100D01*
X105123D01*
X105172Y-911D01*
X105231Y-908D01*
X105300Y-905D01*
X105376Y-902D01*
X105454Y-892D01*
X105622Y-872D01*
X105704Y-859D01*
X105786Y-843D01*
X105861Y-823D01*
X105930Y-797D01*
X105992Y-770D01*
X106045Y-741D01*
X106048Y-738D01*
X106054Y-734D01*
X106068Y-724D01*
X106084Y-708D01*
X106100Y-692D01*
X106120Y-672D01*
X106166Y-623D01*
X106212Y-561D01*
X106248Y-485D01*
X106264Y-446D01*
X106278Y-403D01*
X106284Y-357D01*
X106287Y-311D01*
Y-301D01*
X106284Y-285D01*
Y-269D01*
X106281Y-246D01*
X106274Y-219D01*
X106258Y-160D01*
X106245Y-128D01*
X106228Y-95D01*
X106209Y-59D01*
X106182Y-23D01*
X106156Y13D01*
X106123Y50D01*
X106084Y86D01*
X106041Y118D01*
X106038Y122D01*
X106028Y125D01*
X106015Y135D01*
X105992Y145D01*
X105963Y161D01*
X105923Y174D01*
X105877Y191D01*
X105825Y207D01*
X105763Y223D01*
X105690Y240D01*
X105612Y256D01*
X105520Y269D01*
X105418Y279D01*
X105307Y289D01*
X105185Y292D01*
X105051Y296D01*
D02*
G37*
G36*
Y-2056D02*
X105048D01*
X105041D01*
X105031D01*
X105018D01*
X105002D01*
X104982D01*
X104929Y-2059D01*
X104870Y-2063D01*
X104802Y-2066D01*
X104726Y-2069D01*
X104647Y-2079D01*
X104480Y-2099D01*
X104398Y-2115D01*
X104319Y-2132D01*
X104244Y-2151D01*
X104172Y-2174D01*
X104113Y-2200D01*
X104060Y-2233D01*
X104057Y-2237D01*
X104050Y-2240D01*
X104037Y-2250D01*
X104021Y-2263D01*
X104005Y-2283D01*
X103982Y-2302D01*
X103959Y-2325D01*
X103936Y-2351D01*
X103893Y-2414D01*
X103854Y-2489D01*
X103837Y-2528D01*
X103824Y-2574D01*
X103818Y-2617D01*
X103814Y-2666D01*
Y-2689D01*
X103818Y-2709D01*
X103821Y-2729D01*
X103824Y-2755D01*
X103840Y-2814D01*
X103867Y-2879D01*
X103883Y-2912D01*
X103906Y-2948D01*
X103929Y-2981D01*
X103959Y-3014D01*
X103991Y-3047D01*
X104031Y-3076D01*
X104034Y-3080D01*
X104044Y-3083D01*
X104060Y-3093D01*
X104086Y-3106D01*
X104119Y-3119D01*
X104159Y-3135D01*
X104205Y-3155D01*
X104264Y-3171D01*
X104329Y-3188D01*
X104401Y-3207D01*
X104487Y-3224D01*
X104578Y-3237D01*
X104680Y-3250D01*
X104795Y-3257D01*
X104916Y-3263D01*
X105051Y-3266D01*
X105054D01*
X105061D01*
X105070D01*
X105084D01*
X105100D01*
X105123D01*
X105172Y-3263D01*
X105231Y-3260D01*
X105300Y-3257D01*
X105376Y-3253D01*
X105454Y-3243D01*
X105622Y-3224D01*
X105704Y-3211D01*
X105786Y-3194D01*
X105861Y-3175D01*
X105930Y-3148D01*
X105992Y-3122D01*
X106045Y-3093D01*
X106048Y-3089D01*
X106054Y-3086D01*
X106068Y-3076D01*
X106084Y-3060D01*
X106100Y-3043D01*
X106120Y-3024D01*
X106166Y-2975D01*
X106212Y-2912D01*
X106248Y-2837D01*
X106264Y-2797D01*
X106278Y-2755D01*
X106284Y-2709D01*
X106287Y-2663D01*
Y-2653D01*
X106284Y-2637D01*
Y-2620D01*
X106281Y-2597D01*
X106274Y-2571D01*
X106258Y-2512D01*
X106245Y-2479D01*
X106228Y-2447D01*
X106209Y-2410D01*
X106182Y-2374D01*
X106156Y-2338D01*
X106123Y-2302D01*
X106084Y-2266D01*
X106041Y-2233D01*
X106038Y-2230D01*
X106028Y-2227D01*
X106015Y-2217D01*
X105992Y-2207D01*
X105963Y-2191D01*
X105923Y-2177D01*
X105877Y-2161D01*
X105825Y-2145D01*
X105763Y-2128D01*
X105690Y-2112D01*
X105612Y-2096D01*
X105520Y-2082D01*
X105418Y-2073D01*
X105307Y-2063D01*
X105185Y-2059D01*
X105051Y-2056D01*
D02*
G37*
G36*
X105477Y-8334D02*
X104113D01*
X105477Y-9289D01*
Y-8334D01*
D02*
G37*
G36*
X-8334Y-99613D02*
X-9289Y-100977D01*
X-8334D01*
Y-99613D01*
D02*
G37*
G36*
X-314Y-99314D02*
X-337D01*
X-357Y-99318D01*
X-377Y-99321D01*
X-403Y-99324D01*
X-462Y-99340D01*
X-528Y-99367D01*
X-561Y-99383D01*
X-597Y-99406D01*
X-629Y-99429D01*
X-662Y-99459D01*
X-695Y-99491D01*
X-724Y-99531D01*
X-728Y-99534D01*
X-731Y-99544D01*
X-741Y-99560D01*
X-754Y-99586D01*
X-767Y-99619D01*
X-783Y-99659D01*
X-803Y-99705D01*
X-820Y-99764D01*
X-836Y-99829D01*
X-856Y-99901D01*
X-872Y-99987D01*
X-885Y-100078D01*
X-898Y-100180D01*
X-905Y-100295D01*
X-911Y-100416D01*
X-915Y-100551D01*
Y-100554D01*
Y-100561D01*
Y-100570D01*
Y-100584D01*
Y-100600D01*
Y-100623D01*
X-911Y-100672D01*
X-908Y-100731D01*
X-905Y-100800D01*
X-902Y-100876D01*
X-892Y-100954D01*
X-872Y-101122D01*
X-859Y-101204D01*
X-843Y-101286D01*
X-823Y-101361D01*
X-797Y-101430D01*
X-770Y-101492D01*
X-741Y-101545D01*
X-738Y-101548D01*
X-734Y-101555D01*
X-724Y-101568D01*
X-708Y-101584D01*
X-692Y-101600D01*
X-672Y-101620D01*
X-623Y-101666D01*
X-561Y-101712D01*
X-485Y-101748D01*
X-446Y-101764D01*
X-403Y-101778D01*
X-357Y-101784D01*
X-311Y-101787D01*
X-301D01*
X-285Y-101784D01*
X-269D01*
X-246Y-101781D01*
X-219Y-101774D01*
X-160Y-101758D01*
X-128Y-101745D01*
X-95Y-101728D01*
X-59Y-101709D01*
X-23Y-101682D01*
X13Y-101656D01*
X50Y-101623D01*
X86Y-101584D01*
X118Y-101541D01*
X122Y-101538D01*
X125Y-101528D01*
X135Y-101515D01*
X145Y-101492D01*
X161Y-101463D01*
X174Y-101423D01*
X191Y-101377D01*
X207Y-101325D01*
X223Y-101263D01*
X240Y-101190D01*
X256Y-101112D01*
X269Y-101020D01*
X279Y-100918D01*
X289Y-100807D01*
X292Y-100685D01*
X296Y-100551D01*
Y-100548D01*
Y-100541D01*
Y-100531D01*
Y-100518D01*
Y-100502D01*
Y-100482D01*
X292Y-100429D01*
X289Y-100370D01*
X286Y-100302D01*
X283Y-100226D01*
X273Y-100147D01*
X253Y-99980D01*
X237Y-99898D01*
X220Y-99819D01*
X200Y-99744D01*
X178Y-99672D01*
X151Y-99613D01*
X118Y-99560D01*
X115Y-99557D01*
X112Y-99550D01*
X102Y-99537D01*
X89Y-99521D01*
X69Y-99505D01*
X50Y-99482D01*
X27Y-99459D01*
X0Y-99436D01*
X-62Y-99393D01*
X-137Y-99354D01*
X-177Y-99337D01*
X-223Y-99324D01*
X-265Y-99318D01*
X-314Y-99314D01*
D02*
G37*
G36*
X-2666D02*
X-2689D01*
X-2709Y-99318D01*
X-2729Y-99321D01*
X-2755Y-99324D01*
X-2814Y-99340D01*
X-2879Y-99367D01*
X-2912Y-99383D01*
X-2948Y-99406D01*
X-2981Y-99429D01*
X-3014Y-99459D01*
X-3047Y-99491D01*
X-3076Y-99531D01*
X-3080Y-99534D01*
X-3083Y-99544D01*
X-3093Y-99560D01*
X-3106Y-99586D01*
X-3119Y-99619D01*
X-3135Y-99659D01*
X-3155Y-99705D01*
X-3171Y-99764D01*
X-3188Y-99829D01*
X-3207Y-99901D01*
X-3224Y-99987D01*
X-3237Y-100078D01*
X-3250Y-100180D01*
X-3257Y-100295D01*
X-3263Y-100416D01*
X-3266Y-100551D01*
Y-100554D01*
Y-100561D01*
Y-100570D01*
Y-100584D01*
Y-100600D01*
Y-100623D01*
X-3263Y-100672D01*
X-3260Y-100731D01*
X-3257Y-100800D01*
X-3253Y-100876D01*
X-3243Y-100954D01*
X-3224Y-101122D01*
X-3211Y-101204D01*
X-3194Y-101286D01*
X-3175Y-101361D01*
X-3148Y-101430D01*
X-3122Y-101492D01*
X-3093Y-101545D01*
X-3089Y-101548D01*
X-3086Y-101555D01*
X-3076Y-101568D01*
X-3060Y-101584D01*
X-3043Y-101600D01*
X-3024Y-101620D01*
X-2975Y-101666D01*
X-2912Y-101712D01*
X-2837Y-101748D01*
X-2797Y-101764D01*
X-2755Y-101778D01*
X-2709Y-101784D01*
X-2663Y-101787D01*
X-2653D01*
X-2637Y-101784D01*
X-2620D01*
X-2597Y-101781D01*
X-2571Y-101774D01*
X-2512Y-101758D01*
X-2479Y-101745D01*
X-2447Y-101728D01*
X-2410Y-101709D01*
X-2374Y-101682D01*
X-2338Y-101656D01*
X-2302Y-101623D01*
X-2266Y-101584D01*
X-2233Y-101541D01*
X-2230Y-101538D01*
X-2227Y-101528D01*
X-2217Y-101515D01*
X-2207Y-101492D01*
X-2191Y-101463D01*
X-2177Y-101423D01*
X-2161Y-101377D01*
X-2145Y-101325D01*
X-2128Y-101263D01*
X-2112Y-101190D01*
X-2096Y-101112D01*
X-2082Y-101020D01*
X-2073Y-100918D01*
X-2063Y-100807D01*
X-2059Y-100685D01*
X-2056Y-100551D01*
Y-100548D01*
Y-100541D01*
Y-100531D01*
Y-100518D01*
Y-100502D01*
Y-100482D01*
X-2059Y-100429D01*
X-2063Y-100370D01*
X-2066Y-100302D01*
X-2069Y-100226D01*
X-2079Y-100147D01*
X-2099Y-99980D01*
X-2115Y-99898D01*
X-2132Y-99819D01*
X-2151Y-99744D01*
X-2174Y-99672D01*
X-2200Y-99613D01*
X-2233Y-99560D01*
X-2237Y-99557D01*
X-2240Y-99550D01*
X-2250Y-99537D01*
X-2263Y-99521D01*
X-2283Y-99505D01*
X-2302Y-99482D01*
X-2325Y-99459D01*
X-2351Y-99436D01*
X-2414Y-99393D01*
X-2489Y-99354D01*
X-2528Y-99337D01*
X-2574Y-99324D01*
X-2617Y-99318D01*
X-2666Y-99314D01*
D02*
G37*
%LPD*%
D11*
X241058Y-51667D02*
G03*
X241058Y-51667I-3333J0D01*
G01*
X234392Y-70000D02*
X237725Y-68333D01*
X241058Y-70000D01*
X239392Y-66667D02*
X241058Y-70000D01*
X239392Y-66667D02*
X241058Y-63333D01*
X237725Y-65000D02*
X241058Y-63333D01*
X234392D02*
X237725Y-65000D01*
X234392Y-63333D02*
X236058Y-66667D01*
X234392Y-70000D02*
X236058Y-66667D01*
Y-83333D02*
X237725Y-85000D01*
X234392Y-83333D02*
X236058D01*
X234392D02*
X236058Y-81667D01*
X234392Y-80000D02*
X236058Y-81667D01*
X234392Y-80000D02*
X236058D01*
X237725Y-78333D01*
X239392Y-80000D01*
X241058D01*
X239392Y-81667D02*
X241058Y-80000D01*
X239392Y-81667D02*
X241058Y-83333D01*
X239392D02*
X241058D01*
X237725Y-85000D02*
X239392Y-83333D01*
X234392Y-100000D02*
X241058D01*
Y-93333D01*
X234392D02*
X241058D01*
X234392Y-100000D02*
Y-93333D01*
X237725Y-115000D02*
X241058Y-108333D01*
X234392D02*
X241058D01*
X234392D02*
X237725Y-115000D01*
X640905Y-55000D02*
Y-49002D01*
X643904D01*
X644903Y-50002D01*
Y-52001D01*
X643904Y-53001D01*
X640905D01*
X642904D02*
X644903Y-55000D01*
X647902D02*
X649902D01*
X650902Y-54000D01*
Y-52001D01*
X649902Y-51001D01*
X647902D01*
X646903Y-52001D01*
Y-54000D01*
X647902Y-55000D01*
X652901Y-51001D02*
Y-54000D01*
X653900Y-55000D01*
X656900D01*
Y-51001D01*
X658899Y-55000D02*
Y-51001D01*
X661898D01*
X662898Y-52001D01*
Y-55000D01*
X668896Y-49002D02*
Y-55000D01*
X665897D01*
X664897Y-54000D01*
Y-52001D01*
X665897Y-51001D01*
X668896D01*
X673894Y-55000D02*
X671895D01*
X670895Y-54000D01*
Y-52001D01*
X671895Y-51001D01*
X673894D01*
X674894Y-52001D01*
Y-53001D01*
X670895D01*
X680892Y-49002D02*
Y-55000D01*
X677893D01*
X676893Y-54000D01*
Y-52001D01*
X677893Y-51001D01*
X680892D01*
X640905Y-70000D02*
Y-64002D01*
X643904D01*
X644903Y-65002D01*
Y-67001D01*
X643904Y-68001D01*
X640905D01*
X642904D02*
X644903Y-70000D01*
X647902D02*
X649902D01*
X650902Y-69000D01*
Y-67001D01*
X649902Y-66001D01*
X647902D01*
X646903Y-67001D01*
Y-69000D01*
X647902Y-70000D01*
X652901Y-66001D02*
Y-69000D01*
X653900Y-70000D01*
X656900D01*
Y-66001D01*
X658899Y-70000D02*
Y-66001D01*
X661898D01*
X662898Y-67001D01*
Y-70000D01*
X668896Y-64002D02*
Y-70000D01*
X665897D01*
X664897Y-69000D01*
Y-67001D01*
X665897Y-66001D01*
X668896D01*
X673894Y-70000D02*
X671895D01*
X670895Y-69000D01*
Y-67001D01*
X671895Y-66001D01*
X673894D01*
X674894Y-67001D01*
Y-68001D01*
X670895D01*
X680892Y-64002D02*
Y-70000D01*
X677893D01*
X676893Y-69000D01*
Y-67001D01*
X677893Y-66001D01*
X680892D01*
X640905Y-85000D02*
Y-79002D01*
X643904D01*
X644903Y-80002D01*
Y-82001D01*
X643904Y-83001D01*
X640905D01*
X642904D02*
X644903Y-85000D01*
X647902D02*
X649902D01*
X650902Y-84000D01*
Y-82001D01*
X649902Y-81001D01*
X647902D01*
X646903Y-82001D01*
Y-84000D01*
X647902Y-85000D01*
X652901Y-81001D02*
Y-84000D01*
X653900Y-85000D01*
X656900D01*
Y-81001D01*
X658899Y-85000D02*
Y-81001D01*
X661898D01*
X662898Y-82001D01*
Y-85000D01*
X668896Y-79002D02*
Y-85000D01*
X665897D01*
X664897Y-84000D01*
Y-82001D01*
X665897Y-81001D01*
X668896D01*
X673894Y-85000D02*
X671895D01*
X670895Y-84000D01*
Y-82001D01*
X671895Y-81001D01*
X673894D01*
X674894Y-82001D01*
Y-83001D01*
X670895D01*
X680892Y-79002D02*
Y-85000D01*
X677893D01*
X676893Y-84000D01*
Y-82001D01*
X677893Y-81001D01*
X680892D01*
X640905Y-100000D02*
Y-94002D01*
X643904D01*
X644903Y-95002D01*
Y-97001D01*
X643904Y-98001D01*
X640905D01*
X642904D02*
X644903Y-100000D01*
X647902D02*
X649902D01*
X650902Y-99000D01*
Y-97001D01*
X649902Y-96001D01*
X647902D01*
X646903Y-97001D01*
Y-99000D01*
X647902Y-100000D01*
X652901Y-96001D02*
Y-99000D01*
X653900Y-100000D01*
X656900D01*
Y-96001D01*
X658899Y-100000D02*
Y-96001D01*
X661898D01*
X662898Y-97001D01*
Y-100000D01*
X668896Y-94002D02*
Y-100000D01*
X665897D01*
X664897Y-99000D01*
Y-97001D01*
X665897Y-96001D01*
X668896D01*
X673894Y-100000D02*
X671895D01*
X670895Y-99000D01*
Y-97001D01*
X671895Y-96001D01*
X673894D01*
X674894Y-97001D01*
Y-98001D01*
X670895D01*
X680892Y-94002D02*
Y-100000D01*
X677893D01*
X676893Y-99000D01*
Y-97001D01*
X677893Y-96001D01*
X680892D01*
X640905Y-115000D02*
Y-109002D01*
X643904D01*
X644903Y-110002D01*
Y-112001D01*
X643904Y-113001D01*
X640905D01*
X642904D02*
X644903Y-115000D01*
X647902D02*
X649902D01*
X650902Y-114000D01*
Y-112001D01*
X649902Y-111001D01*
X647902D01*
X646903Y-112001D01*
Y-114000D01*
X647902Y-115000D01*
X652901Y-111001D02*
Y-114000D01*
X653900Y-115000D01*
X656900D01*
Y-111001D01*
X658899Y-115000D02*
Y-111001D01*
X661898D01*
X662898Y-112001D01*
Y-115000D01*
X668896Y-109002D02*
Y-115000D01*
X665897D01*
X664897Y-114000D01*
Y-112001D01*
X665897Y-111001D01*
X668896D01*
X673894Y-115000D02*
X671895D01*
X670895Y-114000D01*
Y-112001D01*
X671895Y-111001D01*
X673894D01*
X674894Y-112001D01*
Y-113001D01*
X670895D01*
X680892Y-109002D02*
Y-115000D01*
X677893D01*
X676893Y-114000D01*
Y-112001D01*
X677893Y-111001D01*
X680892D01*
X581920Y-49002D02*
Y-53001D01*
X583919Y-55000D01*
X585919Y-53001D01*
Y-49002D01*
X587918Y-55000D02*
X589917D01*
X588918D01*
Y-51001D01*
X587918D01*
X593916D02*
X595915D01*
X596915Y-52001D01*
Y-55000D01*
X593916D01*
X592916Y-54000D01*
X593916Y-53001D01*
X596915D01*
X581920Y-70000D02*
Y-64002D01*
X584919D01*
X585919Y-65002D01*
Y-67001D01*
X584919Y-68001D01*
X581920D01*
X588918Y-66001D02*
X590917D01*
X591917Y-67001D01*
Y-70000D01*
X588918D01*
X587918Y-69000D01*
X588918Y-68001D01*
X591917D01*
X597915Y-64002D02*
Y-70000D01*
X594916D01*
X593916Y-69000D01*
Y-67001D01*
X594916Y-66001D01*
X597915D01*
X581920Y-85000D02*
Y-79002D01*
X584919D01*
X585919Y-80002D01*
Y-82001D01*
X584919Y-83001D01*
X581920D01*
X588918Y-81001D02*
X590917D01*
X591917Y-82001D01*
Y-85000D01*
X588918D01*
X587918Y-84000D01*
X588918Y-83001D01*
X591917D01*
X597915Y-79002D02*
Y-85000D01*
X594916D01*
X593916Y-84000D01*
Y-82001D01*
X594916Y-81001D01*
X597915D01*
X581920Y-100000D02*
Y-94002D01*
X584919D01*
X585919Y-95002D01*
Y-97001D01*
X584919Y-98001D01*
X581920D01*
X588918Y-96001D02*
X590917D01*
X591917Y-97001D01*
Y-100000D01*
X588918D01*
X587918Y-99000D01*
X588918Y-98001D01*
X591917D01*
X597915Y-94002D02*
Y-100000D01*
X594916D01*
X593916Y-99000D01*
Y-97001D01*
X594916Y-96001D01*
X597915D01*
X581920Y-115000D02*
Y-109002D01*
X584919D01*
X585919Y-110002D01*
Y-112001D01*
X584919Y-113001D01*
X581920D01*
X588918Y-111001D02*
X590917D01*
X591917Y-112001D01*
Y-115000D01*
X588918D01*
X587918Y-114000D01*
X588918Y-113001D01*
X591917D01*
X597915Y-109002D02*
Y-115000D01*
X594916D01*
X593916Y-114000D01*
Y-112001D01*
X594916Y-111001D01*
X597915D01*
X508540Y-55000D02*
Y-49002D01*
X511539D01*
X512538Y-50002D01*
Y-52001D01*
X511539Y-53001D01*
X508540D01*
X510539D02*
X512538Y-55000D01*
X515537D02*
X517537D01*
X518536Y-54000D01*
Y-52001D01*
X517537Y-51001D01*
X515537D01*
X514538Y-52001D01*
Y-54000D01*
X515537Y-55000D01*
X520536Y-51001D02*
Y-54000D01*
X521535Y-55000D01*
X524535D01*
Y-51001D01*
X526534Y-55000D02*
Y-51001D01*
X529533D01*
X530533Y-52001D01*
Y-55000D01*
X536531Y-49002D02*
Y-55000D01*
X533532D01*
X532532Y-54000D01*
Y-52001D01*
X533532Y-51001D01*
X536531D01*
X512538Y-65002D02*
X511539Y-64002D01*
X509539D01*
X508540Y-65002D01*
Y-66001D01*
X509539Y-67001D01*
X511539D01*
X512538Y-68001D01*
Y-69000D01*
X511539Y-70000D01*
X509539D01*
X508540Y-69000D01*
X514538Y-70000D02*
X516537D01*
X515537D01*
Y-64002D01*
X514538D01*
X520536Y-70000D02*
X522535D01*
X523535Y-69000D01*
Y-67001D01*
X522535Y-66001D01*
X520536D01*
X519536Y-67001D01*
Y-69000D01*
X520536Y-70000D01*
X526534Y-65002D02*
Y-66001D01*
X525534D01*
X527533D01*
X526534D01*
Y-69000D01*
X527533Y-70000D01*
X512538Y-80002D02*
X511539Y-79002D01*
X509539D01*
X508540Y-80002D01*
Y-81001D01*
X509539Y-82001D01*
X511539D01*
X512538Y-83001D01*
Y-84000D01*
X511539Y-85000D01*
X509539D01*
X508540Y-84000D01*
X514538Y-85000D02*
X516537D01*
X515537D01*
Y-79002D01*
X514538D01*
X520536Y-85000D02*
X522535D01*
X523535Y-84000D01*
Y-82001D01*
X522535Y-81001D01*
X520536D01*
X519536Y-82001D01*
Y-84000D01*
X520536Y-85000D01*
X526534Y-80002D02*
Y-81001D01*
X525534D01*
X527533D01*
X526534D01*
Y-84000D01*
X527533Y-85000D01*
X508540Y-100000D02*
Y-94002D01*
X511539D01*
X512538Y-95002D01*
Y-97001D01*
X511539Y-98001D01*
X508540D01*
X510539D02*
X512538Y-100000D01*
X515537D02*
X517537D01*
X518536Y-99000D01*
Y-97001D01*
X517537Y-96001D01*
X515537D01*
X514538Y-97001D01*
Y-99000D01*
X515537Y-100000D01*
X520536Y-96001D02*
Y-99000D01*
X521535Y-100000D01*
X524535D01*
Y-96001D01*
X526534Y-100000D02*
Y-96001D01*
X529533D01*
X530533Y-97001D01*
Y-100000D01*
X536531Y-94002D02*
Y-100000D01*
X533532D01*
X532532Y-99000D01*
Y-97001D01*
X533532Y-96001D01*
X536531D01*
X508540Y-115000D02*
Y-109002D01*
X511539D01*
X512538Y-110002D01*
Y-112001D01*
X511539Y-113001D01*
X508540D01*
X510539D02*
X512538Y-115000D01*
X515537D02*
X517537D01*
X518536Y-114000D01*
Y-112001D01*
X517537Y-111001D01*
X515537D01*
X514538Y-112001D01*
Y-114000D01*
X515537Y-115000D01*
X520536Y-111001D02*
Y-114000D01*
X521535Y-115000D01*
X524535D01*
Y-111001D01*
X526534Y-115000D02*
Y-111001D01*
X529533D01*
X530533Y-112001D01*
Y-115000D01*
X536531Y-109002D02*
Y-115000D01*
X533532D01*
X532532Y-114000D01*
Y-112001D01*
X533532Y-111001D01*
X536531D01*
X457952Y-55000D02*
Y-49002D01*
X460951D01*
X461951Y-50002D01*
Y-52001D01*
X460951Y-53001D01*
X457952D01*
X463950Y-49002D02*
X467949D01*
X465949D01*
Y-55000D01*
X469948Y-49002D02*
Y-55000D01*
Y-52001D01*
X473947D01*
Y-49002D01*
Y-55000D01*
X457952Y-70000D02*
Y-64002D01*
X460951D01*
X461951Y-65002D01*
Y-67001D01*
X460951Y-68001D01*
X457952D01*
X463950Y-64002D02*
X467949D01*
X465949D01*
Y-70000D01*
X469948Y-64002D02*
Y-70000D01*
Y-67001D01*
X473947D01*
Y-64002D01*
Y-70000D01*
X457952Y-85000D02*
Y-79002D01*
X460951D01*
X461951Y-80002D01*
Y-82001D01*
X460951Y-83001D01*
X457952D01*
X463950Y-79002D02*
X467949D01*
X465949D01*
Y-85000D01*
X469948Y-79002D02*
Y-85000D01*
Y-82001D01*
X473947D01*
Y-79002D01*
Y-85000D01*
X457952Y-100000D02*
Y-94002D01*
X461951Y-100000D01*
Y-94002D01*
X463950Y-100000D02*
Y-94002D01*
X466949D01*
X467949Y-95002D01*
Y-97001D01*
X466949Y-98001D01*
X463950D01*
X469948Y-94002D02*
X473947D01*
X471948D01*
Y-100000D01*
X475946Y-94002D02*
Y-100000D01*
Y-97001D01*
X479945D01*
Y-94002D01*
Y-100000D01*
X457952Y-115000D02*
Y-109002D01*
X460951D01*
X461951Y-110002D01*
Y-112001D01*
X460951Y-113001D01*
X457952D01*
X463950Y-109002D02*
X467949D01*
X465949D01*
Y-115000D01*
X469948Y-109002D02*
Y-115000D01*
Y-112001D01*
X473947D01*
Y-109002D01*
Y-115000D01*
X345985Y-50002D02*
X346985Y-49002D01*
X348984D01*
X349984Y-50002D01*
Y-54000D01*
X348984Y-55000D01*
X346985D01*
X345985Y-54000D01*
Y-50002D01*
X351983Y-55000D02*
Y-54000D01*
X352982D01*
Y-55000D01*
X351983D01*
X359980D02*
Y-49002D01*
X356981Y-52001D01*
X360980D01*
X362979Y-50002D02*
X363979Y-49002D01*
X365978D01*
X366978Y-50002D01*
Y-54000D01*
X365978Y-55000D01*
X363979D01*
X362979Y-54000D01*
Y-50002D01*
X368977D02*
X369977Y-49002D01*
X371976D01*
X372976Y-50002D01*
Y-54000D01*
X371976Y-55000D01*
X369977D01*
X368977Y-54000D01*
Y-50002D01*
X374975Y-55000D02*
Y-51001D01*
X375975D01*
X376975Y-52001D01*
Y-55000D01*
Y-52001D01*
X377974Y-51001D01*
X378974Y-52001D01*
Y-55000D01*
X380974D02*
Y-51001D01*
X381973D01*
X382973Y-52001D01*
Y-55000D01*
Y-52001D01*
X383973Y-51001D01*
X384972Y-52001D01*
Y-55000D01*
X394969D02*
X392970Y-53001D01*
Y-51001D01*
X394969Y-49002D01*
X397968Y-55000D02*
X399967D01*
X398968D01*
Y-49002D01*
X397968Y-50002D01*
X406965Y-49002D02*
X402966D01*
Y-52001D01*
X404966Y-51001D01*
X405965D01*
X406965Y-52001D01*
Y-54000D01*
X405965Y-55000D01*
X403966D01*
X402966Y-54000D01*
X408964Y-55000D02*
Y-54000D01*
X409964D01*
Y-55000D01*
X408964D01*
X413963Y-49002D02*
X417962D01*
Y-50002D01*
X413963Y-54000D01*
Y-55000D01*
X423960Y-49002D02*
X419961D01*
Y-52001D01*
X421960Y-51001D01*
X422960D01*
X423960Y-52001D01*
Y-54000D01*
X422960Y-55000D01*
X420961D01*
X419961Y-54000D01*
X425959Y-55000D02*
Y-51001D01*
X426959D01*
X427958Y-52001D01*
Y-55000D01*
Y-52001D01*
X428958Y-51001D01*
X429958Y-52001D01*
Y-55000D01*
X431957D02*
X433956D01*
X432957D01*
Y-51001D01*
X431957D01*
X436955Y-55000D02*
X438955D01*
X437955D01*
Y-49002D01*
X436955D01*
X441954Y-55000D02*
X443953Y-53001D01*
Y-51001D01*
X441954Y-49002D01*
X345985Y-65002D02*
X346985Y-64002D01*
X348984D01*
X349984Y-65002D01*
Y-69000D01*
X348984Y-70000D01*
X346985D01*
X345985Y-69000D01*
Y-65002D01*
X351983Y-70000D02*
Y-69000D01*
X352982D01*
Y-70000D01*
X351983D01*
X360980Y-64002D02*
X358981Y-65002D01*
X356981Y-67001D01*
Y-69000D01*
X357981Y-70000D01*
X359980D01*
X360980Y-69000D01*
Y-68001D01*
X359980Y-67001D01*
X356981D01*
X362979Y-65002D02*
X363979Y-64002D01*
X365978D01*
X366978Y-65002D01*
Y-69000D01*
X365978Y-70000D01*
X363979D01*
X362979Y-69000D01*
Y-65002D01*
X368977D02*
X369977Y-64002D01*
X371976D01*
X372976Y-65002D01*
Y-69000D01*
X371976Y-70000D01*
X369977D01*
X368977Y-69000D01*
Y-65002D01*
X374975Y-70000D02*
Y-66001D01*
X375975D01*
X376975Y-67001D01*
Y-70000D01*
Y-67001D01*
X377974Y-66001D01*
X378974Y-67001D01*
Y-70000D01*
X380974D02*
Y-66001D01*
X381973D01*
X382973Y-67001D01*
Y-70000D01*
Y-67001D01*
X383973Y-66001D01*
X384972Y-67001D01*
Y-70000D01*
X394969D02*
X392970Y-68001D01*
Y-66001D01*
X394969Y-64002D01*
X401967Y-70000D02*
X397968D01*
X401967Y-66001D01*
Y-65002D01*
X400967Y-64002D01*
X398968D01*
X397968Y-65002D01*
X403966D02*
X404966Y-64002D01*
X406965D01*
X407965Y-65002D01*
Y-66001D01*
X406965Y-67001D01*
X405965D01*
X406965D01*
X407965Y-68001D01*
Y-69000D01*
X406965Y-70000D01*
X404966D01*
X403966Y-69000D01*
X409964Y-70000D02*
Y-69000D01*
X410964D01*
Y-70000D01*
X409964D01*
X418961Y-64002D02*
X416962Y-65002D01*
X414962Y-67001D01*
Y-69000D01*
X415962Y-70000D01*
X417962D01*
X418961Y-69000D01*
Y-68001D01*
X417962Y-67001D01*
X414962D01*
X424959Y-70000D02*
X420961D01*
X424959Y-66001D01*
Y-65002D01*
X423960Y-64002D01*
X421960D01*
X420961Y-65002D01*
X426959Y-70000D02*
Y-66001D01*
X427958D01*
X428958Y-67001D01*
Y-70000D01*
Y-67001D01*
X429958Y-66001D01*
X430957Y-67001D01*
Y-70000D01*
X432957D02*
X434956D01*
X433956D01*
Y-66001D01*
X432957D01*
X437955Y-70000D02*
X439954D01*
X438955D01*
Y-64002D01*
X437955D01*
X442953Y-70000D02*
X444953Y-68001D01*
Y-66001D01*
X442953Y-64002D01*
X345985Y-80002D02*
X346985Y-79002D01*
X348984D01*
X349984Y-80002D01*
Y-84000D01*
X348984Y-85000D01*
X346985D01*
X345985Y-84000D01*
Y-80002D01*
X351983Y-85000D02*
Y-84000D01*
X352982D01*
Y-85000D01*
X351983D01*
X360980Y-79002D02*
X358981Y-80002D01*
X356981Y-82001D01*
Y-84000D01*
X357981Y-85000D01*
X359980D01*
X360980Y-84000D01*
Y-83001D01*
X359980Y-82001D01*
X356981D01*
X362979Y-80002D02*
X363979Y-79002D01*
X365978D01*
X366978Y-80002D01*
Y-84000D01*
X365978Y-85000D01*
X363979D01*
X362979Y-84000D01*
Y-80002D01*
X368977D02*
X369977Y-79002D01*
X371976D01*
X372976Y-80002D01*
Y-84000D01*
X371976Y-85000D01*
X369977D01*
X368977Y-84000D01*
Y-80002D01*
X374975Y-85000D02*
Y-81001D01*
X375975D01*
X376975Y-82001D01*
Y-85000D01*
Y-82001D01*
X377974Y-81001D01*
X378974Y-82001D01*
Y-85000D01*
X380974D02*
Y-81001D01*
X381973D01*
X382973Y-82001D01*
Y-85000D01*
Y-82001D01*
X383973Y-81001D01*
X384972Y-82001D01*
Y-85000D01*
X394969D02*
X392970Y-83001D01*
Y-81001D01*
X394969Y-79002D01*
X401967Y-85000D02*
X397968D01*
X401967Y-81001D01*
Y-80002D01*
X400967Y-79002D01*
X398968D01*
X397968Y-80002D01*
X403966D02*
X404966Y-79002D01*
X406965D01*
X407965Y-80002D01*
Y-81001D01*
X406965Y-82001D01*
X405965D01*
X406965D01*
X407965Y-83001D01*
Y-84000D01*
X406965Y-85000D01*
X404966D01*
X403966Y-84000D01*
X409964Y-85000D02*
Y-84000D01*
X410964D01*
Y-85000D01*
X409964D01*
X418961Y-79002D02*
X416962Y-80002D01*
X414962Y-82001D01*
Y-84000D01*
X415962Y-85000D01*
X417962D01*
X418961Y-84000D01*
Y-83001D01*
X417962Y-82001D01*
X414962D01*
X424959Y-85000D02*
X420961D01*
X424959Y-81001D01*
Y-80002D01*
X423960Y-79002D01*
X421960D01*
X420961Y-80002D01*
X426959Y-85000D02*
Y-81001D01*
X427958D01*
X428958Y-82001D01*
Y-85000D01*
Y-82001D01*
X429958Y-81001D01*
X430957Y-82001D01*
Y-85000D01*
X432957D02*
X434956D01*
X433956D01*
Y-81001D01*
X432957D01*
X437955Y-85000D02*
X439954D01*
X438955D01*
Y-79002D01*
X437955D01*
X442953Y-85000D02*
X444953Y-83001D01*
Y-81001D01*
X442953Y-79002D01*
X345985Y-95002D02*
X346985Y-94002D01*
X348984D01*
X349984Y-95002D01*
Y-99000D01*
X348984Y-100000D01*
X346985D01*
X345985Y-99000D01*
Y-95002D01*
X351983Y-100000D02*
Y-99000D01*
X352982D01*
Y-100000D01*
X351983D01*
X360980Y-94002D02*
X358981Y-95002D01*
X356981Y-97001D01*
Y-99000D01*
X357981Y-100000D01*
X359980D01*
X360980Y-99000D01*
Y-98001D01*
X359980Y-97001D01*
X356981D01*
X366978Y-94002D02*
X362979D01*
Y-97001D01*
X364979Y-96001D01*
X365978D01*
X366978Y-97001D01*
Y-99000D01*
X365978Y-100000D01*
X363979D01*
X362979Y-99000D01*
X368977Y-95002D02*
X369977Y-94002D01*
X371976D01*
X372976Y-95002D01*
Y-99000D01*
X371976Y-100000D01*
X369977D01*
X368977Y-99000D01*
Y-95002D01*
X374975Y-100000D02*
Y-96001D01*
X375975D01*
X376975Y-97001D01*
Y-100000D01*
Y-97001D01*
X377974Y-96001D01*
X378974Y-97001D01*
Y-100000D01*
X380974D02*
Y-96001D01*
X381973D01*
X382973Y-97001D01*
Y-100000D01*
Y-97001D01*
X383973Y-96001D01*
X384972Y-97001D01*
Y-100000D01*
X394969D02*
X392970Y-98001D01*
Y-96001D01*
X394969Y-94002D01*
X401967Y-100000D02*
X397968D01*
X401967Y-96001D01*
Y-95002D01*
X400967Y-94002D01*
X398968D01*
X397968Y-95002D01*
X407965Y-94002D02*
X403966D01*
Y-97001D01*
X405965Y-96001D01*
X406965D01*
X407965Y-97001D01*
Y-99000D01*
X406965Y-100000D01*
X404966D01*
X403966Y-99000D01*
X409964Y-100000D02*
Y-99000D01*
X410964D01*
Y-100000D01*
X409964D01*
X418961Y-94002D02*
X414962D01*
Y-97001D01*
X416962Y-96001D01*
X417962D01*
X418961Y-97001D01*
Y-99000D01*
X417962Y-100000D01*
X415962D01*
X414962Y-99000D01*
X420961D02*
X421960Y-100000D01*
X423960D01*
X424959Y-99000D01*
Y-95002D01*
X423960Y-94002D01*
X421960D01*
X420961Y-95002D01*
Y-96001D01*
X421960Y-97001D01*
X424959D01*
X426959Y-100000D02*
Y-96001D01*
X427958D01*
X428958Y-97001D01*
Y-100000D01*
Y-97001D01*
X429958Y-96001D01*
X430957Y-97001D01*
Y-100000D01*
X432957D02*
X434956D01*
X433956D01*
Y-96001D01*
X432957D01*
X437955Y-100000D02*
X439954D01*
X438955D01*
Y-94002D01*
X437955D01*
X442953Y-100000D02*
X444953Y-98001D01*
Y-96001D01*
X442953Y-94002D01*
X345985Y-110002D02*
X346985Y-109002D01*
X348984D01*
X349984Y-110002D01*
Y-111001D01*
X348984Y-112001D01*
X347984D01*
X348984D01*
X349984Y-113001D01*
Y-114000D01*
X348984Y-115000D01*
X346985D01*
X345985Y-114000D01*
X351983Y-115000D02*
Y-114000D01*
X352982D01*
Y-115000D01*
X351983D01*
X356981Y-110002D02*
X357981Y-109002D01*
X359980D01*
X360980Y-110002D01*
Y-114000D01*
X359980Y-115000D01*
X357981D01*
X356981Y-114000D01*
Y-110002D01*
X362979D02*
X363979Y-109002D01*
X365978D01*
X366978Y-110002D01*
Y-114000D01*
X365978Y-115000D01*
X363979D01*
X362979Y-114000D01*
Y-110002D01*
X368977D02*
X369977Y-109002D01*
X371976D01*
X372976Y-110002D01*
Y-114000D01*
X371976Y-115000D01*
X369977D01*
X368977Y-114000D01*
Y-110002D01*
X374975Y-115000D02*
Y-111001D01*
X375975D01*
X376975Y-112001D01*
Y-115000D01*
Y-112001D01*
X377974Y-111001D01*
X378974Y-112001D01*
Y-115000D01*
X380974D02*
Y-111001D01*
X381973D01*
X382973Y-112001D01*
Y-115000D01*
Y-112001D01*
X383973Y-111001D01*
X384972Y-112001D01*
Y-115000D01*
X394969D02*
X392970Y-113001D01*
Y-111001D01*
X394969Y-109002D01*
X397968Y-115000D02*
X399967D01*
X398968D01*
Y-109002D01*
X397968Y-110002D01*
X402966Y-115000D02*
X404966D01*
X403966D01*
Y-109002D01*
X402966Y-110002D01*
X407965D02*
X408964Y-109002D01*
X410964D01*
X411963Y-110002D01*
Y-111001D01*
X410964Y-112001D01*
X411963Y-113001D01*
Y-114000D01*
X410964Y-115000D01*
X408964D01*
X407965Y-114000D01*
Y-113001D01*
X408964Y-112001D01*
X407965Y-111001D01*
Y-110002D01*
X408964Y-112001D02*
X410964D01*
X413963Y-115000D02*
Y-114000D01*
X414962D01*
Y-115000D01*
X413963D01*
X418961D02*
X420961D01*
X419961D01*
Y-109002D01*
X418961Y-110002D01*
X423960Y-115000D02*
X425959D01*
X424959D01*
Y-109002D01*
X423960Y-110002D01*
X428958Y-115000D02*
Y-111001D01*
X429958D01*
X430957Y-112001D01*
Y-115000D01*
Y-112001D01*
X431957Y-111001D01*
X432957Y-112001D01*
Y-115000D01*
X434956D02*
X436955D01*
X435956D01*
Y-111001D01*
X434956D01*
X439954Y-115000D02*
X441954D01*
X440954D01*
Y-109002D01*
X439954D01*
X444953Y-115000D02*
X446952Y-113001D01*
Y-111001D01*
X444953Y-109002D01*
X288000Y-130000D02*
X289999D01*
X289000D01*
Y-124002D01*
X288000Y-125002D01*
X292998D02*
X293998Y-124002D01*
X295997D01*
X296997Y-125002D01*
Y-129000D01*
X295997Y-130000D01*
X293998D01*
X292998Y-129000D01*
Y-125002D01*
X298996Y-130000D02*
X300996D01*
X299996D01*
Y-124002D01*
X298996Y-125002D01*
X309993Y-124002D02*
X313992D01*
X311992D01*
Y-130000D01*
X316991D02*
X318990D01*
X319990Y-129000D01*
Y-127001D01*
X318990Y-126001D01*
X316991D01*
X315991Y-127001D01*
Y-129000D01*
X316991Y-130000D01*
X322989Y-125002D02*
Y-126001D01*
X321989D01*
X323988D01*
X322989D01*
Y-129000D01*
X323988Y-130000D01*
X327987Y-126001D02*
X329986D01*
X330986Y-127001D01*
Y-130000D01*
X327987D01*
X326987Y-129000D01*
X327987Y-128001D01*
X330986D01*
X332985Y-130000D02*
X334985D01*
X333985D01*
Y-124002D01*
X332985D01*
X288000Y-54000D02*
X289000Y-55000D01*
X290999D01*
X291999Y-54000D01*
Y-50002D01*
X290999Y-49002D01*
X289000D01*
X288000Y-50002D01*
Y-51001D01*
X289000Y-52001D01*
X291999D01*
X293998Y-55000D02*
X295997D01*
X294998D01*
Y-49002D01*
X293998Y-50002D01*
X291999Y-70000D02*
X288000D01*
X291999Y-66001D01*
Y-65002D01*
X290999Y-64002D01*
X289000D01*
X288000Y-65002D01*
X291999Y-85000D02*
X288000D01*
X291999Y-81001D01*
Y-80002D01*
X290999Y-79002D01*
X289000D01*
X288000Y-80002D01*
X291999Y-100000D02*
X288000D01*
X291999Y-96001D01*
Y-95002D01*
X290999Y-94002D01*
X289000D01*
X288000Y-95002D01*
X290999Y-115000D02*
Y-109002D01*
X288000Y-112001D01*
X291999D01*
X415959Y-152496D02*
X419958D01*
X415959Y-150496D02*
X419958D01*
X427955Y-154495D02*
Y-148497D01*
X430955D01*
X431954Y-149496D01*
Y-151496D01*
X430955Y-152496D01*
X427955D01*
X429955D02*
X431954Y-154495D01*
X434953D02*
X436953D01*
X437952Y-153495D01*
Y-151496D01*
X436953Y-150496D01*
X434953D01*
X433954Y-151496D01*
Y-153495D01*
X434953Y-154495D01*
X439952Y-150496D02*
Y-153495D01*
X440951Y-154495D01*
X443950D01*
Y-150496D01*
X446949Y-149496D02*
Y-150496D01*
X445950D01*
X447949D01*
X446949D01*
Y-153495D01*
X447949Y-154495D01*
X453947D02*
X451948D01*
X450948Y-153495D01*
Y-151496D01*
X451948Y-150496D01*
X453947D01*
X454947Y-151496D01*
Y-152496D01*
X450948D01*
X460945Y-148497D02*
Y-154495D01*
X457946D01*
X456946Y-153495D01*
Y-151496D01*
X457946Y-150496D01*
X460945D01*
X468942Y-154495D02*
Y-148497D01*
X471941D01*
X472941Y-149496D01*
Y-151496D01*
X471941Y-152496D01*
X468942D01*
X475940Y-150496D02*
X477939D01*
X478939Y-151496D01*
Y-154495D01*
X475940D01*
X474940Y-153495D01*
X475940Y-152496D01*
X478939D01*
X481938Y-149496D02*
Y-150496D01*
X480938D01*
X482938D01*
X481938D01*
Y-153495D01*
X482938Y-154495D01*
X485937Y-148497D02*
Y-154495D01*
Y-151496D01*
X486936Y-150496D01*
X488936D01*
X489935Y-151496D01*
Y-154495D01*
X497933Y-148497D02*
Y-154495D01*
X501932D01*
X506930D02*
X504931D01*
X503931Y-153495D01*
Y-151496D01*
X504931Y-150496D01*
X506930D01*
X507930Y-151496D01*
Y-152496D01*
X503931D01*
X509929Y-154495D02*
Y-150496D01*
X512928D01*
X513928Y-151496D01*
Y-154495D01*
X517926Y-156494D02*
X518926D01*
X519926Y-155494D01*
Y-150496D01*
X516927D01*
X515927Y-151496D01*
Y-153495D01*
X516927Y-154495D01*
X519926D01*
X522925Y-149496D02*
Y-150496D01*
X521925D01*
X523924D01*
X522925D01*
Y-153495D01*
X523924Y-154495D01*
X526924Y-148497D02*
Y-154495D01*
Y-151496D01*
X527923Y-150496D01*
X529922D01*
X530922Y-151496D01*
Y-154495D01*
X538920Y-151496D02*
X542918D01*
X540919Y-149496D02*
Y-153495D01*
X550916Y-148497D02*
X554914D01*
X552915D01*
Y-154495D01*
X557913D02*
X559913D01*
X560913Y-153495D01*
Y-151496D01*
X559913Y-150496D01*
X557913D01*
X556914Y-151496D01*
Y-153495D01*
X557913Y-154495D01*
X563911D02*
X565911D01*
X566911Y-153495D01*
Y-151496D01*
X565911Y-150496D01*
X563911D01*
X562912Y-151496D01*
Y-153495D01*
X563911Y-154495D01*
X568910D02*
X570909D01*
X569910D01*
Y-148497D01*
X568910D01*
X583905Y-149496D02*
X582905Y-148497D01*
X580906D01*
X579906Y-149496D01*
Y-150496D01*
X580906Y-151496D01*
X582905D01*
X583905Y-152496D01*
Y-153495D01*
X582905Y-154495D01*
X580906D01*
X579906Y-153495D01*
X585904Y-154495D02*
X587904D01*
X586904D01*
Y-150496D01*
X585904D01*
X590903D02*
X594902D01*
X590903Y-154495D01*
X594902D01*
X599900D02*
X597900D01*
X596901Y-153495D01*
Y-151496D01*
X597900Y-150496D01*
X599900D01*
X600900Y-151496D01*
Y-152496D01*
X596901D01*
X608897D02*
X612896D01*
X608897Y-150496D02*
X612896D01*
X624892Y-149496D02*
X623892Y-148497D01*
X621893D01*
X620893Y-149496D01*
Y-150496D01*
X621893Y-151496D01*
X623892D01*
X624892Y-152496D01*
Y-153495D01*
X623892Y-154495D01*
X621893D01*
X620893Y-153495D01*
X626891Y-154495D02*
X628891D01*
X627891D01*
Y-148497D01*
X626891D01*
X632889Y-154495D02*
X634889D01*
X635888Y-153495D01*
Y-151496D01*
X634889Y-150496D01*
X632889D01*
X631889Y-151496D01*
Y-153495D01*
X632889Y-154495D01*
X638887Y-149496D02*
Y-150496D01*
X637888D01*
X639887D01*
X638887D01*
Y-153495D01*
X639887Y-154495D01*
X648884D02*
X650883D01*
X649884D01*
Y-148497D01*
X648884D01*
X656881Y-154495D02*
X654882D01*
X653882Y-153495D01*
Y-151496D01*
X654882Y-150496D01*
X656881D01*
X657881Y-151496D01*
Y-152496D01*
X653882D01*
X659880Y-154495D02*
Y-150496D01*
X662880D01*
X663879Y-151496D01*
Y-154495D01*
X667878Y-156494D02*
X668878D01*
X669877Y-155494D01*
Y-150496D01*
X666878D01*
X665878Y-151496D01*
Y-153495D01*
X666878Y-154495D01*
X669877D01*
X672876Y-149496D02*
Y-150496D01*
X671877D01*
X673876D01*
X672876D01*
Y-153495D01*
X673876Y-154495D01*
X676875Y-148497D02*
Y-154495D01*
Y-151496D01*
X677875Y-150496D01*
X679874D01*
X680874Y-151496D01*
Y-154495D01*
X689871Y-150496D02*
X691870D01*
X692870Y-151496D01*
Y-154495D01*
X689871D01*
X688871Y-153495D01*
X689871Y-152496D01*
X692870D01*
X694869Y-154495D02*
X697868D01*
X698868Y-153495D01*
X697868Y-152496D01*
X695869D01*
X694869Y-151496D01*
X695869Y-150496D01*
X698868D01*
X710864Y-148497D02*
Y-154495D01*
X707865D01*
X706865Y-153495D01*
Y-151496D01*
X707865Y-150496D01*
X710864D01*
X715862Y-154495D02*
X713863D01*
X712863Y-153495D01*
Y-151496D01*
X713863Y-150496D01*
X715862D01*
X716862Y-151496D01*
Y-152496D01*
X712863D01*
X719861Y-154495D02*
Y-149496D01*
Y-151496D01*
X718861D01*
X720861D01*
X719861D01*
Y-149496D01*
X720861Y-148497D01*
X723860Y-154495D02*
X725859D01*
X724859D01*
Y-150496D01*
X723860D01*
X728858Y-154495D02*
Y-150496D01*
X731857D01*
X732857Y-151496D01*
Y-154495D01*
X737855D02*
X735856D01*
X734856Y-153495D01*
Y-151496D01*
X735856Y-150496D01*
X737855D01*
X738855Y-151496D01*
Y-152496D01*
X734856D01*
X744853Y-148497D02*
Y-154495D01*
X741854D01*
X740854Y-153495D01*
Y-151496D01*
X741854Y-150496D01*
X744853D01*
X752850Y-154495D02*
X754850D01*
X753850D01*
Y-150496D01*
X752850D01*
X757849Y-154495D02*
Y-150496D01*
X760848D01*
X761847Y-151496D01*
Y-154495D01*
X770845Y-149496D02*
Y-150496D01*
X769845D01*
X771844D01*
X770845D01*
Y-153495D01*
X771844Y-154495D01*
X774843Y-148497D02*
Y-154495D01*
Y-151496D01*
X775843Y-150496D01*
X777842D01*
X778842Y-151496D01*
Y-154495D01*
X783840D02*
X781841D01*
X780841Y-153495D01*
Y-151496D01*
X781841Y-150496D01*
X783840D01*
X784840Y-151496D01*
Y-152496D01*
X780841D01*
X792837Y-154495D02*
Y-148497D01*
X795836D01*
X796836Y-149496D01*
Y-151496D01*
X795836Y-152496D01*
X792837D01*
X802834Y-149496D02*
X801834Y-148497D01*
X799835D01*
X798836Y-149496D01*
Y-153495D01*
X799835Y-154495D01*
X801834D01*
X802834Y-153495D01*
X804834Y-148497D02*
Y-154495D01*
X807833D01*
X808832Y-153495D01*
Y-152496D01*
X807833Y-151496D01*
X804834D01*
X807833D01*
X808832Y-150496D01*
Y-149496D01*
X807833Y-148497D01*
X804834D01*
X816830Y-154495D02*
X818829D01*
X817829D01*
Y-148497D01*
X816830D01*
X822828Y-150496D02*
X824827D01*
X825827Y-151496D01*
Y-154495D01*
X822828D01*
X821828Y-153495D01*
X822828Y-152496D01*
X825827D01*
X827826Y-150496D02*
Y-153495D01*
X828826Y-154495D01*
X831825D01*
Y-155494D01*
X830825Y-156494D01*
X829825D01*
X831825Y-154495D02*
Y-150496D01*
X834824Y-154495D02*
X836823D01*
X837823Y-153495D01*
Y-151496D01*
X836823Y-150496D01*
X834824D01*
X833824Y-151496D01*
Y-153495D01*
X834824Y-154495D01*
X839822Y-150496D02*
Y-153495D01*
X840822Y-154495D01*
X843821D01*
Y-150496D01*
X846820Y-149496D02*
Y-150496D01*
X845820D01*
X847820D01*
X846820D01*
Y-153495D01*
X847820Y-154495D01*
X450948Y-142498D02*
X454947D01*
X450948Y-140499D02*
X454947D01*
X466943Y-139499D02*
X465943Y-138499D01*
X463944D01*
X462944Y-139499D01*
Y-143498D01*
X463944Y-144497D01*
X465943D01*
X466943Y-143498D01*
X469942Y-140499D02*
X471941D01*
X472941Y-141498D01*
Y-144497D01*
X469942D01*
X468942Y-143498D01*
X469942Y-142498D01*
X472941D01*
X474940Y-144497D02*
X476940D01*
X475940D01*
Y-138499D01*
X474940D01*
X483937Y-140499D02*
X480938D01*
X479939Y-141498D01*
Y-143498D01*
X480938Y-144497D01*
X483937D01*
X485937Y-140499D02*
Y-143498D01*
X486936Y-144497D01*
X489935D01*
Y-140499D01*
X491935Y-144497D02*
X493934D01*
X492935D01*
Y-138499D01*
X491935D01*
X497933Y-140499D02*
X499932D01*
X500932Y-141498D01*
Y-144497D01*
X497933D01*
X496933Y-143498D01*
X497933Y-142498D01*
X500932D01*
X503931Y-139499D02*
Y-140499D01*
X502931D01*
X504931D01*
X503931D01*
Y-143498D01*
X504931Y-144497D01*
X510929D02*
X508929D01*
X507930Y-143498D01*
Y-141498D01*
X508929Y-140499D01*
X510929D01*
X511928Y-141498D01*
Y-142498D01*
X507930D01*
X517926Y-138499D02*
Y-144497D01*
X514927D01*
X513928Y-143498D01*
Y-141498D01*
X514927Y-140499D01*
X517926D01*
X526924Y-144497D02*
Y-139499D01*
Y-141498D01*
X525924D01*
X527923D01*
X526924D01*
Y-139499D01*
X527923Y-138499D01*
X530922Y-140499D02*
Y-144497D01*
Y-142498D01*
X531922Y-141498D01*
X532922Y-140499D01*
X533921D01*
X537920Y-144497D02*
X539919D01*
X540919Y-143498D01*
Y-141498D01*
X539919Y-140499D01*
X537920D01*
X536920Y-141498D01*
Y-143498D01*
X537920Y-144497D01*
X542918D02*
Y-140499D01*
X543918D01*
X544918Y-141498D01*
Y-144497D01*
Y-141498D01*
X545917Y-140499D01*
X546917Y-141498D01*
Y-144497D01*
X555914Y-139499D02*
Y-140499D01*
X554914D01*
X556914D01*
X555914D01*
Y-143498D01*
X556914Y-144497D01*
X560913D02*
X562912D01*
X563911Y-143498D01*
Y-141498D01*
X562912Y-140499D01*
X560913D01*
X559913Y-141498D01*
Y-143498D01*
X560913Y-144497D01*
X566911D02*
X568910D01*
X569910Y-143498D01*
Y-141498D01*
X568910Y-140499D01*
X566911D01*
X565911Y-141498D01*
Y-143498D01*
X566911Y-144497D01*
X571909D02*
X573908D01*
X572909D01*
Y-138499D01*
X571909D01*
X582905Y-144497D02*
X585904D01*
X586904Y-143498D01*
X585904Y-142498D01*
X583905D01*
X582905Y-141498D01*
X583905Y-140499D01*
X586904D01*
X589903Y-139499D02*
Y-140499D01*
X588903D01*
X590903D01*
X589903D01*
Y-143498D01*
X590903Y-144497D01*
X594902Y-140499D02*
X596901D01*
X597900Y-141498D01*
Y-144497D01*
X594902D01*
X593902Y-143498D01*
X594902Y-142498D01*
X597900D01*
X599900Y-140499D02*
Y-144497D01*
Y-142498D01*
X600900Y-141498D01*
X601899Y-140499D01*
X602899D01*
X606898Y-139499D02*
Y-140499D01*
X605898D01*
X607897D01*
X606898D01*
Y-143498D01*
X607897Y-144497D01*
X620893Y-140499D02*
X617894D01*
X616894Y-141498D01*
Y-143498D01*
X617894Y-144497D01*
X620893D01*
X625891D02*
X623892D01*
X622892Y-143498D01*
Y-141498D01*
X623892Y-140499D01*
X625891D01*
X626891Y-141498D01*
Y-142498D01*
X622892D01*
X628891Y-144497D02*
Y-140499D01*
X631889D01*
X632889Y-141498D01*
Y-144497D01*
X635888Y-139499D02*
Y-140499D01*
X634889D01*
X636888D01*
X635888D01*
Y-143498D01*
X636888Y-144497D01*
X639887Y-140499D02*
Y-144497D01*
Y-142498D01*
X640887Y-141498D01*
X641886Y-140499D01*
X642886D01*
X648884Y-144497D02*
X646885D01*
X645885Y-143498D01*
Y-141498D01*
X646885Y-140499D01*
X648884D01*
X649884Y-141498D01*
Y-142498D01*
X645885D01*
X657881Y-146497D02*
Y-140499D01*
X660880D01*
X661880Y-141498D01*
Y-143498D01*
X660880Y-144497D01*
X657881D01*
X664879D02*
X666878D01*
X667878Y-143498D01*
Y-141498D01*
X666878Y-140499D01*
X664879D01*
X663879Y-141498D01*
Y-143498D01*
X664879Y-144497D01*
X669877D02*
X672876D01*
X673876Y-143498D01*
X672876Y-142498D01*
X670877D01*
X669877Y-141498D01*
X670877Y-140499D01*
X673876D01*
X675875Y-144497D02*
X677875D01*
X676875D01*
Y-140499D01*
X675875D01*
X681873Y-139499D02*
Y-140499D01*
X680874D01*
X682873D01*
X681873D01*
Y-143498D01*
X682873Y-144497D01*
X685872D02*
X687871D01*
X686872D01*
Y-140499D01*
X685872D01*
X691870Y-144497D02*
X693869D01*
X694869Y-143498D01*
Y-141498D01*
X693869Y-140499D01*
X691870D01*
X690870Y-141498D01*
Y-143498D01*
X691870Y-144497D01*
X696869D02*
Y-140499D01*
X699867D01*
X700867Y-141498D01*
Y-144497D01*
X709864Y-139499D02*
Y-140499D01*
X708865D01*
X710864D01*
X709864D01*
Y-143498D01*
X710864Y-144497D01*
X714863D02*
X716862D01*
X717862Y-143498D01*
Y-141498D01*
X716862Y-140499D01*
X714863D01*
X713863Y-141498D01*
Y-143498D01*
X714863Y-144497D01*
X726859Y-139499D02*
Y-140499D01*
X725859D01*
X727858D01*
X726859D01*
Y-143498D01*
X727858Y-144497D01*
X731857D02*
X733856D01*
X734856Y-143498D01*
Y-141498D01*
X733856Y-140499D01*
X731857D01*
X730858Y-141498D01*
Y-143498D01*
X731857Y-144497D01*
X737855D02*
X739855D01*
X740854Y-143498D01*
Y-141498D01*
X739855Y-140499D01*
X737855D01*
X736856Y-141498D01*
Y-143498D01*
X737855Y-144497D01*
X742854D02*
X744853D01*
X743853D01*
Y-138499D01*
X742854D01*
X756849Y-144497D02*
X754850D01*
X753850Y-143498D01*
Y-141498D01*
X754850Y-140499D01*
X756849D01*
X757849Y-141498D01*
Y-142498D01*
X753850D01*
X759848Y-144497D02*
Y-140499D01*
X762847D01*
X763847Y-141498D01*
Y-144497D01*
X769845Y-138499D02*
Y-144497D01*
X766846D01*
X765846Y-143498D01*
Y-141498D01*
X766846Y-140499D01*
X769845D01*
X781841D02*
X778842D01*
X777842Y-141498D01*
Y-143498D01*
X778842Y-144497D01*
X781841D01*
X786839D02*
X784840D01*
X783840Y-143498D01*
Y-141498D01*
X784840Y-140499D01*
X786839D01*
X787839Y-141498D01*
Y-142498D01*
X783840D01*
X789838Y-144497D02*
Y-140499D01*
X792837D01*
X793837Y-141498D01*
Y-144497D01*
X796836Y-139499D02*
Y-140499D01*
X795836D01*
X797836D01*
X796836D01*
Y-143498D01*
X797836Y-144497D01*
X800835Y-140499D02*
Y-144497D01*
Y-142498D01*
X801834Y-141498D01*
X802834Y-140499D01*
X803834D01*
X809832Y-144497D02*
X807833D01*
X806833Y-143498D01*
Y-141498D01*
X807833Y-140499D01*
X809832D01*
X810832Y-141498D01*
Y-142498D01*
X806833D01*
X818829Y-146497D02*
Y-140499D01*
X821828D01*
X822828Y-141498D01*
Y-143498D01*
X821828Y-144497D01*
X818829D01*
X825827D02*
X827826D01*
X828826Y-143498D01*
Y-141498D01*
X827826Y-140499D01*
X825827D01*
X824827Y-141498D01*
Y-143498D01*
X825827Y-144497D01*
X830825D02*
X833824D01*
X834824Y-143498D01*
X833824Y-142498D01*
X831825D01*
X830825Y-141498D01*
X831825Y-140499D01*
X834824D01*
X836823Y-144497D02*
X838823D01*
X837823D01*
Y-140499D01*
X836823D01*
X842821Y-139499D02*
Y-140499D01*
X841822D01*
X843821D01*
X842821D01*
Y-143498D01*
X843821Y-144497D01*
X846820D02*
X848819D01*
X847820D01*
Y-140499D01*
X846820D01*
X852818Y-144497D02*
X854817D01*
X855817Y-143498D01*
Y-141498D01*
X854817Y-140499D01*
X852818D01*
X851818Y-141498D01*
Y-143498D01*
X852818Y-144497D01*
X857816D02*
Y-140499D01*
X860815D01*
X861815Y-141498D01*
Y-144497D01*
X863815D02*
Y-143498D01*
X864814D01*
Y-144497D01*
X863815D01*
X236509Y85748D02*
Y79750D01*
X240507D01*
X243507Y83749D02*
X245506D01*
X246505Y82749D01*
Y79750D01*
X243507D01*
X242507Y80750D01*
X243507Y81749D01*
X246505D01*
X248505Y83749D02*
Y80750D01*
X249504Y79750D01*
X252504D01*
Y78750D01*
X251504Y77751D01*
X250504D01*
X252504Y79750D02*
Y83749D01*
X257502Y79750D02*
X255503D01*
X254503Y80750D01*
Y82749D01*
X255503Y83749D01*
X257502D01*
X258502Y82749D01*
Y81749D01*
X254503D01*
X260501Y83749D02*
Y79750D01*
Y81749D01*
X261501Y82749D01*
X262500Y83749D01*
X263500D01*
X240507Y19750D02*
X236509D01*
X240507Y23749D01*
Y24748D01*
X239508Y25748D01*
X237508D01*
X236509Y24748D01*
Y43750D02*
X238508D01*
X237508D01*
Y49748D01*
X236509Y48748D01*
X277500Y79750D02*
Y85748D01*
X281499Y79750D01*
Y85748D01*
X284498Y83749D02*
X286497D01*
X287497Y82749D01*
Y79750D01*
X284498D01*
X283498Y80750D01*
X284498Y81749D01*
X287497D01*
X289496Y79750D02*
Y83749D01*
X290496D01*
X291495Y82749D01*
Y79750D01*
Y82749D01*
X292495Y83749D01*
X293495Y82749D01*
Y79750D01*
X298493D02*
X296494D01*
X295494Y80750D01*
Y82749D01*
X296494Y83749D01*
X298493D01*
X299493Y82749D01*
Y81749D01*
X295494D01*
X277500Y1748D02*
Y-4250D01*
X280499D01*
X281499Y-3250D01*
Y-2251D01*
X280499Y-1251D01*
X277500D01*
X280499D01*
X281499Y-251D01*
Y748D01*
X280499Y1748D01*
X277500D01*
X284498Y-4250D02*
X286497D01*
X287497Y-3250D01*
Y-1251D01*
X286497Y-251D01*
X284498D01*
X283498Y-1251D01*
Y-3250D01*
X284498Y-4250D01*
X290496Y748D02*
Y-251D01*
X289496D01*
X291495D01*
X290496D01*
Y-3250D01*
X291495Y-4250D01*
X295494Y748D02*
Y-251D01*
X294495D01*
X296494D01*
X295494D01*
Y-3250D01*
X296494Y-4250D01*
X300493D02*
X302492D01*
X303492Y-3250D01*
Y-1251D01*
X302492Y-251D01*
X300493D01*
X299493Y-1251D01*
Y-3250D01*
X300493Y-4250D01*
X305491D02*
Y-251D01*
X306491D01*
X307490Y-1251D01*
Y-4250D01*
Y-1251D01*
X308490Y-251D01*
X309490Y-1251D01*
Y-4250D01*
X320486Y1748D02*
X318487D01*
X317487Y748D01*
Y-3250D01*
X318487Y-4250D01*
X320486D01*
X321486Y-3250D01*
Y748D01*
X320486Y1748D01*
X323485Y-251D02*
X325484Y-4250D01*
X327484Y-251D01*
X332482Y-4250D02*
X330483D01*
X329483Y-3250D01*
Y-1251D01*
X330483Y-251D01*
X332482D01*
X333482Y-1251D01*
Y-2251D01*
X329483D01*
X335481Y-251D02*
Y-4250D01*
Y-2251D01*
X336481Y-1251D01*
X337481Y-251D01*
X338480D01*
X341479Y-4250D02*
X343479D01*
X342479D01*
Y1748D01*
X341479D01*
X347477Y-251D02*
X349477D01*
X350476Y-1251D01*
Y-4250D01*
X347477D01*
X346478Y-3250D01*
X347477Y-2251D01*
X350476D01*
X352476Y-251D02*
Y-3250D01*
X353475Y-4250D01*
X356474D01*
Y-5250D01*
X355475Y-6249D01*
X354475D01*
X356474Y-4250D02*
Y-251D01*
X277500Y13748D02*
Y7750D01*
X280499D01*
X281499Y8750D01*
Y9749D01*
X280499Y10749D01*
X277500D01*
X280499D01*
X281499Y11749D01*
Y12748D01*
X280499Y13748D01*
X277500D01*
X284498Y7750D02*
X286497D01*
X287497Y8750D01*
Y10749D01*
X286497Y11749D01*
X284498D01*
X283498Y10749D01*
Y8750D01*
X284498Y7750D01*
X290496Y12748D02*
Y11749D01*
X289496D01*
X291495D01*
X290496D01*
Y8750D01*
X291495Y7750D01*
X295494Y12748D02*
Y11749D01*
X294495D01*
X296494D01*
X295494D01*
Y8750D01*
X296494Y7750D01*
X300493D02*
X302492D01*
X303492Y8750D01*
Y10749D01*
X302492Y11749D01*
X300493D01*
X299493Y10749D01*
Y8750D01*
X300493Y7750D01*
X305491D02*
Y11749D01*
X306491D01*
X307490Y10749D01*
Y7750D01*
Y10749D01*
X308490Y11749D01*
X309490Y10749D01*
Y7750D01*
X321486Y12748D02*
X320486Y13748D01*
X318487D01*
X317487Y12748D01*
Y11749D01*
X318487Y10749D01*
X320486D01*
X321486Y9749D01*
Y8750D01*
X320486Y7750D01*
X318487D01*
X317487Y8750D01*
X324485Y7750D02*
X326484D01*
X327484Y8750D01*
Y10749D01*
X326484Y11749D01*
X324485D01*
X323485Y10749D01*
Y8750D01*
X324485Y7750D01*
X329483D02*
X331483D01*
X330483D01*
Y13748D01*
X329483D01*
X338480D02*
Y7750D01*
X335481D01*
X334482Y8750D01*
Y10749D01*
X335481Y11749D01*
X338480D01*
X343479Y7750D02*
X341479D01*
X340480Y8750D01*
Y10749D01*
X341479Y11749D01*
X343479D01*
X344478Y10749D01*
Y9749D01*
X340480D01*
X346478Y11749D02*
Y7750D01*
Y9749D01*
X347477Y10749D01*
X348477Y11749D01*
X349477D01*
X277500Y25748D02*
Y19750D01*
X280499D01*
X281499Y20750D01*
Y21749D01*
X280499Y22749D01*
X277500D01*
X280499D01*
X281499Y23749D01*
Y24748D01*
X280499Y25748D01*
X277500D01*
X284498Y19750D02*
X286497D01*
X287497Y20750D01*
Y22749D01*
X286497Y23749D01*
X284498D01*
X283498Y22749D01*
Y20750D01*
X284498Y19750D01*
X290496Y24748D02*
Y23749D01*
X289496D01*
X291495D01*
X290496D01*
Y20750D01*
X291495Y19750D01*
X295494Y24748D02*
Y23749D01*
X294495D01*
X296494D01*
X295494D01*
Y20750D01*
X296494Y19750D01*
X300493D02*
X302492D01*
X303492Y20750D01*
Y22749D01*
X302492Y23749D01*
X300493D01*
X299493Y22749D01*
Y20750D01*
X300493Y19750D01*
X305491D02*
Y23749D01*
X306491D01*
X307490Y22749D01*
Y19750D01*
Y22749D01*
X308490Y23749D01*
X309490Y22749D01*
Y19750D01*
X317487Y25748D02*
Y19750D01*
X321486D01*
X324485Y23749D02*
X326484D01*
X327484Y22749D01*
Y19750D01*
X324485D01*
X323485Y20750D01*
X324485Y21749D01*
X327484D01*
X329483Y23749D02*
Y20750D01*
X330483Y19750D01*
X333482D01*
Y18750D01*
X332482Y17751D01*
X331483D01*
X333482Y19750D02*
Y23749D01*
X338480Y19750D02*
X336481D01*
X335481Y20750D01*
Y22749D01*
X336481Y23749D01*
X338480D01*
X339480Y22749D01*
Y21749D01*
X335481D01*
X341479Y23749D02*
Y19750D01*
Y21749D01*
X342479Y22749D01*
X343479Y23749D01*
X344478D01*
X277500Y37748D02*
Y31750D01*
X280499D01*
X281499Y32750D01*
Y36748D01*
X280499Y37748D01*
X277500D01*
X283498Y31750D02*
X285497D01*
X284498D01*
Y35749D01*
X283498D01*
X291495Y31750D02*
X289496D01*
X288496Y32750D01*
Y34749D01*
X289496Y35749D01*
X291495D01*
X292495Y34749D01*
Y33749D01*
X288496D01*
X294495Y31750D02*
X296494D01*
X295494D01*
Y37748D01*
X294495D01*
X302492Y31750D02*
X300493D01*
X299493Y32750D01*
Y34749D01*
X300493Y35749D01*
X302492D01*
X303492Y34749D01*
Y33749D01*
X299493D01*
X309490Y35749D02*
X306491D01*
X305491Y34749D01*
Y32750D01*
X306491Y31750D01*
X309490D01*
X312489Y36748D02*
Y35749D01*
X311489D01*
X313488D01*
X312489D01*
Y32750D01*
X313488Y31750D01*
X316487Y35749D02*
Y31750D01*
Y33749D01*
X317487Y34749D01*
X318487Y35749D01*
X319486D01*
X322485Y31750D02*
X324485D01*
X323485D01*
Y35749D01*
X322485D01*
X331483D02*
X328484D01*
X327484Y34749D01*
Y32750D01*
X328484Y31750D01*
X331483D01*
X339480D02*
X341479D01*
X340480D01*
Y37748D01*
X339480Y36748D01*
X277500Y49748D02*
X281499D01*
X279499D01*
Y43750D01*
X284498D02*
X286497D01*
X287497Y44750D01*
Y46749D01*
X286497Y47749D01*
X284498D01*
X283498Y46749D01*
Y44750D01*
X284498Y43750D01*
X289496Y41751D02*
Y47749D01*
X292495D01*
X293495Y46749D01*
Y44750D01*
X292495Y43750D01*
X289496D01*
X301492Y49748D02*
Y43750D01*
X305491D01*
X308490Y47749D02*
X310489D01*
X311489Y46749D01*
Y43750D01*
X308490D01*
X307490Y44750D01*
X308490Y45749D01*
X311489D01*
X313488Y47749D02*
Y44750D01*
X314488Y43750D01*
X317487D01*
Y42750D01*
X316487Y41751D01*
X315488D01*
X317487Y43750D02*
Y47749D01*
X322485Y43750D02*
X320486D01*
X319486Y44750D01*
Y46749D01*
X320486Y47749D01*
X322485D01*
X323485Y46749D01*
Y45749D01*
X319486D01*
X325484Y47749D02*
Y43750D01*
Y45749D01*
X326484Y46749D01*
X327484Y47749D01*
X328484D01*
X277500Y61748D02*
X281499D01*
X279499D01*
Y55750D01*
X284498D02*
X286497D01*
X287497Y56750D01*
Y58749D01*
X286497Y59749D01*
X284498D01*
X283498Y58749D01*
Y56750D01*
X284498Y55750D01*
X289496Y53751D02*
Y59749D01*
X292495D01*
X293495Y58749D01*
Y56750D01*
X292495Y55750D01*
X289496D01*
X305491Y60748D02*
X304491Y61748D01*
X302492D01*
X301492Y60748D01*
Y59749D01*
X302492Y58749D01*
X304491D01*
X305491Y57749D01*
Y56750D01*
X304491Y55750D01*
X302492D01*
X301492Y56750D01*
X308490Y55750D02*
X310489D01*
X311489Y56750D01*
Y58749D01*
X310489Y59749D01*
X308490D01*
X307490Y58749D01*
Y56750D01*
X308490Y55750D01*
X313488D02*
X315488D01*
X314488D01*
Y61748D01*
X313488D01*
X322485D02*
Y55750D01*
X319486D01*
X318487Y56750D01*
Y58749D01*
X319486Y59749D01*
X322485D01*
X327484Y55750D02*
X325484D01*
X324485Y56750D01*
Y58749D01*
X325484Y59749D01*
X327484D01*
X328484Y58749D01*
Y57749D01*
X324485D01*
X330483Y59749D02*
Y55750D01*
Y57749D01*
X331483Y58749D01*
X332482Y59749D01*
X333482D01*
X277500Y73748D02*
X281499D01*
X279499D01*
Y67750D01*
X284498D02*
X286497D01*
X287497Y68750D01*
Y70749D01*
X286497Y71749D01*
X284498D01*
X283498Y70749D01*
Y68750D01*
X284498Y67750D01*
X289496Y65751D02*
Y71749D01*
X292495D01*
X293495Y70749D01*
Y68750D01*
X292495Y67750D01*
X289496D01*
X304491Y73748D02*
X302492D01*
X301492Y72748D01*
Y68750D01*
X302492Y67750D01*
X304491D01*
X305491Y68750D01*
Y72748D01*
X304491Y73748D01*
X307490Y71749D02*
X309490Y67750D01*
X311489Y71749D01*
X316487Y67750D02*
X314488D01*
X313488Y68750D01*
Y70749D01*
X314488Y71749D01*
X316487D01*
X317487Y70749D01*
Y69749D01*
X313488D01*
X319486Y71749D02*
Y67750D01*
Y69749D01*
X320486Y70749D01*
X321486Y71749D01*
X322485D01*
X325484Y67750D02*
X327484D01*
X326484D01*
Y73748D01*
X325484D01*
X331483Y71749D02*
X333482D01*
X334482Y70749D01*
Y67750D01*
X331483D01*
X330483Y68750D01*
X331483Y69749D01*
X334482D01*
X336481Y71749D02*
Y68750D01*
X337481Y67750D01*
X340480D01*
Y66750D01*
X339480Y65751D01*
X338480D01*
X340480Y67750D02*
Y71749D01*
X370474Y79750D02*
Y85748D01*
X372474Y83749D01*
X374473Y85748D01*
Y79750D01*
X377472Y83749D02*
X379471D01*
X380471Y82749D01*
Y79750D01*
X377472D01*
X376472Y80750D01*
X377472Y81749D01*
X380471D01*
X383470Y84748D02*
Y83749D01*
X382471D01*
X384470D01*
X383470D01*
Y80750D01*
X384470Y79750D01*
X390468D02*
X388469D01*
X387469Y80750D01*
Y82749D01*
X388469Y83749D01*
X390468D01*
X391468Y82749D01*
Y81749D01*
X387469D01*
X393467Y83749D02*
Y79750D01*
Y81749D01*
X394467Y82749D01*
X395466Y83749D01*
X396466D01*
X399465Y79750D02*
X401464D01*
X400465D01*
Y83749D01*
X399465D01*
X405463D02*
X407463D01*
X408462Y82749D01*
Y79750D01*
X405463D01*
X404463Y80750D01*
X405463Y81749D01*
X408462D01*
X410462Y79750D02*
X412461D01*
X411461D01*
Y85748D01*
X410462D01*
X374473Y12748D02*
X373474Y13748D01*
X371474D01*
X370474Y12748D01*
Y11749D01*
X371474Y10749D01*
X373474D01*
X374473Y9749D01*
Y8750D01*
X373474Y7750D01*
X371474D01*
X370474Y8750D01*
X377472Y7750D02*
X379471D01*
X380471Y8750D01*
Y10749D01*
X379471Y11749D01*
X377472D01*
X376472Y10749D01*
Y8750D01*
X377472Y7750D01*
X382471D02*
X384470D01*
X383470D01*
Y13748D01*
X382471D01*
X391468D02*
Y7750D01*
X388469D01*
X387469Y8750D01*
Y10749D01*
X388469Y11749D01*
X391468D01*
X396466Y7750D02*
X394467D01*
X393467Y8750D01*
Y10749D01*
X394467Y11749D01*
X396466D01*
X397466Y10749D01*
Y9749D01*
X393467D01*
X399465Y11749D02*
Y7750D01*
Y9749D01*
X400465Y10749D01*
X401464Y11749D01*
X402464D01*
X411461Y7750D02*
Y13748D01*
X414460D01*
X415460Y12748D01*
Y10749D01*
X414460Y9749D01*
X411461D01*
X413460D02*
X415460Y7750D01*
X420458D02*
X418459D01*
X417459Y8750D01*
Y10749D01*
X418459Y11749D01*
X420458D01*
X421458Y10749D01*
Y9749D01*
X417459D01*
X423457Y7750D02*
X426456D01*
X427456Y8750D01*
X426456Y9749D01*
X424457D01*
X423457Y10749D01*
X424457Y11749D01*
X427456D01*
X429455Y7750D02*
X431455D01*
X430455D01*
Y11749D01*
X429455D01*
X434454Y7750D02*
X437453D01*
X438452Y8750D01*
X437453Y9749D01*
X435453D01*
X434454Y10749D01*
X435453Y11749D01*
X438452D01*
X441452Y12748D02*
Y11749D01*
X440452D01*
X442451D01*
X441452D01*
Y8750D01*
X442451Y7750D01*
X374473Y37748D02*
X370474D01*
Y34749D01*
X372474D01*
X370474D01*
Y31750D01*
X376472D02*
Y37748D01*
X379471D01*
X380471Y36748D01*
Y34749D01*
X379471Y33749D01*
X376472D01*
X378472D02*
X380471Y31750D01*
X382471Y34749D02*
X386469D01*
X391468Y31750D02*
Y37748D01*
X388469Y34749D01*
X392467D01*
X374473Y60748D02*
X373474Y61748D01*
X371474D01*
X370474Y60748D01*
Y59749D01*
X371474Y58749D01*
X373474D01*
X374473Y57749D01*
Y56750D01*
X373474Y55750D01*
X371474D01*
X370474Y56750D01*
X377472Y55750D02*
X379471D01*
X380471Y56750D01*
Y58749D01*
X379471Y59749D01*
X377472D01*
X376472Y58749D01*
Y56750D01*
X377472Y55750D01*
X382471D02*
X384470D01*
X383470D01*
Y61748D01*
X382471D01*
X391468D02*
Y55750D01*
X388469D01*
X387469Y56750D01*
Y58749D01*
X388469Y59749D01*
X391468D01*
X396466Y55750D02*
X394467D01*
X393467Y56750D01*
Y58749D01*
X394467Y59749D01*
X396466D01*
X397466Y58749D01*
Y57749D01*
X393467D01*
X399465Y59749D02*
Y55750D01*
Y57749D01*
X400465Y58749D01*
X401464Y59749D01*
X402464D01*
X411461Y55750D02*
Y61748D01*
X414460D01*
X415460Y60748D01*
Y58749D01*
X414460Y57749D01*
X411461D01*
X413460D02*
X415460Y55750D01*
X420458D02*
X418459D01*
X417459Y56750D01*
Y58749D01*
X418459Y59749D01*
X420458D01*
X421458Y58749D01*
Y57749D01*
X417459D01*
X423457Y55750D02*
X426456D01*
X427456Y56750D01*
X426456Y57749D01*
X424457D01*
X423457Y58749D01*
X424457Y59749D01*
X427456D01*
X429455Y55750D02*
X431455D01*
X430455D01*
Y59749D01*
X429455D01*
X434454Y55750D02*
X437453D01*
X438452Y56750D01*
X437453Y57749D01*
X435453D01*
X434454Y58749D01*
X435453Y59749D01*
X438452D01*
X441452Y60748D02*
Y59749D01*
X440452D01*
X442451D01*
X441452D01*
Y56750D01*
X442451Y55750D01*
X456451Y85748D02*
X460450D01*
X458451D01*
Y79750D01*
X462449Y85748D02*
Y79750D01*
Y82749D01*
X463449Y83749D01*
X465448D01*
X466448Y82749D01*
Y79750D01*
X468447D02*
X470447D01*
X469447D01*
Y83749D01*
X468447D01*
X477444D02*
X474445D01*
X473446Y82749D01*
Y80750D01*
X474445Y79750D01*
X477444D01*
X479444D02*
Y85748D01*
Y81749D02*
X482443Y83749D01*
X479444Y81749D02*
X482443Y79750D01*
X485442D02*
Y83749D01*
X488441D01*
X489440Y82749D01*
Y79750D01*
X494439D02*
X492440D01*
X491440Y80750D01*
Y82749D01*
X492440Y83749D01*
X494439D01*
X495439Y82749D01*
Y81749D01*
X491440D01*
X497438Y79750D02*
X500437D01*
X501437Y80750D01*
X500437Y81749D01*
X498438D01*
X497438Y82749D01*
X498438Y83749D01*
X501437D01*
X503436Y79750D02*
X506435D01*
X507435Y80750D01*
X506435Y81749D01*
X504436D01*
X503436Y82749D01*
X504436Y83749D01*
X507435D01*
X456451Y12748D02*
X457451Y13748D01*
X459450D01*
X460450Y12748D01*
Y8750D01*
X459450Y7750D01*
X457451D01*
X456451Y8750D01*
Y12748D01*
X462449Y7750D02*
Y8750D01*
X463449D01*
Y7750D01*
X462449D01*
X467448Y12748D02*
X468447Y13748D01*
X470447D01*
X471446Y12748D01*
Y8750D01*
X470447Y7750D01*
X468447D01*
X467448Y8750D01*
Y12748D01*
X473446Y7750D02*
X475445D01*
X474445D01*
Y13748D01*
X473446Y12748D01*
X478444D02*
X479444Y13748D01*
X481443D01*
X482443Y12748D01*
Y8750D01*
X481443Y7750D01*
X479444D01*
X478444Y8750D01*
Y12748D01*
X484442Y7750D02*
Y11749D01*
X485442D01*
X486441Y10749D01*
Y7750D01*
Y10749D01*
X487441Y11749D01*
X488441Y10749D01*
Y7750D01*
X490440D02*
Y11749D01*
X491440D01*
X492440Y10749D01*
Y7750D01*
Y10749D01*
X493439Y11749D01*
X494439Y10749D01*
Y7750D01*
X456451Y24748D02*
X457451Y25748D01*
X459450D01*
X460450Y24748D01*
Y20750D01*
X459450Y19750D01*
X457451D01*
X456451Y20750D01*
Y24748D01*
X462449Y19750D02*
Y20750D01*
X463449D01*
Y19750D01*
X462449D01*
X467448Y24748D02*
X468447Y25748D01*
X470447D01*
X471446Y24748D01*
Y20750D01*
X470447Y19750D01*
X468447D01*
X467448Y20750D01*
Y24748D01*
X473446D02*
X474445Y25748D01*
X476445D01*
X477444Y24748D01*
Y23749D01*
X476445Y22749D01*
X475445D01*
X476445D01*
X477444Y21749D01*
Y20750D01*
X476445Y19750D01*
X474445D01*
X473446Y20750D01*
X483442Y25748D02*
X481443Y24748D01*
X479444Y22749D01*
Y20750D01*
X480443Y19750D01*
X482443D01*
X483442Y20750D01*
Y21749D01*
X482443Y22749D01*
X479444D01*
X485442Y19750D02*
Y23749D01*
X486442D01*
X487441Y22749D01*
Y19750D01*
Y22749D01*
X488441Y23749D01*
X489440Y22749D01*
Y19750D01*
X491440D02*
Y23749D01*
X492440D01*
X493439Y22749D01*
Y19750D01*
Y22749D01*
X494439Y23749D01*
X495439Y22749D01*
Y19750D01*
X456451Y36748D02*
X457451Y37748D01*
X459450D01*
X460450Y36748D01*
Y32750D01*
X459450Y31750D01*
X457451D01*
X456451Y32750D01*
Y36748D01*
X462449Y31750D02*
Y32750D01*
X463449D01*
Y31750D01*
X462449D01*
X467448Y32750D02*
X468447Y31750D01*
X470447D01*
X471446Y32750D01*
Y36748D01*
X470447Y37748D01*
X468447D01*
X467448Y36748D01*
Y35749D01*
X468447Y34749D01*
X471446D01*
X473446Y36748D02*
X474445Y37748D01*
X476445D01*
X477444Y36748D01*
Y32750D01*
X476445Y31750D01*
X474445D01*
X473446Y32750D01*
Y36748D01*
X479444D02*
X480443Y37748D01*
X482443D01*
X483442Y36748D01*
Y32750D01*
X482443Y31750D01*
X480443D01*
X479444Y32750D01*
Y36748D01*
X485442Y31750D02*
Y35749D01*
X486442D01*
X487441Y34749D01*
Y31750D01*
Y34749D01*
X488441Y35749D01*
X489440Y34749D01*
Y31750D01*
X491440D02*
Y35749D01*
X492440D01*
X493439Y34749D01*
Y31750D01*
Y34749D01*
X494439Y35749D01*
X495439Y34749D01*
Y31750D01*
X456451Y48748D02*
X457451Y49748D01*
X459450D01*
X460450Y48748D01*
Y44750D01*
X459450Y43750D01*
X457451D01*
X456451Y44750D01*
Y48748D01*
X462449Y43750D02*
Y44750D01*
X463449D01*
Y43750D01*
X462449D01*
X467448Y48748D02*
X468447Y49748D01*
X470447D01*
X471446Y48748D01*
Y44750D01*
X470447Y43750D01*
X468447D01*
X467448Y44750D01*
Y48748D01*
X473446D02*
X474445Y49748D01*
X476445D01*
X477444Y48748D01*
Y47749D01*
X476445Y46749D01*
X475445D01*
X476445D01*
X477444Y45749D01*
Y44750D01*
X476445Y43750D01*
X474445D01*
X473446Y44750D01*
X483442Y49748D02*
X481443Y48748D01*
X479444Y46749D01*
Y44750D01*
X480443Y43750D01*
X482443D01*
X483442Y44750D01*
Y45749D01*
X482443Y46749D01*
X479444D01*
X485442Y43750D02*
Y47749D01*
X486442D01*
X487441Y46749D01*
Y43750D01*
Y46749D01*
X488441Y47749D01*
X489440Y46749D01*
Y43750D01*
X491440D02*
Y47749D01*
X492440D01*
X493439Y46749D01*
Y43750D01*
Y46749D01*
X494439Y47749D01*
X495439Y46749D01*
Y43750D01*
X456451Y60748D02*
X457451Y61748D01*
X459450D01*
X460450Y60748D01*
Y56750D01*
X459450Y55750D01*
X457451D01*
X456451Y56750D01*
Y60748D01*
X462449Y55750D02*
Y56750D01*
X463449D01*
Y55750D01*
X462449D01*
X467448Y60748D02*
X468447Y61748D01*
X470447D01*
X471446Y60748D01*
Y56750D01*
X470447Y55750D01*
X468447D01*
X467448Y56750D01*
Y60748D01*
X473446Y55750D02*
X475445D01*
X474445D01*
Y61748D01*
X473446Y60748D01*
X478444D02*
X479444Y61748D01*
X481443D01*
X482443Y60748D01*
Y56750D01*
X481443Y55750D01*
X479444D01*
X478444Y56750D01*
Y60748D01*
X484442Y55750D02*
Y59749D01*
X485442D01*
X486441Y58749D01*
Y55750D01*
Y58749D01*
X487441Y59749D01*
X488441Y58749D01*
Y55750D01*
X490440D02*
Y59749D01*
X491440D01*
X492440Y58749D01*
Y55750D01*
Y58749D01*
X493439Y59749D01*
X494439Y58749D01*
Y55750D01*
X525433Y84748D02*
X524434Y85748D01*
X522434D01*
X521435Y84748D01*
Y80750D01*
X522434Y79750D01*
X524434D01*
X525433Y80750D01*
X528432Y79750D02*
X530432D01*
X531431Y80750D01*
Y82749D01*
X530432Y83749D01*
X528432D01*
X527433Y82749D01*
Y80750D01*
X528432Y79750D01*
X533431D02*
Y83749D01*
X536430D01*
X537430Y82749D01*
Y79750D01*
X539429D02*
X542428D01*
X543428Y80750D01*
X542428Y81749D01*
X540428D01*
X539429Y82749D01*
X540428Y83749D01*
X543428D01*
X546427Y84748D02*
Y83749D01*
X545427D01*
X547426D01*
X546427D01*
Y80750D01*
X547426Y79750D01*
X551425Y83749D02*
X553424D01*
X554424Y82749D01*
Y79750D01*
X551425D01*
X550425Y80750D01*
X551425Y81749D01*
X554424D01*
X556423Y79750D02*
Y83749D01*
X559422D01*
X560422Y82749D01*
Y79750D01*
X563421Y84748D02*
Y83749D01*
X562421D01*
X564421D01*
X563421D01*
Y80750D01*
X564421Y79750D01*
X521435Y12748D02*
X522434Y13748D01*
X524434D01*
X525433Y12748D01*
Y11749D01*
X524434Y10749D01*
X523434D01*
X524434D01*
X525433Y9749D01*
Y8750D01*
X524434Y7750D01*
X522434D01*
X521435Y8750D01*
X527433Y7750D02*
Y8750D01*
X528432D01*
Y7750D01*
X527433D01*
X536430Y13748D02*
X532431D01*
Y10749D01*
X534431Y11749D01*
X535430D01*
X536430Y10749D01*
Y8750D01*
X535430Y7750D01*
X533431D01*
X532431Y8750D01*
X524434Y31750D02*
Y37748D01*
X521435Y34749D01*
X525433D01*
X527433Y31750D02*
Y32750D01*
X528432D01*
Y31750D01*
X527433D01*
X532431Y36748D02*
X533431Y37748D01*
X535430D01*
X536430Y36748D01*
Y35749D01*
X535430Y34749D01*
X536430Y33749D01*
Y32750D01*
X535430Y31750D01*
X533431D01*
X532431Y32750D01*
Y33749D01*
X533431Y34749D01*
X532431Y35749D01*
Y36748D01*
X533431Y34749D02*
X535430D01*
X521435Y60748D02*
X522434Y61748D01*
X524434D01*
X525433Y60748D01*
Y59749D01*
X524434Y58749D01*
X523434D01*
X524434D01*
X525433Y57749D01*
Y56750D01*
X524434Y55750D01*
X522434D01*
X521435Y56750D01*
X527433Y55750D02*
Y56750D01*
X528432D01*
Y55750D01*
X527433D01*
X536430Y61748D02*
X532431D01*
Y58749D01*
X534431Y59749D01*
X535430D01*
X536430Y58749D01*
Y56750D01*
X535430Y55750D01*
X533431D01*
X532431Y56750D01*
X578421Y85748D02*
Y79750D01*
X581420D01*
X582419Y80750D01*
Y81749D01*
X581420Y82749D01*
X578421D01*
X581420D01*
X582419Y83749D01*
Y84748D01*
X581420Y85748D01*
X578421D01*
X585419Y79750D02*
X587418D01*
X588417Y80750D01*
Y82749D01*
X587418Y83749D01*
X585419D01*
X584419Y82749D01*
Y80750D01*
X585419Y79750D01*
X591417Y83749D02*
X593416D01*
X594416Y82749D01*
Y79750D01*
X591417D01*
X590417Y80750D01*
X591417Y81749D01*
X594416D01*
X596415Y83749D02*
Y79750D01*
Y81749D01*
X597415Y82749D01*
X598414Y83749D01*
X599414D01*
X606412Y85748D02*
Y79750D01*
X603413D01*
X602413Y80750D01*
Y82749D01*
X603413Y83749D01*
X606412D01*
X614409Y85748D02*
Y79750D01*
X618408D01*
X621407Y83749D02*
X623406D01*
X624406Y82749D01*
Y79750D01*
X621407D01*
X620407Y80750D01*
X621407Y81749D01*
X624406D01*
X626405Y83749D02*
Y80750D01*
X627405Y79750D01*
X630404D01*
Y78750D01*
X629404Y77751D01*
X628405D01*
X630404Y79750D02*
Y83749D01*
X635402Y79750D02*
X633403D01*
X632403Y80750D01*
Y82749D01*
X633403Y83749D01*
X635402D01*
X636402Y82749D01*
Y81749D01*
X632403D01*
X638401Y83749D02*
Y79750D01*
Y81749D01*
X639401Y82749D01*
X640401Y83749D01*
X641400D01*
X654396Y84748D02*
X653397Y85748D01*
X651397D01*
X650397Y84748D01*
Y83749D01*
X651397Y82749D01*
X653397D01*
X654396Y81749D01*
Y80750D01*
X653397Y79750D01*
X651397D01*
X650397Y80750D01*
X657395Y84748D02*
Y83749D01*
X656395D01*
X658395D01*
X657395D01*
Y80750D01*
X658395Y79750D01*
X662394Y83749D02*
X664393D01*
X665393Y82749D01*
Y79750D01*
X662394D01*
X661394Y80750D01*
X662394Y81749D01*
X665393D01*
X671391Y83749D02*
X668392D01*
X667392Y82749D01*
Y80750D01*
X668392Y79750D01*
X671391D01*
X673390D02*
Y85748D01*
Y81749D02*
X676389Y83749D01*
X673390Y81749D02*
X676389Y79750D01*
X236509Y-10252D02*
X240507D01*
X238508D01*
Y-16250D01*
X243507D02*
X245506D01*
X246505Y-15250D01*
Y-13251D01*
X245506Y-12251D01*
X243507D01*
X242507Y-13251D01*
Y-15250D01*
X243507Y-16250D01*
X249504Y-11252D02*
Y-12251D01*
X248505D01*
X250504D01*
X249504D01*
Y-15250D01*
X250504Y-16250D01*
X254503Y-12251D02*
X256502D01*
X257502Y-13251D01*
Y-16250D01*
X254503D01*
X253503Y-15250D01*
X254503Y-14251D01*
X257502D01*
X259501Y-16250D02*
X261501D01*
X260501D01*
Y-10252D01*
X259501D01*
X270498D02*
Y-16250D01*
X273497D01*
X274496Y-15250D01*
Y-14251D01*
Y-13251D01*
X273497Y-12251D01*
X270498D01*
X277496Y-16250D02*
X279495D01*
X280494Y-15250D01*
Y-13251D01*
X279495Y-12251D01*
X277496D01*
X276496Y-13251D01*
Y-15250D01*
X277496Y-16250D01*
X283493Y-12251D02*
X285493D01*
X286493Y-13251D01*
Y-16250D01*
X283493D01*
X282494Y-15250D01*
X283493Y-14251D01*
X286493D01*
X288492Y-12251D02*
Y-16250D01*
Y-14251D01*
X289492Y-13251D01*
X290491Y-12251D01*
X291491D01*
X298489Y-10252D02*
Y-16250D01*
X295490D01*
X294490Y-15250D01*
Y-13251D01*
X295490Y-12251D01*
X298489D01*
X307486Y-11252D02*
Y-12251D01*
X306486D01*
X308485D01*
X307486D01*
Y-15250D01*
X308485Y-16250D01*
X311485Y-10252D02*
Y-16250D01*
Y-13251D01*
X312484Y-12251D01*
X314483D01*
X315483Y-13251D01*
Y-16250D01*
X317482D02*
X319482D01*
X318482D01*
Y-12251D01*
X317482D01*
X326480D02*
X323481D01*
X322481Y-13251D01*
Y-15250D01*
X323481Y-16250D01*
X326480D01*
X328479D02*
Y-10252D01*
Y-14251D02*
X331478Y-12251D01*
X328479Y-14251D02*
X331478Y-16250D01*
X334477D02*
Y-12251D01*
X337476D01*
X338476Y-13251D01*
Y-16250D01*
X343474D02*
X341475D01*
X340475Y-15250D01*
Y-13251D01*
X341475Y-12251D01*
X343474D01*
X344474Y-13251D01*
Y-14251D01*
X340475D01*
X346473Y-16250D02*
X349472D01*
X350472Y-15250D01*
X349472Y-14251D01*
X347473D01*
X346473Y-13251D01*
X347473Y-12251D01*
X350472D01*
X352471Y-16250D02*
X355470D01*
X356470Y-15250D01*
X355470Y-14251D01*
X353471D01*
X352471Y-13251D01*
X353471Y-12251D01*
X356470D01*
X358469D02*
X359469D01*
Y-13251D01*
X358469D01*
Y-12251D01*
Y-15250D02*
X359469D01*
Y-16250D01*
X358469D01*
Y-15250D01*
X456451Y-11252D02*
X457451Y-10252D01*
X459450D01*
X460450Y-11252D01*
Y-15250D01*
X459450Y-16250D01*
X457451D01*
X456451Y-15250D01*
Y-11252D01*
X462449Y-16250D02*
Y-15250D01*
X463449D01*
Y-16250D01*
X462449D01*
X467448Y-15250D02*
X468447Y-16250D01*
X470447D01*
X471446Y-15250D01*
Y-11252D01*
X470447Y-10252D01*
X468447D01*
X467448Y-11252D01*
Y-12251D01*
X468447Y-13251D01*
X471446D01*
X473446Y-15250D02*
X474445Y-16250D01*
X476445D01*
X477444Y-15250D01*
Y-11252D01*
X476445Y-10252D01*
X474445D01*
X473446Y-11252D01*
Y-12251D01*
X474445Y-13251D01*
X477444D01*
X479444Y-16250D02*
X481443D01*
X480443D01*
Y-10252D01*
X479444Y-11252D01*
X484442Y-16250D02*
Y-12251D01*
X485442D01*
X486441Y-13251D01*
Y-16250D01*
Y-13251D01*
X487441Y-12251D01*
X488441Y-13251D01*
Y-16250D01*
X490440D02*
Y-12251D01*
X491440D01*
X492440Y-13251D01*
Y-16250D01*
Y-13251D01*
X493439Y-12251D01*
X494439Y-13251D01*
Y-16250D01*
D17*
X80709Y-88583D02*
G03*
X88583Y-80709I0J7874D01*
G01*
X88583Y80709D02*
G03*
X80709Y88583I-7874J0D01*
G01*
X-80709Y88583D02*
G03*
X-88583Y80709I-0J-7874D01*
G01*
X-88583Y-80709D02*
G03*
X-80709Y-88583I7874J-0D01*
G01*
X80709D01*
X88583Y80709D02*
X88583Y-80709D01*
X-80709Y88583D02*
X80709Y88583D01*
X-88583Y-80709D02*
Y80709D01*
X103688Y-84646D02*
X105000Y-88583D01*
X106312Y-84646D01*
X105000Y88583D02*
X106312Y84646D01*
X103688D02*
X105000Y88583D01*
Y-88583D02*
Y-10653D01*
Y8653D02*
Y88583D01*
X81906Y-88583D02*
X106000D01*
X81906Y88583D02*
X106000D01*
X-88583Y-100500D02*
X-84646Y-99188D01*
X-88583Y-100500D02*
X-84646Y-101812D01*
X84646D02*
X88583Y-100500D01*
X84646Y-99188D02*
X88583Y-100500D01*
X-88583D02*
X-10653D01*
X8653D02*
X88583D01*
X-88583Y-101500D02*
Y-81906D01*
X88583Y-101500D02*
Y-81906D01*
D81*
X19187Y-44000D02*
G03*
X19187Y-44000I-1000J0D01*
G01*
X35938D02*
G03*
X35938Y-44000I-1000J0D01*
G01*
X53850Y-49150D02*
G03*
X53850Y-49150I-1000J0D01*
G01*
X24000Y-11000D02*
G03*
X24000Y-11000I-1000J0D01*
G01*
X62142Y-8858D02*
G03*
X62142Y-8858I-1000J0D01*
G01*
Y8858D02*
G03*
X62142Y8858I-1000J0D01*
G01*
X28350Y19850D02*
G03*
X28350Y19850I-1000J0D01*
G01*
X8000Y6500D02*
G03*
X8000Y6500I-1000J0D01*
G01*
X17500Y-1500D02*
G03*
X17500Y-1500I-1000J0D01*
G01*
X60500Y52500D02*
G03*
X60500Y52500I-1000J0D01*
G01*
X-32610Y22000D02*
G03*
X-32610Y22000I-1000J0D01*
G01*
X-79110Y2650D02*
G03*
X-79110Y2650I-1000J0D01*
G01*
X-65500Y40500D02*
G03*
X-65500Y40500I-1000J0D01*
G01*
X-54110Y8819D02*
G03*
X-54110Y8819I-1000J0D01*
G01*
X-28000Y-19000D02*
G03*
X-28000Y-19000I-1000J0D01*
G01*
X-37736Y-31736D02*
G03*
X-37736Y-31736I-1000J0D01*
G01*
X-10750Y-33650D02*
G03*
X-10750Y-33650I-1000J0D01*
G01*
X-23850Y-48650D02*
G03*
X-23850Y-48650I-1000J0D01*
G01*
X-44750Y-61250D02*
G03*
X-44750Y-61250I-1000J0D01*
G01*
X-20500Y4500D02*
G03*
X-20500Y4500I-1000J0D01*
G01*
X-18500Y26500D02*
G03*
X-18500Y26500I-1000J0D01*
G01*
X-10000Y41110D02*
G03*
X-10000Y41110I-1000J0D01*
G01*
X-26815Y47602D02*
G03*
X-26815Y47602I-1000J0D01*
G01*
X-57000Y-53000D02*
G03*
X-57000Y-53000I-1000J0D01*
G01*
X-59000Y-16000D02*
G03*
X-59000Y-16000I-1000J0D01*
G01*
X-36500Y33000D02*
G03*
X-36500Y33000I-1000J0D01*
G01*
X-51000Y23000D02*
G03*
X-51000Y23000I-1000J0D01*
G01*
X-37000Y3000D02*
G03*
X-37000Y3000I-1000J0D01*
G01*
X-12500Y-16000D02*
G03*
X-12500Y-16000I-1000J0D01*
G01*
X62500Y1500D02*
G03*
X62500Y1500I-1000J0D01*
G01*
X80000D02*
G03*
X80000Y1500I-1000J0D01*
G01*
X-38500Y9500D02*
G03*
X-38500Y9500I-1000J0D01*
G01*
X-6000Y500D02*
G03*
X-6000Y500I-1000J0D01*
G01*
X5000Y-15500D02*
G03*
X5000Y-15500I-1000J0D01*
G01*
X13000Y-7000D02*
G03*
X13000Y-7000I-1000J0D01*
G01*
X43354Y-5550D02*
G03*
X43354Y-5550I-1000J0D01*
G01*
X1000Y-23000D02*
G03*
X1000Y-23000I-1000J0D01*
G01*
Y-31000D02*
G03*
X1000Y-31000I-1000J0D01*
G01*
X-31000Y-82000D02*
G03*
X-31000Y-82000I-1000J0D01*
G01*
X-4000Y-61000D02*
G03*
X-4000Y-61000I-1000J0D01*
G01*
X2500Y33000D02*
G03*
X2500Y33000I-1000J0D01*
G01*
Y42625D02*
G03*
X2500Y42625I-1000J0D01*
G01*
Y52250D02*
G03*
X2500Y52250I-1000J0D01*
G01*
Y61875D02*
G03*
X2500Y61875I-1000J0D01*
G01*
Y71500D02*
G03*
X2500Y71500I-1000J0D01*
G01*
X-3500D02*
G03*
X-3500Y71500I-1000J0D01*
G01*
Y61875D02*
G03*
X-3500Y61875I-1000J0D01*
G01*
Y52250D02*
G03*
X-3500Y52250I-1000J0D01*
G01*
X12125Y71500D02*
G03*
X12125Y71500I-1000J0D01*
G01*
X21750D02*
G03*
X21750Y71500I-1000J0D01*
G01*
X31375D02*
G03*
X31375Y71500I-1000J0D01*
G01*
X41125Y69000D02*
G03*
X41125Y69000I-1000J0D01*
G01*
X53625D02*
G03*
X53625Y69000I-1000J0D01*
G01*
X61000D02*
G03*
X61000Y69000I-1000J0D01*
G01*
Y80000D02*
G03*
X61000Y80000I-1000J0D01*
G01*
X53625D02*
G03*
X53625Y80000I-1000J0D01*
G01*
X41125D02*
G03*
X41125Y80000I-1000J0D01*
G01*
X31375Y77500D02*
G03*
X31375Y77500I-1000J0D01*
G01*
X21750D02*
G03*
X21750Y77500I-1000J0D01*
G01*
X12125D02*
G03*
X12125Y77500I-1000J0D01*
G01*
X2500D02*
G03*
X2500Y77500I-1000J0D01*
G01*
X61000Y60750D02*
G03*
X61000Y60750I-1000J0D01*
G01*
X72750D02*
G03*
X72750Y60750I-1000J0D01*
G01*
X84500D02*
G03*
X84500Y60750I-1000J0D01*
G01*
X-3500Y77500D02*
G03*
X-3500Y77500I-1000J0D01*
G01*
X31375Y63250D02*
G03*
X31375Y63250I-1000J0D01*
G01*
X21750D02*
G03*
X21750Y63250I-1000J0D01*
G01*
X12125D02*
G03*
X12125Y63250I-1000J0D01*
G01*
X31250Y55000D02*
G03*
X31250Y55000I-1000J0D01*
G01*
X21625D02*
G03*
X21625Y55000I-1000J0D01*
G01*
X12000D02*
G03*
X12000Y55000I-1000J0D01*
G01*
X40875D02*
G03*
X40875Y55000I-1000J0D01*
G01*
X50500D02*
G03*
X50500Y55000I-1000J0D01*
G01*
X41000Y63250D02*
G03*
X41000Y63250I-1000J0D01*
G01*
X50625D02*
G03*
X50625Y63250I-1000J0D01*
G01*
X-3500Y83500D02*
G03*
X-3500Y83500I-1000J0D01*
G01*
X2500D02*
G03*
X2500Y83500I-1000J0D01*
G01*
X12125D02*
G03*
X12125Y83500I-1000J0D01*
G01*
X21750D02*
G03*
X21750Y83500I-1000J0D01*
G01*
X31375D02*
G03*
X31375Y83500I-1000J0D01*
G01*
X84500Y55000D02*
G03*
X84500Y55000I-1000J0D01*
G01*
X72750D02*
G03*
X72750Y55000I-1000J0D01*
G01*
X-10331Y11669D02*
G03*
X-10331Y11669I-1000J0D01*
G01*
Y16000D02*
G03*
X-10331Y16000I-1000J0D01*
G01*
Y20331D02*
G03*
X-10331Y20331I-1000J0D01*
G01*
X-6000Y11669D02*
G03*
X-6000Y11669I-1000J0D01*
G01*
Y16000D02*
G03*
X-6000Y16000I-1000J0D01*
G01*
Y20331D02*
G03*
X-6000Y20331I-1000J0D01*
G01*
X-1669Y11669D02*
G03*
X-1669Y11669I-1000J0D01*
G01*
Y16000D02*
G03*
X-1669Y16000I-1000J0D01*
G01*
Y20331D02*
G03*
X-1669Y20331I-1000J0D01*
G01*
X-74803Y73803D02*
X-73803Y75803D01*
X-75803D02*
X-73803D01*
X-75803D02*
X-74803Y73803D01*
Y-75803D02*
X-73803Y-73803D01*
X-75803D02*
X-73803D01*
X-75803D02*
X-74803Y-75803D01*
X74803D02*
X75803Y-73803D01*
X73803D02*
X75803D01*
X73803D02*
X74803Y-75803D01*
X-83500Y-23992D02*
X-82500Y-23492D01*
X-81500Y-23992D01*
X-82000Y-22992D02*
X-81500Y-23992D01*
X-82000Y-22992D02*
X-81500Y-21992D01*
X-82500Y-22492D02*
X-81500Y-21992D01*
X-83500D02*
X-82500Y-22492D01*
X-83500Y-21992D02*
X-83000Y-22992D01*
X-83500Y-23992D02*
X-83000Y-22992D01*
X-83500Y-58008D02*
X-82500Y-57508D01*
X-81500Y-58008D01*
X-82000Y-57008D02*
X-81500Y-58008D01*
X-82000Y-57008D02*
X-81500Y-56008D01*
X-82500Y-56508D02*
X-81500Y-56008D01*
X-83500D02*
X-82500Y-56508D01*
X-83500Y-56008D02*
X-83000Y-57008D01*
X-83500Y-58008D02*
X-83000Y-57008D01*
X-66543Y-23492D02*
X-66043Y-23992D01*
X-67043Y-23492D02*
X-66543D01*
X-67043D02*
X-66543Y-22992D01*
X-67043Y-22492D02*
X-66543Y-22992D01*
X-67043Y-22492D02*
X-66543D01*
X-66043Y-21992D01*
X-65543Y-22492D01*
X-65043D01*
X-65543Y-22992D02*
X-65043Y-22492D01*
X-65543Y-22992D02*
X-65043Y-23492D01*
X-65543D02*
X-65043D01*
X-66043Y-23992D02*
X-65543Y-23492D01*
X-66543Y-57508D02*
X-66043Y-58008D01*
X-67043Y-57508D02*
X-66543D01*
X-67043D02*
X-66543Y-57008D01*
X-67043Y-56508D02*
X-66543Y-57008D01*
X-67043Y-56508D02*
X-66543D01*
X-66043Y-56008D01*
X-65543Y-56508D01*
X-65043D01*
X-65543Y-57008D02*
X-65043Y-56508D01*
X-65543Y-57008D02*
X-65043Y-57508D01*
X-65543D02*
X-65043D01*
X-66043Y-58008D02*
X-65543Y-57508D01*
X-69012Y-52378D02*
X-67012D01*
Y-50378D01*
X-69012D02*
X-67012D01*
X-69012Y-52378D02*
Y-50378D01*
Y-29622D02*
X-67012D01*
Y-27622D01*
X-69012D02*
X-67012D01*
X-69012Y-29622D02*
Y-27622D01*
X78000Y45000D02*
X79000Y47000D01*
X77000D02*
X79000D01*
X77000D02*
X78000Y45000D01*
D82*
X228412Y-44500D02*
X715485D01*
X228412Y-119500D02*
X715485D01*
X228412Y-134500D02*
X715485D01*
Y-29500D01*
X228412D02*
X715485D01*
X228412Y-134500D02*
Y-29500D01*
X636405Y-134500D02*
Y-29500D01*
X577420Y-134500D02*
Y-29500D01*
X504040Y-134500D02*
Y-29500D01*
X453452Y-134500D02*
Y-29500D01*
X341485Y-134500D02*
Y-29500D01*
X283500Y-134500D02*
Y-29500D01*
X229509Y76750D02*
X683389D01*
X229509Y88750D02*
X683389D01*
X229509Y-7250D02*
Y88750D01*
Y-7250D02*
X270500D01*
X229509Y4750D02*
X270500D01*
X229509Y16750D02*
X270500D01*
X229509Y28750D02*
X270500D01*
X229509Y40750D02*
X270500D01*
X229509Y52750D02*
X270500D01*
X229509Y64750D02*
X270500D01*
Y-7250D02*
Y88750D01*
Y-7250D02*
X363474D01*
X270500Y4750D02*
X363474D01*
X270500Y16750D02*
X363474D01*
X270500Y28750D02*
X363474D01*
X270500Y40750D02*
X363474D01*
X270500Y52750D02*
X363474D01*
X270500Y64750D02*
X363474D01*
Y-7250D02*
Y88750D01*
Y-7250D02*
X449451D01*
X363474Y4750D02*
X449451D01*
X363474Y16750D02*
X449451D01*
X363474Y28750D02*
X449451D01*
X363474Y40750D02*
X449451D01*
X363474Y52750D02*
X449451D01*
X363474Y64750D02*
X449451D01*
Y-7250D02*
Y88750D01*
Y-7250D02*
X514435D01*
X449451Y4750D02*
X514435D01*
X449451Y16750D02*
X514435D01*
X449451Y28750D02*
X514435D01*
X449451Y40750D02*
X514435D01*
X449451Y52750D02*
X514435D01*
X449451Y64750D02*
X514435D01*
Y-7250D02*
Y88750D01*
Y-7250D02*
X571421D01*
X514435Y4750D02*
X571421D01*
X514435Y16750D02*
X571421D01*
X514435Y28750D02*
X571421D01*
X514435Y40750D02*
X571421D01*
X514435Y52750D02*
X571421D01*
X514435Y64750D02*
X571421D01*
Y-7250D02*
Y88750D01*
Y-7250D02*
X683389D01*
X571421Y4750D02*
X683389D01*
X571421Y16750D02*
X683389D01*
X571421Y28750D02*
X683389D01*
X571421Y40750D02*
X683389D01*
X571421Y52750D02*
X683389D01*
X571421Y64750D02*
X683389D01*
Y-7250D02*
Y88750D01*
D83*
X677389Y-7250D02*
X683389Y-1250D01*
X671389Y-7250D02*
X683389Y4750D01*
X665389Y-7250D02*
X677389Y4750D01*
X659389Y-7250D02*
X671389Y4750D01*
X653389Y-7250D02*
X665389Y4750D01*
X647389Y-7250D02*
X659389Y4750D01*
X641389Y-7250D02*
X653389Y4750D01*
X635389Y-7250D02*
X647389Y4750D01*
X629389Y-7250D02*
X641389Y4750D01*
X623389Y-7250D02*
X635389Y4750D01*
X617389Y-7250D02*
X629389Y4750D01*
X611389Y-7250D02*
X623389Y4750D01*
X605389Y-7250D02*
X617389Y4750D01*
X599389Y-7250D02*
X611389Y4750D01*
X593389Y-7250D02*
X605389Y4750D01*
X587389Y-7250D02*
X599389Y4750D01*
X581389Y-7250D02*
X593389Y4750D01*
X575389Y-7250D02*
X587389Y4750D01*
X571421Y-5218D02*
X581389Y4750D01*
X571421Y782D02*
X575389Y4750D01*
X677389D02*
X683389Y10750D01*
X671389Y4750D02*
X683389Y16750D01*
X665389Y4750D02*
X677389Y16750D01*
X659389Y4750D02*
X671389Y16750D01*
X653389Y4750D02*
X665389Y16750D01*
X647389Y4750D02*
X659389Y16750D01*
X641389Y4750D02*
X653389Y16750D01*
X635389Y4750D02*
X647389Y16750D01*
X629389Y4750D02*
X641389Y16750D01*
X623389Y4750D02*
X635389Y16750D01*
X617389Y4750D02*
X629389Y16750D01*
X611389Y4750D02*
X623389Y16750D01*
X605389Y4750D02*
X617389Y16750D01*
X599389Y4750D02*
X611389Y16750D01*
X593389Y4750D02*
X605389Y16750D01*
X587389Y4750D02*
X599389Y16750D01*
X581389Y4750D02*
X593389Y16750D01*
X575389Y4750D02*
X587389Y16750D01*
X571421Y6782D02*
X581389Y16750D01*
X571421Y12782D02*
X575389Y16750D01*
X677389D02*
X683389Y22750D01*
X671389Y16750D02*
X683389Y28750D01*
X665389Y16750D02*
X677389Y28750D01*
X659389Y16750D02*
X671389Y28750D01*
X653389Y16750D02*
X665389Y28750D01*
X647389Y16750D02*
X659389Y28750D01*
X641389Y16750D02*
X653389Y28750D01*
X635389Y16750D02*
X647389Y28750D01*
X629389Y16750D02*
X641389Y28750D01*
X623389Y16750D02*
X635389Y28750D01*
X617389Y16750D02*
X629389Y28750D01*
X611389Y16750D02*
X623389Y28750D01*
X605389Y16750D02*
X617389Y28750D01*
X599389Y16750D02*
X611389Y28750D01*
X593389Y16750D02*
X605389Y28750D01*
X587389Y16750D02*
X599389Y28750D01*
X581389Y16750D02*
X593389Y28750D01*
X575389Y16750D02*
X587389Y28750D01*
X571421Y18782D02*
X581389Y28750D01*
X571421Y24782D02*
X575389Y28750D01*
X677389D02*
X683389Y34750D01*
X671389Y28750D02*
X683389Y40750D01*
X665389Y28750D02*
X677389Y40750D01*
X659389Y28750D02*
X671389Y40750D01*
X653389Y28750D02*
X665389Y40750D01*
X647389Y28750D02*
X659389Y40750D01*
X641389Y28750D02*
X653389Y40750D01*
X635389Y28750D02*
X647389Y40750D01*
X629389Y28750D02*
X641389Y40750D01*
X623389Y28750D02*
X635389Y40750D01*
X617389Y28750D02*
X629389Y40750D01*
X611389Y28750D02*
X623389Y40750D01*
X605389Y28750D02*
X617389Y40750D01*
X599389Y28750D02*
X611389Y40750D01*
X593389Y28750D02*
X605389Y40750D01*
X587389Y28750D02*
X599389Y40750D01*
X581389Y28750D02*
X593389Y40750D01*
X575389Y28750D02*
X587389Y40750D01*
X571421Y30782D02*
X581389Y40750D01*
X571421Y36782D02*
X575389Y40750D01*
X677389D02*
X683389Y46750D01*
X671389Y40750D02*
X683389Y52750D01*
X665389Y40750D02*
X677389Y52750D01*
X659389Y40750D02*
X671389Y52750D01*
X653389Y40750D02*
X665389Y52750D01*
X647389Y40750D02*
X659389Y52750D01*
X641389Y40750D02*
X653389Y52750D01*
X635389Y40750D02*
X647389Y52750D01*
X629389Y40750D02*
X641389Y52750D01*
X623389Y40750D02*
X635389Y52750D01*
X617389Y40750D02*
X629389Y52750D01*
X611389Y40750D02*
X623389Y52750D01*
X605389Y40750D02*
X617389Y52750D01*
X599389Y40750D02*
X611389Y52750D01*
X593389Y40750D02*
X605389Y52750D01*
X587389Y40750D02*
X599389Y52750D01*
X581389Y40750D02*
X593389Y52750D01*
X575389Y40750D02*
X587389Y52750D01*
X571421Y42782D02*
X581389Y52750D01*
X571421Y48782D02*
X575389Y52750D01*
X677389D02*
X683389Y58750D01*
X671389Y52750D02*
X683389Y64750D01*
X665389Y52750D02*
X677389Y64750D01*
X659389Y52750D02*
X671389Y64750D01*
X653389Y52750D02*
X665389Y64750D01*
X647389Y52750D02*
X659389Y64750D01*
X641389Y52750D02*
X653389Y64750D01*
X635389Y52750D02*
X647389Y64750D01*
X629389Y52750D02*
X641389Y64750D01*
X623389Y52750D02*
X635389Y64750D01*
X617389Y52750D02*
X629389Y64750D01*
X611389Y52750D02*
X623389Y64750D01*
X605389Y52750D02*
X617389Y64750D01*
X599389Y52750D02*
X611389Y64750D01*
X593389Y52750D02*
X605389Y64750D01*
X587389Y52750D02*
X599389Y64750D01*
X581389Y52750D02*
X593389Y64750D01*
X575389Y52750D02*
X587389Y64750D01*
X571421Y54782D02*
X581389Y64750D01*
X571421Y60782D02*
X575389Y64750D01*
X677389D02*
X683389Y70750D01*
X671389Y64750D02*
X683389Y76750D01*
X665389Y64750D02*
X677389Y76750D01*
X659389Y64750D02*
X671389Y76750D01*
X653389Y64750D02*
X665389Y76750D01*
X647389Y64750D02*
X659389Y76750D01*
X641389Y64750D02*
X653389Y76750D01*
X635389Y64750D02*
X647389Y76750D01*
X629389Y64750D02*
X641389Y76750D01*
X623389Y64750D02*
X635389Y76750D01*
X617389Y64750D02*
X629389Y76750D01*
X611389Y64750D02*
X623389Y76750D01*
X605389Y64750D02*
X617389Y76750D01*
X599389Y64750D02*
X611389Y76750D01*
X593389Y64750D02*
X605389Y76750D01*
X587389Y64750D02*
X599389Y76750D01*
X581389Y64750D02*
X593389Y76750D01*
X575389Y64750D02*
X587389Y76750D01*
X571421Y66782D02*
X581389Y76750D01*
X571421Y72782D02*
X575389Y76750D01*
D84*
X640905Y-40000D02*
Y-32802D01*
X644504D01*
X645703Y-34002D01*
Y-36401D01*
X644504Y-37601D01*
X640905D01*
X649302Y-35201D02*
X651701D01*
X652901Y-36401D01*
Y-40000D01*
X649302D01*
X648102Y-38800D01*
X649302Y-37601D01*
X652901D01*
X660099Y-32802D02*
Y-40000D01*
X656500D01*
X655300Y-38800D01*
Y-36401D01*
X656500Y-35201D01*
X660099D01*
X674494Y-34002D02*
X673294Y-32802D01*
X670895D01*
X669695Y-34002D01*
Y-35201D01*
X670895Y-36401D01*
X673294D01*
X674494Y-37601D01*
Y-38800D01*
X673294Y-40000D01*
X670895D01*
X669695Y-38800D01*
X676893Y-32802D02*
Y-40000D01*
Y-36401D01*
X678093Y-35201D01*
X680492D01*
X681692Y-36401D01*
Y-40000D01*
X685290Y-35201D02*
X687690D01*
X688889Y-36401D01*
Y-40000D01*
X685290D01*
X684091Y-38800D01*
X685290Y-37601D01*
X688889D01*
X691288Y-42399D02*
Y-35201D01*
X694887D01*
X696087Y-36401D01*
Y-38800D01*
X694887Y-40000D01*
X691288D01*
X702085D02*
X699686D01*
X698486Y-38800D01*
Y-36401D01*
X699686Y-35201D01*
X702085D01*
X703285Y-36401D01*
Y-37601D01*
X698486D01*
X581920Y-32802D02*
Y-37601D01*
X584319Y-40000D01*
X586718Y-37601D01*
Y-32802D01*
X589118Y-40000D02*
X591517D01*
X590317D01*
Y-35201D01*
X589118D01*
X596315D02*
X598714D01*
X599914Y-36401D01*
Y-40000D01*
X596315D01*
X595116Y-38800D01*
X596315Y-37601D01*
X599914D01*
X602313Y-40000D02*
X607112Y-35201D01*
X609511Y-40000D02*
Y-32802D01*
X613110D01*
X614309Y-34002D01*
Y-36401D01*
X613110Y-37601D01*
X609511D01*
X617908Y-35201D02*
X620307D01*
X621507Y-36401D01*
Y-40000D01*
X617908D01*
X616709Y-38800D01*
X617908Y-37601D01*
X621507D01*
X628705Y-32802D02*
Y-40000D01*
X625106D01*
X623906Y-38800D01*
Y-36401D01*
X625106Y-35201D01*
X628705D01*
X508540Y-32802D02*
Y-40000D01*
Y-36401D01*
X513338D01*
Y-32802D01*
Y-40000D01*
X516937D02*
X519336D01*
X520536Y-38800D01*
Y-36401D01*
X519336Y-35201D01*
X516937D01*
X515737Y-36401D01*
Y-38800D01*
X516937Y-40000D01*
X522935D02*
X525334D01*
X524135D01*
Y-32802D01*
X522935D01*
X532532Y-40000D02*
X530133D01*
X528933Y-38800D01*
Y-36401D01*
X530133Y-35201D01*
X532532D01*
X533732Y-36401D01*
Y-37601D01*
X528933D01*
X543328Y-32802D02*
X548127D01*
X545728D01*
Y-40000D01*
X550526Y-35201D02*
Y-38800D01*
X551726Y-40000D01*
X555325D01*
Y-41200D01*
X554125Y-42399D01*
X552925D01*
X555325Y-40000D02*
Y-35201D01*
X557724Y-42399D02*
Y-35201D01*
X561323D01*
X562522Y-36401D01*
Y-38800D01*
X561323Y-40000D01*
X557724D01*
X568520D02*
X566121D01*
X564921Y-38800D01*
Y-36401D01*
X566121Y-35201D01*
X568520D01*
X569720Y-36401D01*
Y-37601D01*
X564921D01*
X457952Y-40000D02*
Y-32802D01*
X461551D01*
X462751Y-34002D01*
Y-36401D01*
X461551Y-37601D01*
X457952D01*
X465150Y-40000D02*
X467549D01*
X466349D01*
Y-32802D01*
X465150D01*
X472347Y-35201D02*
X474747D01*
X475946Y-36401D01*
Y-40000D01*
X472347D01*
X471148Y-38800D01*
X472347Y-37601D01*
X475946D01*
X479545Y-34002D02*
Y-35201D01*
X478345D01*
X480745D01*
X479545D01*
Y-38800D01*
X480745Y-40000D01*
X487942D02*
X485543D01*
X484344Y-38800D01*
Y-36401D01*
X485543Y-35201D01*
X487942D01*
X489142Y-36401D01*
Y-37601D01*
X484344D01*
X496340Y-32802D02*
Y-40000D01*
X492741D01*
X491541Y-38800D01*
Y-36401D01*
X492741Y-35201D01*
X496340D01*
X345985Y-32802D02*
Y-40000D01*
Y-36401D01*
X350783D01*
Y-32802D01*
Y-40000D01*
X354382D02*
X356781D01*
X357981Y-38800D01*
Y-36401D01*
X356781Y-35201D01*
X354382D01*
X353183Y-36401D01*
Y-38800D01*
X354382Y-40000D01*
X360380D02*
X362779D01*
X361580D01*
Y-32802D01*
X360380D01*
X369977Y-40000D02*
X367578D01*
X366378Y-38800D01*
Y-36401D01*
X367578Y-35201D01*
X369977D01*
X371177Y-36401D01*
Y-37601D01*
X366378D01*
X385572Y-34002D02*
X384372Y-32802D01*
X381973D01*
X380773Y-34002D01*
Y-35201D01*
X381973Y-36401D01*
X384372D01*
X385572Y-37601D01*
Y-38800D01*
X384372Y-40000D01*
X381973D01*
X380773Y-38800D01*
X387971Y-40000D02*
X390370D01*
X389171D01*
Y-35201D01*
X387971D01*
X393969D02*
X398768D01*
X393969Y-40000D01*
X398768D01*
X404766D02*
X402366D01*
X401167Y-38800D01*
Y-36401D01*
X402366Y-35201D01*
X404766D01*
X405965Y-36401D01*
Y-37601D01*
X401167D01*
X292798Y-34002D02*
X291599Y-32802D01*
X289200D01*
X288000Y-34002D01*
Y-38800D01*
X289200Y-40000D01*
X291599D01*
X292798Y-38800D01*
X296397Y-40000D02*
X298797D01*
X299996Y-38800D01*
Y-36401D01*
X298797Y-35201D01*
X296397D01*
X295198Y-36401D01*
Y-38800D01*
X296397Y-40000D01*
X302395Y-35201D02*
Y-38800D01*
X303595Y-40000D01*
X307194D01*
Y-35201D01*
X309593Y-40000D02*
Y-35201D01*
X313192D01*
X314391Y-36401D01*
Y-40000D01*
X317990Y-34002D02*
Y-35201D01*
X316791D01*
X319190D01*
X317990D01*
Y-38800D01*
X319190Y-40000D01*
X242211Y-34002D02*
X241011Y-32802D01*
X238612D01*
X237412Y-34002D01*
Y-35201D01*
X238612Y-36401D01*
X241011D01*
X242211Y-37601D01*
Y-38800D01*
X241011Y-40000D01*
X238612D01*
X237412Y-38800D01*
X244610Y-35201D02*
Y-38800D01*
X245810Y-40000D01*
X249409D01*
Y-41200D01*
X248209Y-42399D01*
X247009D01*
X249409Y-40000D02*
Y-35201D01*
X251808Y-40000D02*
Y-35201D01*
X253007D01*
X254207Y-36401D01*
Y-40000D01*
Y-36401D01*
X255407Y-35201D01*
X256606Y-36401D01*
Y-40000D01*
X259005Y-32802D02*
Y-40000D01*
X262604D01*
X263804Y-38800D01*
Y-37601D01*
Y-36401D01*
X262604Y-35201D01*
X259005D01*
X267403Y-40000D02*
X269802D01*
X271002Y-38800D01*
Y-36401D01*
X269802Y-35201D01*
X267403D01*
X266203Y-36401D01*
Y-38800D01*
X267403Y-40000D01*
X273401D02*
X275800D01*
X274600D01*
Y-32802D01*
X273401D01*
D85*
X340681Y-148497D02*
Y-154495D01*
Y-151496D01*
X344680D01*
Y-148497D01*
Y-154495D01*
X347679D02*
X349678D01*
X350678Y-153495D01*
Y-151496D01*
X349678Y-150496D01*
X347679D01*
X346679Y-151496D01*
Y-153495D01*
X347679Y-154495D01*
X352677D02*
X354677D01*
X353677D01*
Y-148497D01*
X352677D01*
X360675Y-154495D02*
X358676D01*
X357676Y-153495D01*
Y-151496D01*
X358676Y-150496D01*
X360675D01*
X361675Y-151496D01*
Y-152496D01*
X357676D01*
X369672Y-148497D02*
Y-154495D01*
X373671D01*
X378669D02*
X376670D01*
X375670Y-153495D01*
Y-151496D01*
X376670Y-150496D01*
X378669D01*
X379669Y-151496D01*
Y-152496D01*
X375670D01*
X381668Y-154495D02*
Y-150496D01*
X384667D01*
X385667Y-151496D01*
Y-154495D01*
X389666Y-156494D02*
X390665D01*
X391665Y-155494D01*
Y-150496D01*
X388666D01*
X387666Y-151496D01*
Y-153495D01*
X388666Y-154495D01*
X391665D01*
X394664Y-149496D02*
Y-150496D01*
X393664D01*
X395664D01*
X394664D01*
Y-153495D01*
X395664Y-154495D01*
X398663Y-148497D02*
Y-154495D01*
Y-151496D01*
X399662Y-150496D01*
X401662D01*
X402661Y-151496D01*
Y-154495D01*
X340681Y-144497D02*
Y-138499D01*
X343680D01*
X344680Y-139499D01*
Y-141498D01*
X343680Y-142498D01*
X340681D01*
X342681D02*
X344680Y-144497D01*
X347679D02*
X349678D01*
X350678Y-143498D01*
Y-141498D01*
X349678Y-140499D01*
X347679D01*
X346679Y-141498D01*
Y-143498D01*
X347679Y-144497D01*
X352677Y-140499D02*
Y-143498D01*
X353677Y-144497D01*
X356676D01*
Y-140499D01*
X359675Y-139499D02*
Y-140499D01*
X358676D01*
X360675D01*
X359675D01*
Y-143498D01*
X360675Y-144497D01*
X366673D02*
X364674D01*
X363674Y-143498D01*
Y-141498D01*
X364674Y-140499D01*
X366673D01*
X367673Y-141498D01*
Y-142498D01*
X363674D01*
X373671Y-138499D02*
Y-144497D01*
X370672D01*
X369672Y-143498D01*
Y-141498D01*
X370672Y-140499D01*
X373671D01*
X381668Y-144497D02*
Y-138499D01*
X384667D01*
X385667Y-139499D01*
Y-141498D01*
X384667Y-142498D01*
X381668D01*
X388666Y-140499D02*
X390665D01*
X391665Y-141498D01*
Y-144497D01*
X388666D01*
X387666Y-143498D01*
X388666Y-142498D01*
X391665D01*
X394664Y-139499D02*
Y-140499D01*
X393664D01*
X395664D01*
X394664D01*
Y-143498D01*
X395664Y-144497D01*
X398663Y-138499D02*
Y-144497D01*
Y-141498D01*
X399662Y-140499D01*
X401662D01*
X402661Y-141498D01*
Y-144497D01*
X410659Y-138499D02*
Y-144497D01*
X414657D01*
X419656D02*
X417657D01*
X416657Y-143498D01*
Y-141498D01*
X417657Y-140499D01*
X419656D01*
X420655Y-141498D01*
Y-142498D01*
X416657D01*
X422655Y-144497D02*
Y-140499D01*
X425654D01*
X426654Y-141498D01*
Y-144497D01*
X430652Y-146497D02*
X431652D01*
X432652Y-145497D01*
Y-140499D01*
X429653D01*
X428653Y-141498D01*
Y-143498D01*
X429653Y-144497D01*
X432652D01*
X435651Y-139499D02*
Y-140499D01*
X434651D01*
X436650D01*
X435651D01*
Y-143498D01*
X436650Y-144497D01*
X439649Y-138499D02*
Y-144497D01*
Y-141498D01*
X440649Y-140499D01*
X442648D01*
X443648Y-141498D01*
Y-144497D01*
X241411Y-139499D02*
X240411Y-138499D01*
X238412D01*
X237412Y-139499D01*
Y-140499D01*
X238412Y-141498D01*
X240411D01*
X241411Y-142498D01*
Y-143498D01*
X240411Y-144497D01*
X238412D01*
X237412Y-143498D01*
X243410Y-144497D02*
X245410D01*
X244410D01*
Y-138499D01*
X243410D01*
X249409Y-144497D02*
X251408D01*
X252408Y-143498D01*
Y-141498D01*
X251408Y-140499D01*
X249409D01*
X248409Y-141498D01*
Y-143498D01*
X249409Y-144497D01*
X255407Y-139499D02*
Y-140499D01*
X254407D01*
X256406D01*
X255407D01*
Y-143498D01*
X256406Y-144497D01*
X269402Y-138499D02*
Y-144497D01*
X266403D01*
X265403Y-143498D01*
Y-141498D01*
X266403Y-140499D01*
X269402D01*
X274400Y-144497D02*
X272401D01*
X271401Y-143498D01*
Y-141498D01*
X272401Y-140499D01*
X274400D01*
X275400Y-141498D01*
Y-142498D01*
X271401D01*
X278399Y-144497D02*
Y-139499D01*
Y-141498D01*
X277399D01*
X279399D01*
X278399D01*
Y-139499D01*
X279399Y-138499D01*
X282398Y-144497D02*
X284397D01*
X283398D01*
Y-140499D01*
X282398D01*
X287396Y-144497D02*
Y-140499D01*
X290395D01*
X291395Y-141498D01*
Y-144497D01*
X293394D02*
X295394D01*
X294394D01*
Y-140499D01*
X293394D01*
X299392Y-139499D02*
Y-140499D01*
X298393D01*
X300392D01*
X299392D01*
Y-143498D01*
X300392Y-144497D01*
X303391D02*
X305390D01*
X304391D01*
Y-140499D01*
X303391D01*
X309389Y-144497D02*
X311388D01*
X312388Y-143498D01*
Y-141498D01*
X311388Y-140499D01*
X309389D01*
X308389Y-141498D01*
Y-143498D01*
X309389Y-144497D01*
X314387D02*
Y-140499D01*
X317387D01*
X318386Y-141498D01*
Y-144497D01*
X320386D02*
X323385D01*
X324384Y-143498D01*
X323385Y-142498D01*
X321385D01*
X320386Y-141498D01*
X321385Y-140499D01*
X324384D01*
X332382D02*
X333381D01*
Y-141498D01*
X332382D01*
Y-140499D01*
Y-143498D02*
X333381D01*
Y-144497D01*
X332382D01*
Y-143498D01*
M02*
