G04*
G04 #@! TF.GenerationSoftware,Altium Limited,Altium Designer,22.6.1 (34)*
G04*
G04 Layer_Color=8421504*
%FSLAX25Y25*%
%MOIN*%
G70*
G04*
G04 #@! TF.SameCoordinates,C960C2BB-4387-47BD-B0B2-73E0CB32DA73*
G04*
G04*
G04 #@! TF.FilePolarity,Positive*
G04*
G01*
G75*
%ADD18R,0.03300X0.04200*%
%ADD19R,0.03150X0.03543*%
%ADD20R,0.02756X0.03543*%
%ADD21R,0.03543X0.02756*%
%ADD22R,0.03937X0.09843*%
%ADD23R,0.03150X0.06299*%
%ADD24R,0.03937X0.03740*%
%ADD25R,0.04331X0.02362*%
%ADD26R,0.14961X0.13780*%
%ADD27O,0.02953X0.00984*%
%ADD28O,0.00984X0.02953*%
%ADD29R,0.03937X0.07087*%
%ADD30R,0.15748X0.09843*%
%ADD31R,0.03799X0.03543*%
%ADD32R,0.03543X0.03799*%
%ADD33R,0.03347X0.03740*%
%ADD34R,0.03347X0.02953*%
%ADD35R,0.04528X0.01181*%
%ADD36R,0.04528X0.02362*%
%ADD37R,0.12480X0.04016*%
%ADD38R,0.09055X0.09055*%
%ADD39R,0.05512X0.01181*%
%ADD40R,0.07087X0.05276*%
D18*
X-72000Y33000D02*
D03*
X-79400D02*
D03*
X-75700Y25126D02*
D03*
D19*
X-59500Y25563D02*
D03*
X-63043Y33437D02*
D03*
X-55957D02*
D03*
X71000Y-57937D02*
D03*
X74543Y-50063D02*
D03*
X67457D02*
D03*
D20*
X-62610Y46500D02*
D03*
X-56390D02*
D03*
X-56390Y40500D02*
D03*
X-62610D02*
D03*
X-72390D02*
D03*
X-78610D02*
D03*
X-79941Y13669D02*
D03*
X-73721D02*
D03*
X-67526D02*
D03*
X-61305D02*
D03*
X-80110Y7500D02*
D03*
X-73890D02*
D03*
X-28610Y52000D02*
D03*
X-22390D02*
D03*
X-10610Y-16000D02*
D03*
X-4390D02*
D03*
X-22610D02*
D03*
X-16390D02*
D03*
X-31390Y-58000D02*
D03*
X-37610D02*
D03*
X-44890Y-76000D02*
D03*
X-51110D02*
D03*
X-33610Y33000D02*
D03*
X-27390D02*
D03*
X-33610Y25000D02*
D03*
X-27390D02*
D03*
Y19000D02*
D03*
X-33610D02*
D03*
X-27390Y-500D02*
D03*
X-33610D02*
D03*
X-48890Y13669D02*
D03*
X-55110D02*
D03*
D21*
X47000Y74610D02*
D03*
Y68390D02*
D03*
X11500Y6000D02*
D03*
Y-221D02*
D03*
X-5000Y-47110D02*
D03*
Y-40890D02*
D03*
Y-58110D02*
D03*
Y-51890D02*
D03*
X-29000Y-9390D02*
D03*
Y-15610D02*
D03*
X-8000Y34890D02*
D03*
Y41110D02*
D03*
X-14000Y34890D02*
D03*
Y41110D02*
D03*
X-35500Y45610D02*
D03*
Y39390D02*
D03*
X-41000Y-15610D02*
D03*
Y-9390D02*
D03*
X-47000Y-15610D02*
D03*
Y-9390D02*
D03*
D22*
X59500Y43500D02*
D03*
X49500D02*
D03*
X39500D02*
D03*
X29500D02*
D03*
X19500D02*
D03*
X9500D02*
D03*
D23*
X80693Y74500D02*
D03*
X67307D02*
D03*
D24*
X53427D02*
D03*
X59333D02*
D03*
X40453D02*
D03*
X34547D02*
D03*
X-33453Y13000D02*
D03*
X-27547D02*
D03*
X-27547Y7000D02*
D03*
X-33453D02*
D03*
D25*
X-34512Y-26800D02*
D03*
X-23488D02*
D03*
X-34512Y-30540D02*
D03*
Y-34280D02*
D03*
X-23488D02*
D03*
X-28988Y-51700D02*
D03*
X-40012D02*
D03*
X-28988Y-47960D02*
D03*
Y-44220D02*
D03*
X-40012D02*
D03*
D26*
X-7000Y16000D02*
D03*
D27*
X-16646Y9110D02*
D03*
Y11079D02*
D03*
Y13047D02*
D03*
Y15016D02*
D03*
Y16984D02*
D03*
Y18953D02*
D03*
Y20921D02*
D03*
Y22890D02*
D03*
X2646D02*
D03*
Y20921D02*
D03*
Y18953D02*
D03*
Y16984D02*
D03*
Y15016D02*
D03*
Y13047D02*
D03*
Y11079D02*
D03*
Y9110D02*
D03*
D28*
X-13890Y25646D02*
D03*
X-11921D02*
D03*
X-9953D02*
D03*
X-7984D02*
D03*
X-6016D02*
D03*
X-4047D02*
D03*
X-2079D02*
D03*
X-110D02*
D03*
Y6354D02*
D03*
X-2079D02*
D03*
X-4047D02*
D03*
X-6016D02*
D03*
X-7984D02*
D03*
X-9953D02*
D03*
X-11921D02*
D03*
X-13890D02*
D03*
D29*
X-18421Y-6500D02*
D03*
X-8579D02*
D03*
D30*
X10000Y-72874D02*
D03*
Y-56732D02*
D03*
D31*
X31350Y-80500D02*
D03*
X37650D02*
D03*
X27350Y15000D02*
D03*
X33650D02*
D03*
X27350Y-11000D02*
D03*
X33650D02*
D03*
X18650D02*
D03*
X12350D02*
D03*
D32*
X-42500Y-33650D02*
D03*
Y-27350D02*
D03*
X-49000Y-33650D02*
D03*
Y-27350D02*
D03*
X-15000Y-33650D02*
D03*
Y-27350D02*
D03*
X-8500Y-33650D02*
D03*
Y-27350D02*
D03*
X-20500Y-50650D02*
D03*
Y-44350D02*
D03*
X-47000Y-51150D02*
D03*
Y-44850D02*
D03*
X59000Y-42850D02*
D03*
Y-49150D02*
D03*
X47500Y-44000D02*
D03*
Y-37701D02*
D03*
X39125D02*
D03*
Y-44000D02*
D03*
X30750D02*
D03*
Y-37701D02*
D03*
X22375D02*
D03*
Y-44000D02*
D03*
X14000D02*
D03*
Y-37701D02*
D03*
D33*
X-51346Y-83000D02*
D03*
X-44653D02*
D03*
D34*
X-27815Y44000D02*
D03*
Y39866D02*
D03*
X-22500Y44000D02*
D03*
Y39866D02*
D03*
D35*
X-63779Y-33110D02*
D03*
Y-35079D02*
D03*
Y-37047D02*
D03*
Y-46890D02*
D03*
Y-44921D02*
D03*
Y-42953D02*
D03*
Y-39016D02*
D03*
Y-40984D02*
D03*
D36*
Y-49449D02*
D03*
Y-30551D02*
D03*
Y-52598D02*
D03*
Y-27402D02*
D03*
D37*
X-24500Y-72000D02*
D03*
Y-82000D02*
D03*
D38*
X58421Y-29626D02*
D03*
Y29626D02*
D03*
D39*
X53500Y-6890D02*
D03*
Y20669D02*
D03*
Y18701D02*
D03*
Y16732D02*
D03*
Y14764D02*
D03*
Y12795D02*
D03*
Y10827D02*
D03*
Y8858D02*
D03*
Y6890D02*
D03*
Y4921D02*
D03*
Y2953D02*
D03*
Y984D02*
D03*
Y-984D02*
D03*
Y-2953D02*
D03*
Y-4921D02*
D03*
Y-8858D02*
D03*
Y-10827D02*
D03*
Y-12795D02*
D03*
Y-14764D02*
D03*
Y-16732D02*
D03*
Y-18701D02*
D03*
Y-20669D02*
D03*
Y-22638D02*
D03*
Y22638D02*
D03*
D03*
D40*
X49500Y-58870D02*
D03*
Y-70130D02*
D03*
X40000D02*
D03*
Y-58870D02*
D03*
X30500D02*
D03*
Y-70130D02*
D03*
M02*
