G04*
G04 #@! TF.GenerationSoftware,Altium Limited,Altium Designer,22.6.1 (34)*
G04*
G04 Layer_Color=16711935*
%FSLAX25Y25*%
%MOIN*%
G70*
G04*
G04 #@! TF.SameCoordinates,3CCE4902-C80F-44A4-85C5-196FD7956E2B*
G04*
G04*
G04 #@! TF.FilePolarity,Negative*
G04*
G01*
G75*
%ADD62C,0.14580*%
%ADD63C,0.03359*%
%ADD64O,0.09068X0.04934*%
%ADD65O,0.08674X0.04737*%
%ADD66C,0.03950*%
%ADD77R,0.05918X0.06902*%
D62*
X78000Y46000D02*
D03*
X74803Y-74803D02*
D03*
X-74803D02*
D03*
Y74803D02*
D03*
D63*
X-68012Y-28622D02*
D03*
Y-51378D02*
D03*
D64*
X-66043Y-57008D02*
D03*
Y-22992D02*
D03*
D65*
X-82500Y-57008D02*
D03*
Y-22992D02*
D03*
D66*
X-2669Y20331D02*
D03*
Y16000D02*
D03*
Y11669D02*
D03*
X-7000Y20331D02*
D03*
Y16000D02*
D03*
Y11669D02*
D03*
X-11331Y20331D02*
D03*
Y16000D02*
D03*
Y11669D02*
D03*
D77*
X8858Y-15650D02*
D03*
X-8858D02*
D03*
Y15650D02*
D03*
X8858D02*
D03*
X65945D02*
D03*
X83661D02*
D03*
Y-15650D02*
D03*
X65945D02*
D03*
X-65945D02*
D03*
X-83661D02*
D03*
Y15650D02*
D03*
X-65945D02*
D03*
M02*
